<svg version="1.1" xmlns="http://www.w3.org/2000/svg" xmlns:xlink="http://www.w3.org/1999/xlink" width="301.90000000000003" height="354.8"><defs><linearGradient id="xLGMqTSBaZGF" x1="1303.0000007152557px" x2="1996.4000014305116px" y1="873.500002861023px" y2="2348.4000064373017px" gradientUnits="userSpaceOnUse"><stop offset="0" stop-color="rgb(255,193,7)" stop-opacity="1"/><stop offset="1" stop-color="rgb(211,211,211)" stop-opacity="1"/></linearGradient><linearGradient id="wFJuwWvRWvBb" x1="1303.0000007152557px" x2="1198.2000007152558px" y1="607.5000014305115px" y2="2804.6000078678135px" gradientUnits="userSpaceOnUse"><stop offset="0" stop-color="rgb(255,193,7)" stop-opacity="1"/><stop offset="1" stop-color="rgb(211,211,211)" stop-opacity="1"/></linearGradient><linearGradient id="gyhhqHqeqptE" x1="1906.0000014305115px" x2="1996.4000014305116px" y1="607.5000014305115px" y2="2476.4000071525575px" gradientUnits="userSpaceOnUse"><stop offset="0" stop-color="rgb(255,193,7)" stop-opacity="1"/><stop offset="1" stop-color="rgb(211,211,211)" stop-opacity="1"/></linearGradient><linearGradient id="QWzQbQtWBJBZ" x1="1303.0000007152557px" x2="1198.2000007152558px" y1="740.5000021457672px" y2="3060.600009298325px" gradientUnits="userSpaceOnUse"><stop offset="0" stop-color="rgb(255,193,7)" stop-opacity="1"/><stop offset="1" stop-color="rgb(211,211,211)" stop-opacity="1"/></linearGradient><linearGradient id="WgRomvDtBBFf" x1="1906.0000014305115px" x2="1996.4000014305116px" y1="740.5000021457672px" y2="1692.0000050067902px" gradientUnits="userSpaceOnUse"><stop offset="0" stop-color="rgb(255,193,7)" stop-opacity="1"/><stop offset="1" stop-color="rgb(211,211,211)" stop-opacity="1"/></linearGradient><linearGradient id="KgHgrCpkQdaW" x1="1026.5000007152557px" x2="576.5px" y1="1098.0000042915344px" y2="699.0000021457672px" gradientUnits="userSpaceOnUse"><stop offset="0" stop-color="rgb(255,193,7)" stop-opacity="1"/><stop offset="1" stop-color="rgb(29,122,218)" stop-opacity="1"/></linearGradient><linearGradient id="mChiMVBCcROC" x1="1906.0000014305115px" x2="1198.2000007152558px" y1="873.500002861023px" y2="2932.600008583069px" gradientUnits="userSpaceOnUse"><stop offset="0" stop-color="rgb(255,193,7)" stop-opacity="1"/><stop offset="1" stop-color="rgb(211,211,211)" stop-opacity="1"/></linearGradient><linearGradient id="mzIbNTGtaRwa" x1="1303.0000007152557px" x2="400px" y1="1006.5000035762787px" y2="2020.2000057220457px" gradientUnits="userSpaceOnUse"><stop offset="0" stop-color="rgb(255,193,7)" stop-opacity="1"/><stop offset="1" stop-color="rgb(211,211,211)" stop-opacity="1"/></linearGradient><linearGradient id="orMMsoSEKiip" x1="1906.0000014305115px" x2="1198.2000007152558px" y1="1006.5000035762787px" y2="2804.6000078678135px" gradientUnits="userSpaceOnUse"><stop offset="0" stop-color="rgb(255,193,7)" stop-opacity="1"/><stop offset="1" stop-color="rgb(211,211,211)" stop-opacity="1"/></linearGradient><linearGradient id="pyZLizHfXetx" x1="1906.0000014305115px" x2="1996.4000014305116px" y1="1139.5000042915344px" y2="2348.4000064373017px" gradientUnits="userSpaceOnUse"><stop offset="0" stop-color="rgb(255,193,7)" stop-opacity="1"/><stop offset="1" stop-color="rgb(211,211,211)" stop-opacity="1"/></linearGradient><linearGradient id="nLHXcVICDebd" x1="1629.5000014305115px" x2="576.5px" y1="433.00000071525574px" y2="699.0000021457672px" gradientUnits="userSpaceOnUse"><stop offset="0" stop-color="rgb(255,193,7)" stop-opacity="1"/><stop offset="1" stop-color="rgb(29,122,218)" stop-opacity="1"/></linearGradient><linearGradient id="gHoLXRcWIXms" x1="1303.0000007152557px" x2="1198.2000007152558px" y1="341.5px" y2="2932.600008583069px" gradientUnits="userSpaceOnUse"><stop offset="0" stop-color="rgb(255,193,7)" stop-opacity="1"/><stop offset="1" stop-color="rgb(211,211,211)" stop-opacity="1"/></linearGradient><linearGradient id="dkqPSZAmpCsU" x1="1906.0000014305115px" x2="1198.2000007152558px" y1="341.5px" y2="3060.600009298325px" gradientUnits="userSpaceOnUse"><stop offset="0" stop-color="rgb(255,193,7)" stop-opacity="1"/><stop offset="1" stop-color="rgb(211,211,211)" stop-opacity="1"/></linearGradient><linearGradient id="zeJfCHwvqRSd" x1="1303.0000007152557px" x2="1996.4000014305116px" y1="474.50000071525574px" y2="2476.4000071525575px" gradientUnits="userSpaceOnUse"><stop offset="0" stop-color="rgb(255,193,7)" stop-opacity="1"/><stop offset="1" stop-color="rgb(211,211,211)" stop-opacity="1"/></linearGradient><linearGradient id="UcMTQCcGcnpy" x1="1198.2000007152558px" x2="1996.4000014305116px" y1="2932.600008583069px" y2="2426.4000064373017px" gradientUnits="userSpaceOnUse"><stop offset="0" stop-color="rgb(211,211,211)" stop-opacity="1"/><stop offset="1" stop-color="rgb(211,211,211)" stop-opacity="1"/></linearGradient><linearGradient id="QCFdpcVmWeed" x1="1198.2000007152558px" x2="300px" y1="2932.600008583069px" y2="740.5000021457672px" gradientUnits="userSpaceOnUse"><stop offset="0" stop-color="rgb(211,211,211)" stop-opacity="1"/><stop offset="1" stop-color="rgb(29,122,218)" stop-opacity="1"/></linearGradient><linearGradient id="ZlheMCRmNHAN" x1="1198.2000007152558px" x2="300px" y1="2932.600008583069px" y2="474.50000071525574px" gradientUnits="userSpaceOnUse"><stop offset="0" stop-color="rgb(211,211,211)" stop-opacity="1"/><stop offset="1" stop-color="rgb(29,122,218)" stop-opacity="1"/></linearGradient><linearGradient id="fknDgfJHqGXE" x1="400px" x2="300px" y1="2020.2000057220457px" y2="607.5000014305115px" gradientUnits="userSpaceOnUse"><stop offset="0" stop-color="rgb(211,211,211)" stop-opacity="1"/><stop offset="1" stop-color="rgb(29,122,218)" stop-opacity="1"/></linearGradient><linearGradient id="bBvxkFBnQbGE" x1="400px" x2="300px" y1="2020.2000057220457px" y2="1139.5000042915344px" gradientUnits="userSpaceOnUse"><stop offset="0" stop-color="rgb(211,211,211)" stop-opacity="1"/><stop offset="1" stop-color="rgb(29,122,218)" stop-opacity="1"/></linearGradient><linearGradient id="NfFQnMaKGVMP" x1="400px" x2="300px" y1="2020.2000057220457px" y2="474.50000071525574px" gradientUnits="userSpaceOnUse"><stop offset="0" stop-color="rgb(211,211,211)" stop-opacity="1"/><stop offset="1" stop-color="rgb(29,122,218)" stop-opacity="1"/></linearGradient><linearGradient id="hMplhOFiARKl" x1="1198.2000007152558px" x2="300px" y1="3060.600009298325px" y2="740.5000021457672px" gradientUnits="userSpaceOnUse"><stop offset="0" stop-color="rgb(211,211,211)" stop-opacity="1"/><stop offset="1" stop-color="rgb(29,122,218)" stop-opacity="1"/></linearGradient><linearGradient id="QeuyBatNMKZg" x1="1198.2000007152558px" x2="300px" y1="3060.600009298325px" y2="474.50000071525574px" gradientUnits="userSpaceOnUse"><stop offset="0" stop-color="rgb(211,211,211)" stop-opacity="1"/><stop offset="1" stop-color="rgb(29,122,218)" stop-opacity="1"/></linearGradient><linearGradient id="llRoyWBNyhXT" x1="1198.2000007152558px" x2="1996.4000014305116px" y1="3060.600009298325px" y2="2426.4000064373017px" gradientUnits="userSpaceOnUse"><stop offset="0" stop-color="rgb(211,211,211)" stop-opacity="1"/><stop offset="1" stop-color="rgb(211,211,211)" stop-opacity="1"/></linearGradient><linearGradient id="UqyUMeUgpIVS" x1="1198.2000007152558px" x2="300px" y1="2020.2000057220457px" y2="607.5000014305115px" gradientUnits="userSpaceOnUse"><stop offset="0" stop-color="rgb(211,211,211)" stop-opacity="1"/><stop offset="1" stop-color="rgb(29,122,218)" stop-opacity="1"/></linearGradient><linearGradient id="GeEcoDUitCXd" x1="1198.2000007152558px" x2="300px" y1="2020.2000057220457px" y2="1139.5000042915344px" gradientUnits="userSpaceOnUse"><stop offset="0" stop-color="rgb(211,211,211)" stop-opacity="1"/><stop offset="1" stop-color="rgb(29,122,218)" stop-opacity="1"/></linearGradient><linearGradient id="CwXWnconRnvP" x1="1198.2000007152558px" x2="300px" y1="2020.2000057220457px" y2="474.50000071525574px" gradientUnits="userSpaceOnUse"><stop offset="0" stop-color="rgb(211,211,211)" stop-opacity="1"/><stop offset="1" stop-color="rgb(29,122,218)" stop-opacity="1"/></linearGradient><linearGradient id="mkINrGGCbWMX" x1="1722.4000014305116px" x2="1472.2000007152558px" y1="2059.2000057220457px" y2="2059.2000057220457px" gradientUnits="userSpaceOnUse"><stop offset="0" stop-color="rgb(211,211,211)" stop-opacity="1"/><stop offset="1" stop-color="rgb(211,211,211)" stop-opacity="1"/></linearGradient><linearGradient id="dfUWwcvInzZl" x1="1996.4000014305116px" x2="1996.4000014305116px" y1="2020.2000057220457px" y2="1770.0000050067902px" gradientUnits="userSpaceOnUse"><stop offset="0" stop-color="rgb(211,211,211)" stop-opacity="1"/><stop offset="1" stop-color="rgb(211,211,211)" stop-opacity="1"/></linearGradient><linearGradient id="JZQUoDkHqhQV" x1="400px" x2="1198.2000007152558px" y1="2348.4000064373017px" y2="2098.2000057220457px" gradientUnits="userSpaceOnUse"><stop offset="0" stop-color="rgb(211,211,211)" stop-opacity="1"/><stop offset="1" stop-color="rgb(211,211,211)" stop-opacity="1"/></linearGradient><linearGradient id="PRithOBhbZqO" x1="400px" x2="1198.2000007152558px" y1="2426.4000064373017px" y2="2804.6000078678135px" gradientUnits="userSpaceOnUse"><stop offset="0" stop-color="rgb(211,211,211)" stop-opacity="1"/><stop offset="1" stop-color="rgb(211,211,211)" stop-opacity="1"/></linearGradient><linearGradient id="iNJuDeqGruQc" x1="1198.2000007152558px" x2="300px" y1="2348.4000064373017px" y2="607.5000014305115px" gradientUnits="userSpaceOnUse"><stop offset="0" stop-color="rgb(211,211,211)" stop-opacity="1"/><stop offset="1" stop-color="rgb(29,122,218)" stop-opacity="1"/></linearGradient><linearGradient id="ELMWsRRTkhoJ" x1="1198.2000007152558px" x2="300px" y1="2348.4000064373017px" y2="1139.5000042915344px" gradientUnits="userSpaceOnUse"><stop offset="0" stop-color="rgb(211,211,211)" stop-opacity="1"/><stop offset="1" stop-color="rgb(29,122,218)" stop-opacity="1"/></linearGradient><linearGradient id="heitdmqHGtZp" x1="1198.2000007152558px" x2="300px" y1="2348.4000064373017px" y2="474.50000071525574px" gradientUnits="userSpaceOnUse"><stop offset="0" stop-color="rgb(211,211,211)" stop-opacity="1"/><stop offset="1" stop-color="rgb(29,122,218)" stop-opacity="1"/></linearGradient><linearGradient id="xPAWZlOOvsvi" x1="1198.2000007152558px" x2="1996.4000014305116px" y1="2348.4000064373017px" y2="1770.0000050067902px" gradientUnits="userSpaceOnUse"><stop offset="0" stop-color="rgb(211,211,211)" stop-opacity="1"/><stop offset="1" stop-color="rgb(211,211,211)" stop-opacity="1"/></linearGradient><linearGradient id="IwbudnPicIrp" x1="1198.2000007152558px" x2="300px" y1="2348.4000064373017px" y2="341.5px" gradientUnits="userSpaceOnUse"><stop offset="0" stop-color="rgb(211,211,211)" stop-opacity="1"/><stop offset="1" stop-color="rgb(29,122,218)" stop-opacity="1"/></linearGradient><linearGradient id="uBQdMebgmGRF" x1="674px" x2="1722.4000014305116px" y1="2971.600008583069px" y2="2515.4000071525575px" gradientUnits="userSpaceOnUse"><stop offset="0" stop-color="rgb(211,211,211)" stop-opacity="1"/><stop offset="1" stop-color="rgb(211,211,211)" stop-opacity="1"/></linearGradient><linearGradient id="DEGGZncBQtfL" x1="400px" x2="300px" y1="2932.600008583069px" y2="474.50000071525574px" gradientUnits="userSpaceOnUse"><stop offset="0" stop-color="rgb(211,211,211)" stop-opacity="1"/><stop offset="1" stop-color="rgb(29,122,218)" stop-opacity="1"/></linearGradient><linearGradient id="cIgytkQWRPdk" x1="674px" x2="1722.4000014305116px" y1="2971.600008583069px" y2="2387.4000064373017px" gradientUnits="userSpaceOnUse"><stop offset="0" stop-color="rgb(211,211,211)" stop-opacity="1"/><stop offset="1" stop-color="rgb(211,211,211)" stop-opacity="1"/></linearGradient><linearGradient id="CcvKTpoakNDy" x1="1996.4000014305116px" x2="300px" y1="2476.4000071525575px" y2="474.50000071525574px" gradientUnits="userSpaceOnUse"><stop offset="0" stop-color="rgb(211,211,211)" stop-opacity="1"/><stop offset="1" stop-color="rgb(29,122,218)" stop-opacity="1"/></linearGradient><linearGradient id="cHQVihSxwRwQ" x1="1996.4000014305116px" x2="300px" y1="2476.4000071525575px" y2="341.5px" gradientUnits="userSpaceOnUse"><stop offset="0" stop-color="rgb(211,211,211)" stop-opacity="1"/><stop offset="1" stop-color="rgb(29,122,218)" stop-opacity="1"/></linearGradient><linearGradient id="CIOSoCACgHsR" x1="1996.4000014305116px" x2="300px" y1="2476.4000071525575px" y2="873.500002861023px" gradientUnits="userSpaceOnUse"><stop offset="0" stop-color="rgb(211,211,211)" stop-opacity="1"/><stop offset="1" stop-color="rgb(29,122,218)" stop-opacity="1"/></linearGradient><linearGradient id="FEkughCAlLrT" x1="1996.4000014305116px" x2="300px" y1="2476.4000071525575px" y2="607.5000014305115px" gradientUnits="userSpaceOnUse"><stop offset="0" stop-color="rgb(211,211,211)" stop-opacity="1"/><stop offset="1" stop-color="rgb(29,122,218)" stop-opacity="1"/></linearGradient><linearGradient id="wINHZfbeUTrk" x1="1996.4000014305116px" x2="300px" y1="2476.4000071525575px" y2="1139.5000042915344px" gradientUnits="userSpaceOnUse"><stop offset="0" stop-color="rgb(211,211,211)" stop-opacity="1"/><stop offset="1" stop-color="rgb(29,122,218)" stop-opacity="1"/></linearGradient><linearGradient id="EVmgWdRnLlHf" x1="674px" x2="924.2000007152558px" y1="1731.0000050067902px" y2="2059.2000057220457px" gradientUnits="userSpaceOnUse"><stop offset="0" stop-color="rgb(211,211,211)" stop-opacity="1"/><stop offset="1" stop-color="rgb(211,211,211)" stop-opacity="1"/></linearGradient><linearGradient id="mTihXdpIkqwv" x1="400px" x2="400px" y1="1770.0000050067902px" y2="2020.2000057220457px" gradientUnits="userSpaceOnUse"><stop offset="0" stop-color="rgb(211,211,211)" stop-opacity="1"/><stop offset="1" stop-color="rgb(211,211,211)" stop-opacity="1"/></linearGradient><linearGradient id="JoguFtSwEeaf" x1="1198.2000007152558px" x2="300px" y1="2804.6000078678135px" y2="873.500002861023px" gradientUnits="userSpaceOnUse"><stop offset="0" stop-color="rgb(211,211,211)" stop-opacity="1"/><stop offset="1" stop-color="rgb(29,122,218)" stop-opacity="1"/></linearGradient><linearGradient id="qDTaQZtxkOia" x1="1198.2000007152558px" x2="300px" y1="2804.6000078678135px" y2="1139.5000042915344px" gradientUnits="userSpaceOnUse"><stop offset="0" stop-color="rgb(211,211,211)" stop-opacity="1"/><stop offset="1" stop-color="rgb(29,122,218)" stop-opacity="1"/></linearGradient><linearGradient id="NZkzlbHlZxeA" x1="1198.2000007152558px" x2="300px" y1="2804.6000078678135px" y2="474.50000071525574px" gradientUnits="userSpaceOnUse"><stop offset="0" stop-color="rgb(211,211,211)" stop-opacity="1"/><stop offset="1" stop-color="rgb(29,122,218)" stop-opacity="1"/></linearGradient><linearGradient id="AdRaJTbTfZLS" x1="1198.2000007152558px" x2="1996.4000014305116px" y1="2804.6000078678135px" y2="2554.4000071525575px" gradientUnits="userSpaceOnUse"><stop offset="0" stop-color="rgb(211,211,211)" stop-opacity="1"/><stop offset="1" stop-color="rgb(211,211,211)" stop-opacity="1"/></linearGradient><linearGradient id="aXDvcypUmkZJ" x1="1996.4000014305116px" x2="300px" y1="2348.4000064373017px" y2="341.5px" gradientUnits="userSpaceOnUse"><stop offset="0" stop-color="rgb(211,211,211)" stop-opacity="1"/><stop offset="1" stop-color="rgb(29,122,218)" stop-opacity="1"/></linearGradient><linearGradient id="ARsBEoxqZlEi" x1="1996.4000014305116px" x2="300px" y1="2348.4000064373017px" y2="740.5000021457672px" gradientUnits="userSpaceOnUse"><stop offset="0" stop-color="rgb(211,211,211)" stop-opacity="1"/><stop offset="1" stop-color="rgb(29,122,218)" stop-opacity="1"/></linearGradient><linearGradient id="EQcFsgMXkRpl" x1="1996.4000014305116px" x2="300px" y1="2348.4000064373017px" y2="607.5000014305115px" gradientUnits="userSpaceOnUse"><stop offset="0" stop-color="rgb(211,211,211)" stop-opacity="1"/><stop offset="1" stop-color="rgb(29,122,218)" stop-opacity="1"/></linearGradient><linearGradient id="wiQQGyxSUEfL" x1="1996.4000014305116px" x2="300px" y1="2348.4000064373017px" y2="1139.5000042915344px" gradientUnits="userSpaceOnUse"><stop offset="0" stop-color="rgb(211,211,211)" stop-opacity="1"/><stop offset="1" stop-color="rgb(29,122,218)" stop-opacity="1"/></linearGradient><linearGradient id="SBokXRIElBOO" x1="1996.4000014305116px" x2="300px" y1="2348.4000064373017px" y2="474.50000071525574px" gradientUnits="userSpaceOnUse"><stop offset="0" stop-color="rgb(211,211,211)" stop-opacity="1"/><stop offset="1" stop-color="rgb(29,122,218)" stop-opacity="1"/></linearGradient><linearGradient id="rTLkeoFNnMRI" x1="1198.2000007152558px" x2="1198.2000007152558px" y1="1770.0000050067902px" y2="2348.4000064373017px" gradientUnits="userSpaceOnUse"><stop offset="0" stop-color="rgb(211,211,211)" stop-opacity="1"/><stop offset="1" stop-color="rgb(211,211,211)" stop-opacity="1"/></linearGradient><linearGradient id="hVtzakyNEssc" x1="1198.2000007152558px" x2="1198.2000007152558px" y1="1770.0000050067902px" y2="3060.600009298325px" gradientUnits="userSpaceOnUse"><stop offset="0" stop-color="rgb(211,211,211)" stop-opacity="1"/><stop offset="1" stop-color="rgb(211,211,211)" stop-opacity="1"/></linearGradient><linearGradient id="aHVybyKITqEV" x1="1722.4000014305116px" x2="576.5px" y1="1731.0000050067902px" y2="566.0000014305115px" gradientUnits="userSpaceOnUse"><stop offset="0" stop-color="rgb(211,211,211)" stop-opacity="1"/><stop offset="1" stop-color="rgb(29,122,218)" stop-opacity="1"/></linearGradient><linearGradient id="zqeHiqbKMuTr" x1="1722.4000014305116px" x2="576.5px" y1="1731.0000050067902px" y2="1098.0000042915344px" gradientUnits="userSpaceOnUse"><stop offset="0" stop-color="rgb(211,211,211)" stop-opacity="1"/><stop offset="1" stop-color="rgb(29,122,218)" stop-opacity="1"/></linearGradient><linearGradient id="vqeEGLFBZPIG" x1="1996.4000014305116px" x2="300px" y1="1692.0000050067902px" y2="474.50000071525574px" gradientUnits="userSpaceOnUse"><stop offset="0" stop-color="rgb(211,211,211)" stop-opacity="1"/><stop offset="1" stop-color="rgb(29,122,218)" stop-opacity="1"/></linearGradient><linearGradient id="HnMePgCXkuzb" x1="674px" x2="1722.4000014305116px" y1="2843.6000078678135px" y2="2387.4000064373017px" gradientUnits="userSpaceOnUse"><stop offset="0" stop-color="rgb(211,211,211)" stop-opacity="1"/><stop offset="1" stop-color="rgb(211,211,211)" stop-opacity="1"/></linearGradient><linearGradient id="sbhWnGgfLGFN" x1="400px" x2="300px" y1="2804.6000078678135px" y2="474.50000071525574px" gradientUnits="userSpaceOnUse"><stop offset="0" stop-color="rgb(211,211,211)" stop-opacity="1"/><stop offset="1" stop-color="rgb(29,122,218)" stop-opacity="1"/></linearGradient><linearGradient id="VVPCgwXbDIVv" x1="674px" x2="1722.4000014305116px" y1="2843.6000078678135px" y2="2515.4000071525575px" gradientUnits="userSpaceOnUse"><stop offset="0" stop-color="rgb(211,211,211)" stop-opacity="1"/><stop offset="1" stop-color="rgb(211,211,211)" stop-opacity="1"/></linearGradient></defs><g transform="translate(33.800000000000004,4.6000000000000005) scale(0.1,0.1)"><path fill="rgb(244,236,255)" stroke="rgb(255,255,255)" paint-order="fill stroke markers" d=" M 1171.4500007152558 -44 L 2670.9000014305116 -44 L 2670.9000014305116 -44 A 8 8 0 0 1 2678.9000014305116 -36 L 2678.9000014305116 3491.600009298325 L 2678.9000014305116 3491.600009298325 A 8 8 0 0 1 2670.9000014305116 3499.600009298325 L -328 3499.600009298325 L -328 3499.600009298325 A 8 8 0 0 1 -336 3491.600009298325 L -336 -36 L -336 -36 A 8 8 0 0 1 -328 -44 L 1171.4500007152558 -44 Z" fill-opacity="1" stroke-opacity="1" stroke-miterlimit="10" stroke-width="2"/><text fill="rgb(0,0,0)" stroke="none" font-family="Avenir, Helvetica, Arial, sans-serif" font-size="32px" font-style="normal" font-weight="bold" text-decoration="normal" x="1171.4500007152558" y="31" text-anchor="middle" dominant-baseline="text-after-edge" fill-opacity="1">.</text><path fill="rgb(255,255,255)" stroke="rgb(211,211,211)" paint-order="fill stroke markers" d=" M 1604.5000010728836 157.5 L 2275.5000014305115 157.5 L 2275.5000014305115 157.5 A 8 8 0 0 1 2283.5000014305115 165.5 L 2283.5000014305115 1232.5000042915344 L 2283.5000014305115 1232.5000042915344 A 8 8 0 0 1 2275.5000014305115 1240.5000042915344 L 933.5000007152557 1240.5000042915344 L 933.5000007152557 1240.5000042915344 A 8 8 0 0 1 925.5000007152557 1232.5000042915344 L 925.5000007152557 165.5 L 925.5000007152557 165.5 A 8 8 0 0 1 933.5000007152557 157.5 L 1604.5000010728836 157.5 Z" fill-opacity="1" stroke-opacity="1" stroke-miterlimit="10"/><text fill="rgb(0,0,0)" stroke="none" font-family="Avenir, Helvetica, Arial, sans-serif" font-size="32px" font-style="normal" font-weight="bold" text-decoration="normal" x="1604.5000010728836" y="232.5" text-anchor="middle" dominant-baseline="text-after-edge" fill-opacity="1">outputs.tf</text><path fill="rgb(255,255,255)" stroke="rgb(211,211,211)" paint-order="fill stroke markers" d=" M 300 157.5 L 669.5 157.5 L 669.5 157.5 A 8 8 0 0 1 677.5 165.5 L 677.5 1232.5000042915344 L 677.5 1232.5000042915344 A 8 8 0 0 1 669.5 1240.5000042915344 L -69.5 1240.5000042915344 L -69.5 1240.5000042915344 A 8 8 0 0 1 -77.5 1232.5000042915344 L -77.5 165.5 L -77.5 165.5 A 8 8 0 0 1 -69.5 157.5 L 300 157.5 Z" fill-opacity="1" stroke-opacity="1" stroke-miterlimit="10"/><text fill="rgb(0,0,0)" stroke="none" font-family="Avenir, Helvetica, Arial, sans-serif" font-size="32px" font-style="normal" font-weight="bold" text-decoration="normal" x="300" y="232.5" text-anchor="middle" dominant-baseline="text-after-edge" fill-opacity="1">variables.tf</text><path fill="rgb(255,255,255)" stroke="rgb(211,211,211)" paint-order="fill stroke markers" d=" M 1171.4500007152558 1487.0000050067902 L 2469.4000014305116 1487.0000050067902 L 2469.4000014305116 1487.0000050067902 A 8 8 0 0 1 2477.4000014305116 1495.0000050067902 L 2477.4000014305116 3290.100009298325 L 2477.4000014305116 3290.100009298325 A 8 8 0 0 1 2469.4000014305116 3298.100009298325 L -126.5 3298.100009298325 L -126.5 3298.100009298325 A 8 8 0 0 1 -134.5 3290.100009298325 L -134.5 1495.0000050067902 L -134.5 1495.0000050067902 A 8 8 0 0 1 -126.5 1487.0000050067902 L 1171.4500007152558 1487.0000050067902 Z" fill-opacity="1" stroke-opacity="1" stroke-miterlimit="10"/><text fill="rgb(0,0,0)" stroke="none" font-family="Avenir, Helvetica, Arial, sans-serif" font-size="32px" font-style="normal" font-weight="bold" text-decoration="normal" x="1171.4500007152558" y="1562.0000050067902" text-anchor="middle" dominant-baseline="text-after-edge" fill-opacity="1">main.tf</text><path fill="rgb(255,255,255)" stroke="rgb(0,0,0)" paint-order="fill stroke markers" d=" M 400 1636.0000050067902 L 722 1636.0000050067902 L 722 1636.0000050067902 A 8 8 0 0 1 730 1644.0000050067902 L 730 1818.0000050067902 L 730 1818.0000050067902 A 8 8 0 0 1 722 1826.0000050067902 L 78 1826.0000050067902 L 78 1826.0000050067902 A 8 8 0 0 1 70 1818.0000050067902 L 70 1644.0000050067902 L 70 1644.0000050067902 A 8 8 0 0 1 78 1636.0000050067902 L 400 1636.0000050067902 Z" fill-opacity="1" stroke-opacity="1" stroke-miterlimit="10" stroke-width="5"/><rect fill="rgb(255,255,255)" stroke="none" x="-34.5" y="1587.0000050067902" width="869" height="96" fill-opacity="1"/><text fill="rgb(0,0,0)" stroke="none" font-family="Avenir, Helvetica, Arial, sans-serif" font-size="32px" font-style="normal" font-weight="bold" text-decoration="normal" x="400" y="1651.0000050067902" text-anchor="middle" dominant-baseline="text-after-edge" fill-opacity="1">azurerm_nat_gateway_public_ip_prefix_association</text><path fill="rgb(255,255,255)" stroke="rgb(0,0,0)" paint-order="fill stroke markers" d=" M 1198.2000007152558 2748.6000078678135 L 1520.2000007152558 2748.6000078678135 L 1520.2000007152558 2748.6000078678135 A 8 8 0 0 1 1528.2000007152558 2756.6000078678135 L 1528.2000007152558 3186.600009298325 L 1528.2000007152558 3186.600009298325 A 8 8 0 0 1 1520.2000007152558 3194.600009298325 L 876.2000007152558 3194.600009298325 L 876.2000007152558 3194.600009298325 A 8 8 0 0 1 868.2000007152558 3186.600009298325 L 868.2000007152558 2756.6000078678135 L 868.2000007152558 2756.6000078678135 A 8 8 0 0 1 876.2000007152558 2748.6000078678135 L 1198.2000007152558 2748.6000078678135 Z" fill-opacity="1" stroke-opacity="1" stroke-miterlimit="10" stroke-width="5"/><rect fill="rgb(255,255,255)" stroke="none" x="1036.7000007152558" y="2699.6000078678135" width="323" height="96" fill-opacity="1"/><text fill="rgb(0,0,0)" stroke="none" font-family="Avenir, Helvetica, Arial, sans-serif" font-size="32px" font-style="normal" font-weight="bold" text-decoration="normal" x="1198.2000007152558" y="2763.6000078678135" text-anchor="middle" dominant-baseline="text-after-edge" fill-opacity="1">azurerm_subnet</text><path fill="rgb(255,255,255)" stroke="rgb(0,0,0)" paint-order="fill stroke markers" d=" M 1996.4000014305116 2292.4000064373017 L 2318.4000014305116 2292.4000064373017 L 2318.4000014305116 2292.4000064373017 A 8 8 0 0 1 2326.4000014305116 2300.4000064373017 L 2326.4000014305116 2602.4000071525575 L 2326.4000014305116 2602.4000071525575 A 8 8 0 0 1 2318.4000014305116 2610.4000071525575 L 1674.4000014305116 2610.4000071525575 L 1674.4000014305116 2610.4000071525575 A 8 8 0 0 1 1666.4000014305116 2602.4000071525575 L 1666.4000014305116 2300.4000064373017 L 1666.4000014305116 2300.4000064373017 A 8 8 0 0 1 1674.4000014305116 2292.4000064373017 L 1996.4000014305116 2292.4000064373017 Z" fill-opacity="1" stroke-opacity="1" stroke-miterlimit="10" stroke-width="5"/><rect fill="rgb(255,255,255)" stroke="none" x="1762.9000014305116" y="2243.4000064373017" width="467" height="96" fill-opacity="1"/><text fill="rgb(0,0,0)" stroke="none" font-family="Avenir, Helvetica, Arial, sans-serif" font-size="32px" font-style="normal" font-weight="bold" text-decoration="normal" x="1996.4000014305116" y="2307.4000064373017" text-anchor="middle" dominant-baseline="text-after-edge" fill-opacity="1">azurerm_virtual_network</text><path fill="rgb(255,255,255)" stroke="rgb(0,0,0)" paint-order="fill stroke markers" d=" M 1198.2000007152558 1636.0000050067902 L 1520.2000007152558 1636.0000050067902 L 1520.2000007152558 1636.0000050067902 A 8 8 0 0 1 1528.2000007152558 1644.0000050067902 L 1528.2000007152558 1818.0000050067902 L 1528.2000007152558 1818.0000050067902 A 8 8 0 0 1 1520.2000007152558 1826.0000050067902 L 876.2000007152558 1826.0000050067902 L 876.2000007152558 1826.0000050067902 A 8 8 0 0 1 868.2000007152558 1818.0000050067902 L 868.2000007152558 1644.0000050067902 L 868.2000007152558 1644.0000050067902 A 8 8 0 0 1 876.2000007152558 1636.0000050067902 L 1198.2000007152558 1636.0000050067902 Z" fill-opacity="1" stroke-opacity="1" stroke-miterlimit="10" stroke-width="5"/><rect fill="rgb(255,255,255)" stroke="none" x="841.7000007152558" y="1587.0000050067902" width="713" height="96" fill-opacity="1"/><text fill="rgb(0,0,0)" stroke="none" font-family="Avenir, Helvetica, Arial, sans-serif" font-size="32px" font-style="normal" font-weight="bold" text-decoration="normal" x="1198.2000007152558" y="1651.0000050067902" text-anchor="middle" dominant-baseline="text-after-edge" fill-opacity="1">azurerm_subnet_route_table_association</text><path fill="rgb(255,255,255)" stroke="rgb(0,0,0)" paint-order="fill stroke markers" d=" M 1996.4000014305116 1636.0000050067902 L 2318.4000014305116 1636.0000050067902 L 2318.4000014305116 1636.0000050067902 A 8 8 0 0 1 2326.4000014305116 1644.0000050067902 L 2326.4000014305116 1818.0000050067902 L 2326.4000014305116 1818.0000050067902 A 8 8 0 0 1 2318.4000014305116 1826.0000050067902 L 1674.4000014305116 1826.0000050067902 L 1674.4000014305116 1826.0000050067902 A 8 8 0 0 1 1666.4000014305116 1818.0000050067902 L 1666.4000014305116 1644.0000050067902 L 1666.4000014305116 1644.0000050067902 A 8 8 0 0 1 1674.4000014305116 1636.0000050067902 L 1996.4000014305116 1636.0000050067902 Z" fill-opacity="1" stroke-opacity="1" stroke-miterlimit="10" stroke-width="5"/><rect fill="rgb(255,255,255)" stroke="none" x="1819.9000014305116" y="1587.0000050067902" width="353" height="96" fill-opacity="1"/><text fill="rgb(0,0,0)" stroke="none" font-family="Avenir, Helvetica, Arial, sans-serif" font-size="32px" font-style="normal" font-weight="bold" text-decoration="normal" x="1996.4000014305116" y="1651.0000050067902" text-anchor="middle" dominant-baseline="text-after-edge" fill-opacity="1">azurerm_public_ip</text><path fill="rgb(255,255,255)" stroke="rgb(0,0,0)" paint-order="fill stroke markers" d=" M 400 2748.6000078678135 L 722 2748.6000078678135 L 722 2748.6000078678135 A 8 8 0 0 1 730 2756.6000078678135 L 730 3058.600008583069 L 730 3058.600008583069 A 8 8 0 0 1 722 3066.600008583069 L 78 3066.600008583069 L 78 3066.600008583069 A 8 8 0 0 1 70 3058.600008583069 L 70 2756.6000078678135 L 70 2756.6000078678135 A 8 8 0 0 1 78 2748.6000078678135 L 400 2748.6000078678135 Z" fill-opacity="1" stroke-opacity="1" stroke-miterlimit="10" stroke-width="5"/><rect fill="rgb(255,255,255)" stroke="none" x="99" y="2699.6000078678135" width="602" height="96" fill-opacity="1"/><text fill="rgb(0,0,0)" stroke="none" font-family="Avenir, Helvetica, Arial, sans-serif" font-size="32px" font-style="normal" font-weight="bold" text-decoration="normal" x="400" y="2763.6000078678135" text-anchor="middle" dominant-baseline="text-after-edge" fill-opacity="1">azurerm_virtual_network_peering</text><path fill="rgb(255,255,255)" stroke="rgb(0,0,0)" paint-order="fill stroke markers" d=" M 400 1964.2000057220457 L 722 1964.2000057220457 L 722 1964.2000057220457 A 8 8 0 0 1 730 1972.2000057220457 L 730 2146.2000057220457 L 730 2146.2000057220457 A 8 8 0 0 1 722 2154.2000057220457 L 78 2154.2000057220457 L 78 2154.2000057220457 A 8 8 0 0 1 70 2146.2000057220457 L 70 1972.2000057220457 L 70 1972.2000057220457 A 8 8 0 0 1 78 1964.2000057220457 L 400 1964.2000057220457 Z" fill-opacity="1" stroke-opacity="1" stroke-miterlimit="10" stroke-width="5"/><rect fill="rgb(255,255,255)" stroke="none" x="170.5" y="1915.2000057220457" width="459" height="96" fill-opacity="1"/><text fill="rgb(0,0,0)" stroke="none" font-family="Avenir, Helvetica, Arial, sans-serif" font-size="32px" font-style="normal" font-weight="bold" text-decoration="normal" x="400" y="1979.2000057220457" text-anchor="middle" dominant-baseline="text-after-edge" fill-opacity="1">azurerm_public_ip_prefix</text><path fill="rgb(255,255,255)" stroke="rgb(0,0,0)" paint-order="fill stroke markers" d=" M 1198.2000007152558 1964.2000057220457 L 1520.2000007152558 1964.2000057220457 L 1520.2000007152558 1964.2000057220457 A 8 8 0 0 1 1528.2000007152558 1972.2000057220457 L 1528.2000007152558 2146.2000057220457 L 1528.2000007152558 2146.2000057220457 A 8 8 0 0 1 1520.2000007152558 2154.2000057220457 L 876.2000007152558 2154.2000057220457 L 876.2000007152558 2154.2000057220457 A 8 8 0 0 1 868.2000007152558 2146.2000057220457 L 868.2000007152558 1972.2000057220457 L 868.2000007152558 1972.2000057220457 A 8 8 0 0 1 876.2000007152558 1964.2000057220457 L 1198.2000007152558 1964.2000057220457 Z" fill-opacity="1" stroke-opacity="1" stroke-miterlimit="10" stroke-width="5"/><rect fill="rgb(255,255,255)" stroke="none" x="991.2000007152558" y="1915.2000057220457" width="414" height="96" fill-opacity="1"/><text fill="rgb(0,0,0)" stroke="none" font-family="Avenir, Helvetica, Arial, sans-serif" font-size="32px" font-style="normal" font-weight="bold" text-decoration="normal" x="1198.2000007152558" y="1979.2000057220457" text-anchor="middle" dominant-baseline="text-after-edge" fill-opacity="1">azurerm_nat_gateway</text><path fill="rgb(255,255,255)" stroke="rgb(0,0,0)" paint-order="fill stroke markers" d=" M 1996.4000014305116 1964.2000057220457 L 2318.4000014305116 1964.2000057220457 L 2318.4000014305116 1964.2000057220457 A 8 8 0 0 1 2326.4000014305116 1972.2000057220457 L 2326.4000014305116 2146.2000057220457 L 2326.4000014305116 2146.2000057220457 A 8 8 0 0 1 2318.4000014305116 2154.2000057220457 L 1674.4000014305116 2154.2000057220457 L 1674.4000014305116 2154.2000057220457 A 8 8 0 0 1 1666.4000014305116 2146.2000057220457 L 1666.4000014305116 1972.2000057220457 L 1666.4000014305116 1972.2000057220457 A 8 8 0 0 1 1674.4000014305116 1964.2000057220457 L 1996.4000014305116 1964.2000057220457 Z" fill-opacity="1" stroke-opacity="1" stroke-miterlimit="10" stroke-width="5"/><rect fill="rgb(255,255,255)" stroke="none" x="1615.4000014305116" y="1915.2000057220457" width="762" height="96" fill-opacity="1"/><text fill="rgb(0,0,0)" stroke="none" font-family="Avenir, Helvetica, Arial, sans-serif" font-size="32px" font-style="normal" font-weight="bold" text-decoration="normal" x="1996.4000014305116" y="1979.2000057220457" text-anchor="middle" dominant-baseline="text-after-edge" fill-opacity="1">azurerm_nat_gateway_public_ip_association</text><path fill="rgb(255,255,255)" stroke="rgb(0,0,0)" paint-order="fill stroke markers" d=" M 400 2292.4000064373017 L 722 2292.4000064373017 L 722 2292.4000064373017 A 8 8 0 0 1 730 2300.4000064373017 L 730 2474.4000064373017 L 730 2474.4000064373017 A 8 8 0 0 1 722 2482.4000064373017 L 78 2482.4000064373017 L 78 2482.4000064373017 A 8 8 0 0 1 70 2474.4000064373017 L 70 2300.4000064373017 L 70 2300.4000064373017 A 8 8 0 0 1 78 2292.4000064373017 L 400 2292.4000064373017 Z" fill-opacity="1" stroke-opacity="1" stroke-miterlimit="10" stroke-width="5"/><rect fill="rgb(255,255,255)" stroke="none" x="34" y="2243.4000064373017" width="732" height="96" fill-opacity="1"/><text fill="rgb(0,0,0)" stroke="none" font-family="Avenir, Helvetica, Arial, sans-serif" font-size="32px" font-style="normal" font-weight="bold" text-decoration="normal" x="400" y="2307.4000064373017" text-anchor="middle" dominant-baseline="text-after-edge" fill-opacity="1">azurerm_subnet_nat_gateway_association</text><path fill="rgb(255,255,255)" stroke="rgb(0,0,0)" paint-order="fill stroke markers" d=" M 1198.2000007152558 2292.4000064373017 L 1520.2000007152558 2292.4000064373017 L 1520.2000007152558 2292.4000064373017 A 8 8 0 0 1 1528.2000007152558 2300.4000064373017 L 1528.2000007152558 2474.4000064373017 L 1528.2000007152558 2474.4000064373017 A 8 8 0 0 1 1520.2000007152558 2482.4000064373017 L 876.2000007152558 2482.4000064373017 L 876.2000007152558 2482.4000064373017 A 8 8 0 0 1 868.2000007152558 2474.4000064373017 L 868.2000007152558 2300.4000064373017 L 868.2000007152558 2300.4000064373017 A 8 8 0 0 1 876.2000007152558 2292.4000064373017 L 1198.2000007152558 2292.4000064373017 Z" fill-opacity="1" stroke-opacity="1" stroke-miterlimit="10" stroke-width="5"/><rect fill="rgb(255,255,255)" stroke="none" x="1000.7000007152558" y="2243.4000064373017" width="395" height="96" fill-opacity="1"/><text fill="rgb(0,0,0)" stroke="none" font-family="Avenir, Helvetica, Arial, sans-serif" font-size="32px" font-style="normal" font-weight="bold" text-decoration="normal" x="1198.2000007152558" y="2307.4000064373017" text-anchor="middle" dominant-baseline="text-after-edge" fill-opacity="1">azurerm_route_table</text><path fill="none" stroke="url(#xLGMqTSBaZGF)" paint-order="fill stroke markers" d=" M 1303.0000007152557 873.500002861023 L 1303.0000007152557 1610.9500046491623 L 1996.4000014305116 1610.9500046491623 L 1996.4000014305116 2348.4000064373017" stroke-linejoin="round" stroke-miterlimit="10" stroke-width="10"/><path fill="none" stroke="url(#wFJuwWvRWvBb)" paint-order="fill stroke markers" d=" M 1303.0000007152557 607.5000014305115 L 1303.0000007152557 1706.0500046491625 L 1198.2000007152558 1706.0500046491625 L 1198.2000007152558 2804.6000078678135" stroke-linejoin="round" stroke-miterlimit="10" stroke-width="10"/><path fill="none" stroke="url(#gyhhqHqeqptE)" paint-order="fill stroke markers" d=" M 1906.0000014305115 607.5000014305115 L 1906.0000014305115 1541.9500042915345 L 1996.4000014305116 1541.9500042915345 L 1996.4000014305116 2476.4000071525575" stroke-linejoin="round" stroke-miterlimit="10" stroke-width="10"/><path fill="none" stroke="url(#QWzQbQtWBJBZ)" paint-order="fill stroke markers" d=" M 1303.0000007152557 740.5000021457672 L 1303.0000007152557 1900.550005722046 L 1198.2000007152558 1900.550005722046 L 1198.2000007152558 3060.600009298325" stroke-linejoin="round" stroke-miterlimit="10" stroke-width="10"/><path fill="none" stroke="url(#WgRomvDtBBFf)" paint-order="fill stroke markers" d=" M 1906.0000014305115 740.5000021457672 L 1906.0000014305115 1216.2500035762787 L 1996.4000014305116 1216.2500035762787 L 1996.4000014305116 1692.0000050067902" stroke-linejoin="round" stroke-miterlimit="10" stroke-width="10"/><path fill="none" stroke="url(#KgHgrCpkQdaW)" paint-order="fill stroke markers" d=" M 1026.5000007152557 1098.0000042915344 L 801.5000003576279 1098.0000042915344 L 801.5000003576279 699.0000021457672 L 576.5 699.0000021457672" stroke-linejoin="round" stroke-miterlimit="10" stroke-width="10"/><path fill="none" stroke="url(#mChiMVBCcROC)" paint-order="fill stroke markers" d=" M 1906.0000014305115 873.500002861023 L 1906.0000014305115 1903.050005722046 L 1198.2000007152558 1903.050005722046 L 1198.2000007152558 2932.600008583069" stroke-linejoin="round" stroke-miterlimit="10" stroke-width="10"/><path fill="none" stroke="url(#mzIbNTGtaRwa)" paint-order="fill stroke markers" d=" M 1303.0000007152557 1006.5000035762787 L 1303.0000007152557 1513.3500046491622 L 400 1513.3500046491622 L 400 2020.2000057220457" stroke-linejoin="round" stroke-miterlimit="10" stroke-width="10"/><path fill="none" stroke="url(#orMMsoSEKiip)" paint-order="fill stroke markers" d=" M 1906.0000014305115 1006.5000035762787 L 1906.0000014305115 1905.550005722046 L 1198.2000007152558 1905.550005722046 L 1198.2000007152558 2804.6000078678135" stroke-linejoin="round" stroke-miterlimit="10" stroke-width="10"/><path fill="none" stroke="url(#pyZLizHfXetx)" paint-order="fill stroke markers" d=" M 1906.0000014305115 1139.5000042915344 L 1906.0000014305115 1743.950005364418 L 1996.4000014305116 1743.950005364418 L 1996.4000014305116 2348.4000064373017" stroke-linejoin="round" stroke-miterlimit="10" stroke-width="10"/><path fill="none" stroke="url(#nLHXcVICDebd)" paint-order="fill stroke markers" d=" M 1629.5000014305115 433.00000071525574 L 1103.0000007152557 433.00000071525574 L 1103.0000007152557 699.0000021457672 L 576.5 699.0000021457672" stroke-linejoin="round" stroke-miterlimit="10" stroke-width="10"/><path fill="none" stroke="url(#gHoLXRcWIXms)" paint-order="fill stroke markers" d=" M 1303.0000007152557 341.5 L 1303.0000007152557 1637.0500042915346 L 1198.2000007152558 1637.0500042915346 L 1198.2000007152558 2932.600008583069" stroke-linejoin="round" stroke-miterlimit="10" stroke-width="10"/><path fill="none" stroke="url(#dkqPSZAmpCsU)" paint-order="fill stroke markers" d=" M 1906.0000014305115 341.5 L 1906.0000014305115 1701.0500046491625 L 1198.2000007152558 1701.0500046491625 L 1198.2000007152558 3060.600009298325" stroke-linejoin="round" stroke-miterlimit="10" stroke-width="10"/><path fill="none" stroke="url(#zeJfCHwvqRSd)" paint-order="fill stroke markers" d=" M 1303.0000007152557 474.50000071525574 L 1303.0000007152557 1475.4500039339066 L 1996.4000014305116 1475.4500039339066 L 1996.4000014305116 2476.4000071525575" stroke-linejoin="round" stroke-miterlimit="10" stroke-width="10"/><path fill="none" stroke="url(#UcMTQCcGcnpy)" paint-order="fill stroke markers" d=" M 1198.2000007152558 2932.600008583069 L 1198.2000007152558 2679.5000075101852 L 1996.4000014305116 2679.5000075101852 L 1996.4000014305116 2426.4000064373017" stroke-linejoin="round" stroke-miterlimit="10" stroke-width="10"/><path fill="none" stroke="url(#QCFdpcVmWeed)" paint-order="fill stroke markers" d=" M 1198.2000007152558 2932.600008583069 L 1198.2000007152558 1836.5500053644182 L 300 1836.5500053644182 L 300 740.5000021457672" stroke-linejoin="round" stroke-miterlimit="10" stroke-width="10"/><path fill="none" stroke="url(#ZlheMCRmNHAN)" paint-order="fill stroke markers" d=" M 1198.2000007152558 2932.600008583069 L 1198.2000007152558 1703.5500046491625 L 300 1703.5500046491625 L 300 474.50000071525574" stroke-linejoin="round" stroke-miterlimit="10" stroke-width="10"/><path fill="none" stroke="url(#fknDgfJHqGXE)" paint-order="fill stroke markers" d=" M 400 2020.2000057220457 L 400 1313.8500035762786 L 300 1313.8500035762786 L 300 607.5000014305115" stroke-linejoin="round" stroke-miterlimit="10" stroke-width="10"/><path fill="none" stroke="url(#bBvxkFBnQbGE)" paint-order="fill stroke markers" d=" M 400 2020.2000057220457 L 400 1579.85000500679 L 300 1579.85000500679 L 300 1139.5000042915344" stroke-linejoin="round" stroke-miterlimit="10" stroke-width="10"/><path fill="none" stroke="url(#NfFQnMaKGVMP)" paint-order="fill stroke markers" d=" M 400 2020.2000057220457 L 400 1247.3500032186507 L 300 1247.3500032186507 L 300 474.50000071525574" stroke-linejoin="round" stroke-miterlimit="10" stroke-width="10"/><path fill="none" stroke="url(#hMplhOFiARKl)" paint-order="fill stroke markers" d=" M 1198.2000007152558 3060.600009298325 L 1198.2000007152558 1900.550005722046 L 300 1900.550005722046 L 300 740.5000021457672" stroke-linejoin="round" stroke-miterlimit="10" stroke-width="10"/><path fill="none" stroke="url(#QeuyBatNMKZg)" paint-order="fill stroke markers" d=" M 1198.2000007152558 3060.600009298325 L 1198.2000007152558 1767.5500050067903 L 300 1767.5500050067903 L 300 474.50000071525574" stroke-linejoin="round" stroke-miterlimit="10" stroke-width="10"/><path fill="none" stroke="url(#llRoyWBNyhXT)" paint-order="fill stroke markers" d=" M 1198.2000007152558 3060.600009298325 L 1198.2000007152558 2743.500007867813 L 1996.4000014305116 2743.500007867813 L 1996.4000014305116 2426.4000064373017" stroke-linejoin="round" stroke-miterlimit="10" stroke-width="10"/><path fill="none" stroke="url(#UqyUMeUgpIVS)" paint-order="fill stroke markers" d=" M 1198.2000007152558 2020.2000057220457 L 1198.2000007152558 1313.8500035762786 L 300 1313.8500035762786 L 300 607.5000014305115" stroke-linejoin="round" stroke-miterlimit="10" stroke-width="10"/><path fill="none" stroke="url(#GeEcoDUitCXd)" paint-order="fill stroke markers" d=" M 1198.2000007152558 2020.2000057220457 L 1198.2000007152558 1579.85000500679 L 300 1579.85000500679 L 300 1139.5000042915344" stroke-linejoin="round" stroke-miterlimit="10" stroke-width="10"/><path fill="none" stroke="url(#CwXWnconRnvP)" paint-order="fill stroke markers" d=" M 1198.2000007152558 2020.2000057220457 L 1198.2000007152558 1247.3500032186507 L 300 1247.3500032186507 L 300 474.50000071525574" stroke-linejoin="round" stroke-miterlimit="10" stroke-width="10"/><path fill="none" stroke="url(#mkINrGGCbWMX)" paint-order="fill stroke markers" d=" M 1722.4000014305116 2059.2000057220457 L 1597.3000010728838 2059.2000057220457 L 1597.3000010728838 2059.2000057220457 L 1472.2000007152558 2059.2000057220457" stroke-linejoin="round" stroke-miterlimit="10" stroke-width="10"/><path fill="none" stroke="url(#dfUWwcvInzZl)" paint-order="fill stroke markers" d=" M 1996.4000014305116 2020.2000057220457 L 1996.4000014305116 1895.100005364418 L 1996.4000014305116 1895.100005364418 L 1996.4000014305116 1770.0000050067902" stroke-linejoin="round" stroke-miterlimit="10" stroke-width="10"/><path fill="none" stroke="url(#JZQUoDkHqhQV)" paint-order="fill stroke markers" d=" M 400 2348.4000064373017 L 400 2223.300006079674 L 1198.2000007152558 2223.300006079674 L 1198.2000007152558 2098.2000057220457" stroke-linejoin="round" stroke-miterlimit="10" stroke-width="10"/><path fill="none" stroke="url(#PRithOBhbZqO)" paint-order="fill stroke markers" d=" M 400 2426.4000064373017 L 400 2615.5000071525574 L 1198.2000007152558 2615.5000071525574 L 1198.2000007152558 2804.6000078678135" stroke-linejoin="round" stroke-miterlimit="10" stroke-width="10"/><path fill="none" stroke="url(#iNJuDeqGruQc)" paint-order="fill stroke markers" d=" M 1198.2000007152558 2348.4000064373017 L 1198.2000007152558 1477.9500039339066 L 300 1477.9500039339066 L 300 607.5000014305115" stroke-linejoin="round" stroke-miterlimit="10" stroke-width="10"/><path fill="none" stroke="url(#ELMWsRRTkhoJ)" paint-order="fill stroke markers" d=" M 1198.2000007152558 2348.4000064373017 L 1198.2000007152558 1743.950005364418 L 300 1743.950005364418 L 300 1139.5000042915344" stroke-linejoin="round" stroke-miterlimit="10" stroke-width="10"/><path fill="none" stroke="url(#heitdmqHGtZp)" paint-order="fill stroke markers" d=" M 1198.2000007152558 2348.4000064373017 L 1198.2000007152558 1411.4500035762787 L 300 1411.4500035762787 L 300 474.50000071525574" stroke-linejoin="round" stroke-miterlimit="10" stroke-width="10"/><path fill="none" stroke="url(#xPAWZlOOvsvi)" paint-order="fill stroke markers" d=" M 1198.2000007152558 2348.4000064373017 L 1198.2000007152558 2059.2000057220457 L 1996.4000014305116 2059.2000057220457 L 1996.4000014305116 1770.0000050067902" stroke-linejoin="round" stroke-miterlimit="10" stroke-width="10"/><path fill="none" stroke="url(#IwbudnPicIrp)" paint-order="fill stroke markers" d=" M 1198.2000007152558 2348.4000064373017 L 1198.2000007152558 1344.9500032186509 L 300 1344.9500032186509 L 300 341.5" stroke-linejoin="round" stroke-miterlimit="10" stroke-width="10"/><path fill="none" stroke="url(#uBQdMebgmGRF)" paint-order="fill stroke markers" d=" M 674 2971.600008583069 L 1198.2000007152558 2971.600008583069 L 1198.2000007152558 2515.4000071525575 L 1722.4000014305116 2515.4000071525575" stroke-linejoin="round" stroke-miterlimit="10" stroke-width="10"/><path fill="none" stroke="url(#DEGGZncBQtfL)" paint-order="fill stroke markers" d=" M 400 2932.600008583069 L 400 1703.5500046491625 L 300 1703.5500046491625 L 300 474.50000071525574" stroke-linejoin="round" stroke-miterlimit="10" stroke-width="10"/><path fill="none" stroke="url(#cIgytkQWRPdk)" paint-order="fill stroke markers" d=" M 674 2971.600008583069 L 1198.2000007152558 2971.600008583069 L 1198.2000007152558 2387.4000064373017 L 1722.4000014305116 2387.4000064373017" stroke-linejoin="round" stroke-miterlimit="10" stroke-width="10"/><path fill="none" stroke="url(#CcvKTpoakNDy)" paint-order="fill stroke markers" d=" M 1996.4000014305116 2476.4000071525575 L 1996.4000014305116 1475.4500039339066 L 300 1475.4500039339066 L 300 474.50000071525574" stroke-linejoin="round" stroke-miterlimit="10" stroke-width="10"/><path fill="none" stroke="url(#cHQVihSxwRwQ)" paint-order="fill stroke markers" d=" M 1996.4000014305116 2476.4000071525575 L 1996.4000014305116 1408.9500035762787 L 300 1408.9500035762787 L 300 341.5" stroke-linejoin="round" stroke-miterlimit="10" stroke-width="10"/><path fill="none" stroke="url(#CIOSoCACgHsR)" paint-order="fill stroke markers" d=" M 1996.4000014305116 2476.4000071525575 L 1996.4000014305116 1674.9500050067902 L 300 1674.9500050067902 L 300 873.500002861023" stroke-linejoin="round" stroke-miterlimit="10" stroke-width="10"/><path fill="none" stroke="url(#FEkughCAlLrT)" paint-order="fill stroke markers" d=" M 1996.4000014305116 2476.4000071525575 L 1996.4000014305116 1541.9500042915345 L 300 1541.9500042915345 L 300 607.5000014305115" stroke-linejoin="round" stroke-miterlimit="10" stroke-width="10"/><path fill="none" stroke="url(#wINHZfbeUTrk)" paint-order="fill stroke markers" d=" M 1996.4000014305116 2476.4000071525575 L 1996.4000014305116 1807.950005722046 L 300 1807.950005722046 L 300 1139.5000042915344" stroke-linejoin="round" stroke-miterlimit="10" stroke-width="10"/><path fill="none" stroke="url(#EVmgWdRnLlHf)" paint-order="fill stroke markers" d=" M 674 1731.0000050067902 L 799.1000003576279 1731.0000050067902 L 799.1000003576279 2059.2000057220457 L 924.2000007152558 2059.2000057220457" stroke-linejoin="round" stroke-miterlimit="10" stroke-width="10"/><path fill="none" stroke="url(#mTihXdpIkqwv)" paint-order="fill stroke markers" d=" M 400 1770.0000050067902 L 400 1895.100005364418 L 400 1895.100005364418 L 400 2020.2000057220457" stroke-linejoin="round" stroke-miterlimit="10" stroke-width="10"/><path fill="none" stroke="url(#JoguFtSwEeaf)" paint-order="fill stroke markers" d=" M 1198.2000007152558 2804.6000078678135 L 1198.2000007152558 1839.0500053644182 L 300 1839.0500053644182 L 300 873.500002861023" stroke-linejoin="round" stroke-miterlimit="10" stroke-width="10"/><path fill="none" stroke="url(#qDTaQZtxkOia)" paint-order="fill stroke markers" d=" M 1198.2000007152558 2804.6000078678135 L 1198.2000007152558 1972.050006079674 L 300 1972.050006079674 L 300 1139.5000042915344" stroke-linejoin="round" stroke-miterlimit="10" stroke-width="10"/><path fill="none" stroke="url(#NZkzlbHlZxeA)" paint-order="fill stroke markers" d=" M 1198.2000007152558 2804.6000078678135 L 1198.2000007152558 1639.5500042915346 L 300 1639.5500042915346 L 300 474.50000071525574" stroke-linejoin="round" stroke-miterlimit="10" stroke-width="10"/><path fill="none" stroke="url(#AdRaJTbTfZLS)" paint-order="fill stroke markers" d=" M 1198.2000007152558 2804.6000078678135 L 1198.2000007152558 2679.5000075101852 L 1996.4000014305116 2679.5000075101852 L 1996.4000014305116 2554.4000071525575" stroke-linejoin="round" stroke-miterlimit="10" stroke-width="10"/><path fill="none" stroke="url(#aXDvcypUmkZJ)" paint-order="fill stroke markers" d=" M 1996.4000014305116 2348.4000064373017 L 1996.4000014305116 1344.9500032186509 L 300 1344.9500032186509 L 300 341.5" stroke-linejoin="round" stroke-miterlimit="10" stroke-width="10"/><path fill="none" stroke="url(#ARsBEoxqZlEi)" paint-order="fill stroke markers" d=" M 1996.4000014305116 2348.4000064373017 L 1996.4000014305116 1544.4500042915345 L 300 1544.4500042915345 L 300 740.5000021457672" stroke-linejoin="round" stroke-miterlimit="10" stroke-width="10"/><path fill="none" stroke="url(#EQcFsgMXkRpl)" paint-order="fill stroke markers" d=" M 1996.4000014305116 2348.4000064373017 L 1996.4000014305116 1477.9500039339066 L 300 1477.9500039339066 L 300 607.5000014305115" stroke-linejoin="round" stroke-miterlimit="10" stroke-width="10"/><path fill="none" stroke="url(#wiQQGyxSUEfL)" paint-order="fill stroke markers" d=" M 1996.4000014305116 2348.4000064373017 L 1996.4000014305116 1743.950005364418 L 300 1743.950005364418 L 300 1139.5000042915344" stroke-linejoin="round" stroke-miterlimit="10" stroke-width="10"/><path fill="none" stroke="url(#SBokXRIElBOO)" paint-order="fill stroke markers" d=" M 1996.4000014305116 2348.4000064373017 L 1996.4000014305116 1411.4500035762787 L 300 1411.4500035762787 L 300 474.50000071525574" stroke-linejoin="round" stroke-miterlimit="10" stroke-width="10"/><path fill="none" stroke="url(#rTLkeoFNnMRI)" paint-order="fill stroke markers" d=" M 1198.2000007152558 1770.0000050067902 L 1198.2000007152558 2059.2000057220457 L 1198.2000007152558 2059.2000057220457 L 1198.2000007152558 2348.4000064373017" stroke-linejoin="round" stroke-miterlimit="10" stroke-width="10"/><path fill="none" stroke="url(#hVtzakyNEssc)" paint-order="fill stroke markers" d=" M 1198.2000007152558 1770.0000050067902 L 1198.2000007152558 2415.3000071525576 L 1198.2000007152558 2415.3000071525576 L 1198.2000007152558 3060.600009298325" stroke-linejoin="round" stroke-miterlimit="10" stroke-width="10"/><path fill="none" stroke="url(#aHVybyKITqEV)" paint-order="fill stroke markers" d=" M 1722.4000014305116 1731.0000050067902 L 1149.4500007152558 1731.0000050067902 L 1149.4500007152558 566.0000014305115 L 576.5 566.0000014305115" stroke-linejoin="round" stroke-miterlimit="10" stroke-width="10"/><path fill="none" stroke="url(#zqeHiqbKMuTr)" paint-order="fill stroke markers" d=" M 1722.4000014305116 1731.0000050067902 L 1149.4500007152558 1731.0000050067902 L 1149.4500007152558 1098.0000042915344 L 576.5 1098.0000042915344" stroke-linejoin="round" stroke-miterlimit="10" stroke-width="10"/><path fill="none" stroke="url(#vqeEGLFBZPIG)" paint-order="fill stroke markers" d=" M 1996.4000014305116 1692.0000050067902 L 1996.4000014305116 1083.250002861023 L 300 1083.250002861023 L 300 474.50000071525574" stroke-linejoin="round" stroke-miterlimit="10" stroke-width="10"/><path fill="none" stroke="url(#HnMePgCXkuzb)" paint-order="fill stroke markers" d=" M 674 2843.6000078678135 L 1198.2000007152558 2843.6000078678135 L 1198.2000007152558 2387.4000064373017 L 1722.4000014305116 2387.4000064373017" stroke-linejoin="round" stroke-miterlimit="10" stroke-width="10"/><path fill="none" stroke="url(#sbhWnGgfLGFN)" paint-order="fill stroke markers" d=" M 400 2804.6000078678135 L 400 1639.5500042915346 L 300 1639.5500042915346 L 300 474.50000071525574" stroke-linejoin="round" stroke-miterlimit="10" stroke-width="10"/><path fill="none" stroke="url(#VVPCgwXbDIVv)" paint-order="fill stroke markers" d=" M 674 2843.6000078678135 L 1198.2000007152558 2843.6000078678135 L 1198.2000007152558 2515.4000071525575 L 1722.4000014305116 2515.4000071525575" stroke-linejoin="round" stroke-miterlimit="10" stroke-width="10"/><path fill="rgb(255,247,224)" stroke="rgb(255,193,7)" paint-order="fill stroke markers" d=" M 1303.0000007152557 261 L 1569.0000007152557 261 L 1569.0000007152557 261 A 8 8 0 0 1 1577.0000007152557 269 L 1577.0000007152557 331 L 1577.0000007152557 331 A 8 8 0 0 1 1569.0000007152557 339 L 1037.0000007152557 339 L 1037.0000007152557 339 A 8 8 0 0 1 1029.0000007152557 331 L 1029.0000007152557 269 L 1029.0000007152557 269 A 8 8 0 0 1 1037.0000007152557 261 L 1303.0000007152557 261 Z" fill-opacity="1" stroke-opacity="1" stroke-miterlimit="10" stroke-width="5"/><text fill="rgb(0,0,0)" stroke="none" font-family="Avenir, Helvetica, Arial, sans-serif" font-size="32px" font-style="normal" font-weight="bold" text-decoration="normal" x="1303.0000007152557" y="316" text-anchor="middle" dominant-baseline="text-after-edge" fill-opacity="1">ingress_subnet_address_prefixes</text><path fill="rgb(255,247,224)" stroke="rgb(255,193,7)" paint-order="fill stroke markers" d=" M 1906.0000014305115 261 L 2172.0000014305115 261 L 2172.0000014305115 261 A 8 8 0 0 1 2180.0000014305115 269 L 2180.0000014305115 331 L 2180.0000014305115 331 A 8 8 0 0 1 2172.0000014305115 339 L 1640.0000014305115 339 L 1640.0000014305115 339 A 8 8 0 0 1 1632.0000014305115 331 L 1632.0000014305115 269 L 1632.0000014305115 269 A 8 8 0 0 1 1640.0000014305115 261 L 1906.0000014305115 261 Z" fill-opacity="1" stroke-opacity="1" stroke-miterlimit="10" stroke-width="5"/><text fill="rgb(0,0,0)" stroke="none" font-family="Avenir, Helvetica, Arial, sans-serif" font-size="32px" font-style="normal" font-weight="bold" text-decoration="normal" x="1906.0000014305115" y="316" text-anchor="middle" dominant-baseline="text-after-edge" fill-opacity="1">aks_subnet_id</text><path fill="rgb(255,247,224)" stroke="rgb(255,193,7)" paint-order="fill stroke markers" d=" M 1303.0000007152557 394.00000071525574 L 1569.0000007152557 394.00000071525574 L 1569.0000007152557 394.00000071525574 A 8 8 0 0 1 1577.0000007152557 402.00000071525574 L 1577.0000007152557 464.00000071525574 L 1577.0000007152557 464.00000071525574 A 8 8 0 0 1 1569.0000007152557 472.00000071525574 L 1037.0000007152557 472.00000071525574 L 1037.0000007152557 472.00000071525574 A 8 8 0 0 1 1029.0000007152557 464.00000071525574 L 1029.0000007152557 402.00000071525574 L 1029.0000007152557 402.00000071525574 A 8 8 0 0 1 1037.0000007152557 394.00000071525574 L 1303.0000007152557 394.00000071525574 Z" fill-opacity="1" stroke-opacity="1" stroke-miterlimit="10" stroke-width="5"/><text fill="rgb(0,0,0)" stroke="none" font-family="Avenir, Helvetica, Arial, sans-serif" font-size="32px" font-style="normal" font-weight="bold" text-decoration="normal" x="1303.0000007152557" y="449.00000071525574" text-anchor="middle" dominant-baseline="text-after-edge" fill-opacity="1">hub1_natgwvnet_address_space</text><path fill="rgb(255,247,224)" stroke="rgb(255,193,7)" paint-order="fill stroke markers" d=" M 1906.0000014305115 394.00000071525574 L 2172.0000014305115 394.00000071525574 L 2172.0000014305115 394.00000071525574 A 8 8 0 0 1 2180.0000014305115 402.00000071525574 L 2180.0000014305115 464.00000071525574 L 2180.0000014305115 464.00000071525574 A 8 8 0 0 1 2172.0000014305115 472.00000071525574 L 1640.0000014305115 472.00000071525574 L 1640.0000014305115 472.00000071525574 A 8 8 0 0 1 1632.0000014305115 464.00000071525574 L 1632.0000014305115 402.00000071525574 L 1632.0000014305115 402.00000071525574 A 8 8 0 0 1 1640.0000014305115 394.00000071525574 L 1906.0000014305115 394.00000071525574 Z" fill-opacity="1" stroke-opacity="1" stroke-miterlimit="10" stroke-width="5"/><text fill="rgb(0,0,0)" stroke="none" font-family="Avenir, Helvetica, Arial, sans-serif" font-size="32px" font-style="normal" font-weight="bold" text-decoration="normal" x="1906.0000014305115" y="449.00000071525574" text-anchor="middle" dominant-baseline="text-after-edge" fill-opacity="1">spoke1_kubevnet_vpc_cidr</text><path fill="rgb(255,247,224)" stroke="rgb(255,193,7)" paint-order="fill stroke markers" d=" M 1303.0000007152557 527.0000014305115 L 1569.0000007152557 527.0000014305115 L 1569.0000007152557 527.0000014305115 A 8 8 0 0 1 1577.0000007152557 535.0000014305115 L 1577.0000007152557 597.0000014305115 L 1577.0000007152557 597.0000014305115 A 8 8 0 0 1 1569.0000007152557 605.0000014305115 L 1037.0000007152557 605.0000014305115 L 1037.0000007152557 605.0000014305115 A 8 8 0 0 1 1029.0000007152557 597.0000014305115 L 1029.0000007152557 535.0000014305115 L 1029.0000007152557 535.0000014305115 A 8 8 0 0 1 1037.0000007152557 527.0000014305115 L 1303.0000007152557 527.0000014305115 Z" fill-opacity="1" stroke-opacity="1" stroke-miterlimit="10" stroke-width="5"/><text fill="rgb(0,0,0)" stroke="none" font-family="Avenir, Helvetica, Arial, sans-serif" font-size="32px" font-style="normal" font-weight="bold" text-decoration="normal" x="1303.0000007152557" y="582.0000014305115" text-anchor="middle" dominant-baseline="text-after-edge" fill-opacity="1">natgw_subnet_address_prefixes</text><path fill="rgb(255,247,224)" stroke="rgb(255,193,7)" paint-order="fill stroke markers" d=" M 1906.0000014305115 527.0000014305115 L 2172.0000014305115 527.0000014305115 L 2172.0000014305115 527.0000014305115 A 8 8 0 0 1 2180.0000014305115 535.0000014305115 L 2180.0000014305115 597.0000014305115 L 2180.0000014305115 597.0000014305115 A 8 8 0 0 1 2172.0000014305115 605.0000014305115 L 1640.0000014305115 605.0000014305115 L 1640.0000014305115 605.0000014305115 A 8 8 0 0 1 1632.0000014305115 597.0000014305115 L 1632.0000014305115 535.0000014305115 L 1632.0000014305115 535.0000014305115 A 8 8 0 0 1 1640.0000014305115 527.0000014305115 L 1906.0000014305115 527.0000014305115 Z" fill-opacity="1" stroke-opacity="1" stroke-miterlimit="10" stroke-width="5"/><text fill="rgb(0,0,0)" stroke="none" font-family="Avenir, Helvetica, Arial, sans-serif" font-size="32px" font-style="normal" font-weight="bold" text-decoration="normal" x="1906.0000014305115" y="582.0000014305115" text-anchor="middle" dominant-baseline="text-after-edge" fill-opacity="1">hub1_natgwvnet_network_name</text><path fill="rgb(255,247,224)" stroke="rgb(255,193,7)" paint-order="fill stroke markers" d=" M 1303.0000007152557 660.0000021457672 L 1569.0000007152557 660.0000021457672 L 1569.0000007152557 660.0000021457672 A 8 8 0 0 1 1577.0000007152557 668.0000021457672 L 1577.0000007152557 730.0000021457672 L 1577.0000007152557 730.0000021457672 A 8 8 0 0 1 1569.0000007152557 738.0000021457672 L 1037.0000007152557 738.0000021457672 L 1037.0000007152557 738.0000021457672 A 8 8 0 0 1 1029.0000007152557 730.0000021457672 L 1029.0000007152557 668.0000021457672 L 1029.0000007152557 668.0000021457672 A 8 8 0 0 1 1037.0000007152557 660.0000021457672 L 1303.0000007152557 660.0000021457672 Z" fill-opacity="1" stroke-opacity="1" stroke-miterlimit="10" stroke-width="5"/><text fill="rgb(0,0,0)" stroke="none" font-family="Avenir, Helvetica, Arial, sans-serif" font-size="32px" font-style="normal" font-weight="bold" text-decoration="normal" x="1303.0000007152557" y="715.0000021457672" text-anchor="middle" dominant-baseline="text-after-edge" fill-opacity="1">aks_subnet_address_prefixes</text><path fill="rgb(255,247,224)" stroke="rgb(255,193,7)" paint-order="fill stroke markers" d=" M 1906.0000014305115 660.0000021457672 L 2172.0000014305115 660.0000021457672 L 2172.0000014305115 660.0000021457672 A 8 8 0 0 1 2180.0000014305115 668.0000021457672 L 2180.0000014305115 730.0000021457672 L 2180.0000014305115 730.0000021457672 A 8 8 0 0 1 2172.0000014305115 738.0000021457672 L 1640.0000014305115 738.0000021457672 L 1640.0000014305115 738.0000021457672 A 8 8 0 0 1 1632.0000014305115 730.0000021457672 L 1632.0000014305115 668.0000021457672 L 1632.0000014305115 668.0000021457672 A 8 8 0 0 1 1640.0000014305115 660.0000021457672 L 1906.0000014305115 660.0000021457672 Z" fill-opacity="1" stroke-opacity="1" stroke-miterlimit="10" stroke-width="5"/><text fill="rgb(0,0,0)" stroke="none" font-family="Avenir, Helvetica, Arial, sans-serif" font-size="32px" font-style="normal" font-weight="bold" text-decoration="normal" x="1906.0000014305115" y="715.0000021457672" text-anchor="middle" dominant-baseline="text-after-edge" fill-opacity="1">natgw_public_ip_address</text><path fill="rgb(255,247,224)" stroke="rgb(255,193,7)" paint-order="fill stroke markers" d=" M 1303.0000007152557 793.000002861023 L 1569.0000007152557 793.000002861023 L 1569.0000007152557 793.000002861023 A 8 8 0 0 1 1577.0000007152557 801.000002861023 L 1577.0000007152557 863.000002861023 L 1577.0000007152557 863.000002861023 A 8 8 0 0 1 1569.0000007152557 871.000002861023 L 1037.0000007152557 871.000002861023 L 1037.0000007152557 871.000002861023 A 8 8 0 0 1 1029.0000007152557 863.000002861023 L 1029.0000007152557 801.000002861023 L 1029.0000007152557 801.000002861023 A 8 8 0 0 1 1037.0000007152557 793.000002861023 L 1303.0000007152557 793.000002861023 Z" fill-opacity="1" stroke-opacity="1" stroke-miterlimit="10" stroke-width="5"/><text fill="rgb(0,0,0)" stroke="none" font-family="Avenir, Helvetica, Arial, sans-serif" font-size="32px" font-style="normal" font-weight="bold" text-decoration="normal" x="1303.0000007152557" y="848.000002861023" text-anchor="middle" dominant-baseline="text-after-edge" fill-opacity="1">spoke1_kubevnet_address_space</text><path fill="rgb(255,247,224)" stroke="rgb(255,193,7)" paint-order="fill stroke markers" d=" M 1906.0000014305115 793.000002861023 L 2172.0000014305115 793.000002861023 L 2172.0000014305115 793.000002861023 A 8 8 0 0 1 2180.0000014305115 801.000002861023 L 2180.0000014305115 863.000002861023 L 2180.0000014305115 863.000002861023 A 8 8 0 0 1 2172.0000014305115 871.000002861023 L 1640.0000014305115 871.000002861023 L 1640.0000014305115 871.000002861023 A 8 8 0 0 1 1632.0000014305115 863.000002861023 L 1632.0000014305115 801.000002861023 L 1632.0000014305115 801.000002861023 A 8 8 0 0 1 1640.0000014305115 793.000002861023 L 1906.0000014305115 793.000002861023 Z" fill-opacity="1" stroke-opacity="1" stroke-miterlimit="10" stroke-width="5"/><text fill="rgb(0,0,0)" stroke="none" font-family="Avenir, Helvetica, Arial, sans-serif" font-size="32px" font-style="normal" font-weight="bold" text-decoration="normal" x="1906.0000014305115" y="848.000002861023" text-anchor="middle" dominant-baseline="text-after-edge" fill-opacity="1">ingress_subnet_id</text><path fill="rgb(255,247,224)" stroke="rgb(255,193,7)" paint-order="fill stroke markers" d=" M 1303.0000007152557 926.0000035762787 L 1569.0000007152557 926.0000035762787 L 1569.0000007152557 926.0000035762787 A 8 8 0 0 1 1577.0000007152557 934.0000035762787 L 1577.0000007152557 996.0000035762787 L 1577.0000007152557 996.0000035762787 A 8 8 0 0 1 1569.0000007152557 1004.0000035762787 L 1037.0000007152557 1004.0000035762787 L 1037.0000007152557 1004.0000035762787 A 8 8 0 0 1 1029.0000007152557 996.0000035762787 L 1029.0000007152557 934.0000035762787 L 1029.0000007152557 934.0000035762787 A 8 8 0 0 1 1037.0000007152557 926.0000035762787 L 1303.0000007152557 926.0000035762787 Z" fill-opacity="1" stroke-opacity="1" stroke-miterlimit="10" stroke-width="5"/><text fill="rgb(0,0,0)" stroke="none" font-family="Avenir, Helvetica, Arial, sans-serif" font-size="32px" font-style="normal" font-weight="bold" text-decoration="normal" x="1303.0000007152557" y="981.0000035762787" text-anchor="middle" dominant-baseline="text-after-edge" fill-opacity="1">natgw_public_ip_prefix</text><path fill="rgb(255,247,224)" stroke="rgb(255,193,7)" paint-order="fill stroke markers" d=" M 1906.0000014305115 926.0000035762787 L 2172.0000014305115 926.0000035762787 L 2172.0000014305115 926.0000035762787 A 8 8 0 0 1 2180.0000014305115 934.0000035762787 L 2180.0000014305115 996.0000035762787 L 2180.0000014305115 996.0000035762787 A 8 8 0 0 1 2172.0000014305115 1004.0000035762787 L 1640.0000014305115 1004.0000035762787 L 1640.0000014305115 1004.0000035762787 A 8 8 0 0 1 1632.0000014305115 996.0000035762787 L 1632.0000014305115 934.0000035762787 L 1632.0000014305115 934.0000035762787 A 8 8 0 0 1 1640.0000014305115 926.0000035762787 L 1906.0000014305115 926.0000035762787 Z" fill-opacity="1" stroke-opacity="1" stroke-miterlimit="10" stroke-width="5"/><text fill="rgb(0,0,0)" stroke="none" font-family="Avenir, Helvetica, Arial, sans-serif" font-size="32px" font-style="normal" font-weight="bold" text-decoration="normal" x="1906.0000014305115" y="981.0000035762787" text-anchor="middle" dominant-baseline="text-after-edge" fill-opacity="1">natgw_subnet_id</text><path fill="rgb(255,247,224)" stroke="rgb(255,193,7)" paint-order="fill stroke markers" d=" M 1303.0000007152557 1059.0000042915344 L 1569.0000007152557 1059.0000042915344 L 1569.0000007152557 1059.0000042915344 A 8 8 0 0 1 1577.0000007152557 1067.0000042915344 L 1577.0000007152557 1129.0000042915344 L 1577.0000007152557 1129.0000042915344 A 8 8 0 0 1 1569.0000007152557 1137.0000042915344 L 1037.0000007152557 1137.0000042915344 L 1037.0000007152557 1137.0000042915344 A 8 8 0 0 1 1029.0000007152557 1129.0000042915344 L 1029.0000007152557 1067.0000042915344 L 1029.0000007152557 1067.0000042915344 A 8 8 0 0 1 1037.0000007152557 1059.0000042915344 L 1303.0000007152557 1059.0000042915344 Z" fill-opacity="1" stroke-opacity="1" stroke-miterlimit="10" stroke-width="5"/><text fill="rgb(0,0,0)" stroke="none" font-family="Avenir, Helvetica, Arial, sans-serif" font-size="32px" font-style="normal" font-weight="bold" text-decoration="normal" x="1303.0000007152557" y="1114.0000042915344" text-anchor="middle" dominant-baseline="text-after-edge" fill-opacity="1">hub1_natgwvnet_vpc_cidr</text><path fill="rgb(255,247,224)" stroke="rgb(255,193,7)" paint-order="fill stroke markers" d=" M 1906.0000014305115 1059.0000042915344 L 2172.0000014305115 1059.0000042915344 L 2172.0000014305115 1059.0000042915344 A 8 8 0 0 1 2180.0000014305115 1067.0000042915344 L 2180.0000014305115 1129.0000042915344 L 2180.0000014305115 1129.0000042915344 A 8 8 0 0 1 2172.0000014305115 1137.0000042915344 L 1640.0000014305115 1137.0000042915344 L 1640.0000014305115 1137.0000042915344 A 8 8 0 0 1 1632.0000014305115 1129.0000042915344 L 1632.0000014305115 1067.0000042915344 L 1632.0000014305115 1067.0000042915344 A 8 8 0 0 1 1640.0000014305115 1059.0000042915344 L 1906.0000014305115 1059.0000042915344 Z" fill-opacity="1" stroke-opacity="1" stroke-miterlimit="10" stroke-width="5"/><text fill="rgb(0,0,0)" stroke="none" font-family="Avenir, Helvetica, Arial, sans-serif" font-size="32px" font-style="normal" font-weight="bold" text-decoration="normal" x="1906.0000014305115" y="1114.0000042915344" text-anchor="middle" dominant-baseline="text-after-edge" fill-opacity="1">spoke1_kubevnet_network_name</text><path fill="rgb(225,240,255)" stroke="rgb(29,122,218)" paint-order="fill stroke markers" d=" M 300 261 L 566 261 L 566 261 A 8 8 0 0 1 574 269 L 574 331 L 574 331 A 8 8 0 0 1 566 339 L 34 339 L 34 339 A 8 8 0 0 1 26 331 L 26 269 L 26 269 A 8 8 0 0 1 34 261 L 300 261 Z" fill-opacity="1" stroke-opacity="1" stroke-miterlimit="10" stroke-width="5"/><text fill="rgb(0,0,0)" stroke="none" font-family="Avenir, Helvetica, Arial, sans-serif" font-size="32px" font-style="normal" font-weight="bold" text-decoration="normal" x="300" y="316" text-anchor="middle" dominant-baseline="text-after-edge" fill-opacity="1">tags</text><path fill="rgb(225,240,255)" stroke="rgb(29,122,218)" paint-order="fill stroke markers" d=" M 300 394.00000071525574 L 566 394.00000071525574 L 566 394.00000071525574 A 8 8 0 0 1 574 402.00000071525574 L 574 464.00000071525574 L 574 464.00000071525574 A 8 8 0 0 1 566 472.00000071525574 L 34 472.00000071525574 L 34 472.00000071525574 A 8 8 0 0 1 26 464.00000071525574 L 26 402.00000071525574 L 26 402.00000071525574 A 8 8 0 0 1 34 394.00000071525574 L 300 394.00000071525574 Z" fill-opacity="1" stroke-opacity="1" stroke-miterlimit="10" stroke-width="5"/><text fill="rgb(0,0,0)" stroke="none" font-family="Avenir, Helvetica, Arial, sans-serif" font-size="32px" font-style="normal" font-weight="bold" text-decoration="normal" x="300" y="449.00000071525574" text-anchor="middle" dominant-baseline="text-after-edge" fill-opacity="1">rg_name</text><path fill="rgb(225,240,255)" stroke="rgb(29,122,218)" paint-order="fill stroke markers" d=" M 300 527.0000014305115 L 566 527.0000014305115 L 566 527.0000014305115 A 8 8 0 0 1 574 535.0000014305115 L 574 597.0000014305115 L 574 597.0000014305115 A 8 8 0 0 1 566 605.0000014305115 L 34 605.0000014305115 L 34 605.0000014305115 A 8 8 0 0 1 26 597.0000014305115 L 26 535.0000014305115 L 26 535.0000014305115 A 8 8 0 0 1 34 527.0000014305115 L 300 527.0000014305115 Z" fill-opacity="1" stroke-opacity="1" stroke-miterlimit="10" stroke-width="5"/><text fill="rgb(0,0,0)" stroke="none" font-family="Avenir, Helvetica, Arial, sans-serif" font-size="32px" font-style="normal" font-weight="bold" text-decoration="normal" x="300" y="582.0000014305115" text-anchor="middle" dominant-baseline="text-after-edge" fill-opacity="1">region</text><path fill="rgb(225,240,255)" stroke="rgb(29,122,218)" paint-order="fill stroke markers" d=" M 300 660.0000021457672 L 566 660.0000021457672 L 566 660.0000021457672 A 8 8 0 0 1 574 668.0000021457672 L 574 730.0000021457672 L 574 730.0000021457672 A 8 8 0 0 1 566 738.0000021457672 L 34 738.0000021457672 L 34 738.0000021457672 A 8 8 0 0 1 26 730.0000021457672 L 26 668.0000021457672 L 26 668.0000021457672 A 8 8 0 0 1 34 660.0000021457672 L 300 660.0000021457672 Z" fill-opacity="1" stroke-opacity="1" stroke-miterlimit="10" stroke-width="5"/><text fill="rgb(0,0,0)" stroke="none" font-family="Avenir, Helvetica, Arial, sans-serif" font-size="32px" font-style="normal" font-weight="bold" text-decoration="normal" x="300" y="715.0000021457672" text-anchor="middle" dominant-baseline="text-after-edge" fill-opacity="1">vpc_cidr_kubevnet</text><path fill="rgb(225,240,255)" stroke="rgb(29,122,218)" paint-order="fill stroke markers" d=" M 300 793.000002861023 L 566 793.000002861023 L 566 793.000002861023 A 8 8 0 0 1 574 801.000002861023 L 574 863.000002861023 L 574 863.000002861023 A 8 8 0 0 1 566 871.000002861023 L 34 871.000002861023 L 34 871.000002861023 A 8 8 0 0 1 26 863.000002861023 L 26 801.000002861023 L 26 801.000002861023 A 8 8 0 0 1 34 793.000002861023 L 300 793.000002861023 Z" fill-opacity="1" stroke-opacity="1" stroke-miterlimit="10" stroke-width="5"/><text fill="rgb(0,0,0)" stroke="none" font-family="Avenir, Helvetica, Arial, sans-serif" font-size="32px" font-style="normal" font-weight="bold" text-decoration="normal" x="300" y="848.000002861023" text-anchor="middle" dominant-baseline="text-after-edge" fill-opacity="1">vpc_cidr_hub</text><path fill="rgb(225,240,255)" stroke="rgb(29,122,218)" paint-order="fill stroke markers" d=" M 300 926.0000035762787 L 566 926.0000035762787 L 566 926.0000035762787 A 8 8 0 0 1 574 934.0000035762787 L 574 996.0000035762787 L 574 996.0000035762787 A 8 8 0 0 1 566 1004.0000035762787 L 34 1004.0000035762787 L 34 1004.0000035762787 A 8 8 0 0 1 26 996.0000035762787 L 26 934.0000035762787 L 26 934.0000035762787 A 8 8 0 0 1 34 926.0000035762787 L 300 926.0000035762787 Z" fill-opacity="1" stroke-opacity="1" stroke-miterlimit="10" stroke-width="5"/><text fill="rgb(0,0,0)" stroke="none" font-family="Avenir, Helvetica, Arial, sans-serif" font-size="32px" font-style="normal" font-weight="bold" text-decoration="normal" x="300" y="981.0000035762787" text-anchor="middle" dominant-baseline="text-after-edge" fill-opacity="1">single_nat_gateway</text><path fill="rgb(225,240,255)" stroke="rgb(29,122,218)" paint-order="fill stroke markers" d=" M 300 1059.0000042915344 L 566 1059.0000042915344 L 566 1059.0000042915344 A 8 8 0 0 1 574 1067.0000042915344 L 574 1129.0000042915344 L 574 1129.0000042915344 A 8 8 0 0 1 566 1137.0000042915344 L 34 1137.0000042915344 L 34 1137.0000042915344 A 8 8 0 0 1 26 1129.0000042915344 L 26 1067.0000042915344 L 26 1067.0000042915344 A 8 8 0 0 1 34 1059.0000042915344 L 300 1059.0000042915344 Z" fill-opacity="1" stroke-opacity="1" stroke-miterlimit="10" stroke-width="5"/><text fill="rgb(0,0,0)" stroke="none" font-family="Avenir, Helvetica, Arial, sans-serif" font-size="32px" font-style="normal" font-weight="bold" text-decoration="normal" x="300" y="1114.0000042915344" text-anchor="middle" dominant-baseline="text-after-edge" fill-opacity="1">name</text><path fill="rgb(40,167,69)" stroke="none" paint-order="stroke fill markers" d=" M 400 1692.0000050067902 L 666 1692.0000050067902 L 666 1692.0000050067902 A 8 8 0 0 1 674 1700.0000050067902 L 674 1762.0000050067902 L 674 1762.0000050067902 A 8 8 0 0 1 666 1770.0000050067902 L 134 1770.0000050067902 L 134 1770.0000050067902 A 8 8 0 0 1 126 1762.0000050067902 L 126 1700.0000050067902 L 126 1700.0000050067902 A 8 8 0 0 1 134 1692.0000050067902 L 400 1692.0000050067902 Z" fill-opacity="1"/><text fill="rgb(255,255,255)" stroke="none" font-family="Avenir, Helvetica, Arial, sans-serif" font-size="32px" font-style="normal" font-weight="bold" text-decoration="normal" x="400" y="1747.0000050067902" text-anchor="middle" dominant-baseline="text-after-edge" fill-opacity="1">assign</text><path fill="rgb(40,167,69)" stroke="none" paint-order="stroke fill markers" d=" M 1198.2000007152558 2804.6000078678135 L 1464.2000007152558 2804.6000078678135 L 1464.2000007152558 2804.6000078678135 A 8 8 0 0 1 1472.2000007152558 2812.6000078678135 L 1472.2000007152558 2874.6000078678135 L 1472.2000007152558 2874.6000078678135 A 8 8 0 0 1 1464.2000007152558 2882.6000078678135 L 932.2000007152558 2882.6000078678135 L 932.2000007152558 2882.6000078678135 A 8 8 0 0 1 924.2000007152558 2874.6000078678135 L 924.2000007152558 2812.6000078678135 L 924.2000007152558 2812.6000078678135 A 8 8 0 0 1 932.2000007152558 2804.6000078678135 L 1198.2000007152558 2804.6000078678135 Z" fill-opacity="1"/><text fill="rgb(255,255,255)" stroke="none" font-family="Avenir, Helvetica, Arial, sans-serif" font-size="32px" font-style="normal" font-weight="bold" text-decoration="normal" x="1198.2000007152558" y="2859.6000078678135" text-anchor="middle" dominant-baseline="text-after-edge" fill-opacity="1">natgw</text><path fill="rgb(40,167,69)" stroke="none" paint-order="stroke fill markers" d=" M 1996.4000014305116 2348.4000064373017 L 2262.4000014305116 2348.4000064373017 L 2262.4000014305116 2348.4000064373017 A 8 8 0 0 1 2270.4000014305116 2356.4000064373017 L 2270.4000014305116 2418.4000064373017 L 2270.4000014305116 2418.4000064373017 A 8 8 0 0 1 2262.4000014305116 2426.4000064373017 L 1730.4000014305116 2426.4000064373017 L 1730.4000014305116 2426.4000064373017 A 8 8 0 0 1 1722.4000014305116 2418.4000064373017 L 1722.4000014305116 2356.4000064373017 L 1722.4000014305116 2356.4000064373017 A 8 8 0 0 1 1730.4000014305116 2348.4000064373017 L 1996.4000014305116 2348.4000064373017 Z" fill-opacity="1"/><text fill="rgb(255,255,255)" stroke="none" font-family="Avenir, Helvetica, Arial, sans-serif" font-size="32px" font-style="normal" font-weight="bold" text-decoration="normal" x="1996.4000014305116" y="2403.4000064373017" text-anchor="middle" dominant-baseline="text-after-edge" fill-opacity="1">spoke1_kubevnet</text><path fill="rgb(40,167,69)" stroke="none" paint-order="stroke fill markers" d=" M 1198.2000007152558 1692.0000050067902 L 1464.2000007152558 1692.0000050067902 L 1464.2000007152558 1692.0000050067902 A 8 8 0 0 1 1472.2000007152558 1700.0000050067902 L 1472.2000007152558 1762.0000050067902 L 1472.2000007152558 1762.0000050067902 A 8 8 0 0 1 1464.2000007152558 1770.0000050067902 L 932.2000007152558 1770.0000050067902 L 932.2000007152558 1770.0000050067902 A 8 8 0 0 1 924.2000007152558 1762.0000050067902 L 924.2000007152558 1700.0000050067902 L 924.2000007152558 1700.0000050067902 A 8 8 0 0 1 932.2000007152558 1692.0000050067902 L 1198.2000007152558 1692.0000050067902 Z" fill-opacity="1"/><text fill="rgb(255,255,255)" stroke="none" font-family="Avenir, Helvetica, Arial, sans-serif" font-size="32px" font-style="normal" font-weight="bold" text-decoration="normal" x="1198.2000007152558" y="1747.0000050067902" text-anchor="middle" dominant-baseline="text-after-edge" fill-opacity="1">rtassoc</text><path fill="rgb(40,167,69)" stroke="none" paint-order="stroke fill markers" d=" M 1996.4000014305116 1692.0000050067902 L 2262.4000014305116 1692.0000050067902 L 2262.4000014305116 1692.0000050067902 A 8 8 0 0 1 2270.4000014305116 1700.0000050067902 L 2270.4000014305116 1762.0000050067902 L 2270.4000014305116 1762.0000050067902 A 8 8 0 0 1 2262.4000014305116 1770.0000050067902 L 1730.4000014305116 1770.0000050067902 L 1730.4000014305116 1770.0000050067902 A 8 8 0 0 1 1722.4000014305116 1762.0000050067902 L 1722.4000014305116 1700.0000050067902 L 1722.4000014305116 1700.0000050067902 A 8 8 0 0 1 1730.4000014305116 1692.0000050067902 L 1996.4000014305116 1692.0000050067902 Z" fill-opacity="1"/><text fill="rgb(255,255,255)" stroke="none" font-family="Avenir, Helvetica, Arial, sans-serif" font-size="32px" font-style="normal" font-weight="bold" text-decoration="normal" x="1996.4000014305116" y="1747.0000050067902" text-anchor="middle" dominant-baseline="text-after-edge" fill-opacity="1">natgw</text><path fill="rgb(40,167,69)" stroke="none" paint-order="stroke fill markers" d=" M 400 2804.6000078678135 L 666 2804.6000078678135 L 666 2804.6000078678135 A 8 8 0 0 1 674 2812.6000078678135 L 674 2874.6000078678135 L 674 2874.6000078678135 A 8 8 0 0 1 666 2882.6000078678135 L 134 2882.6000078678135 L 134 2882.6000078678135 A 8 8 0 0 1 126 2874.6000078678135 L 126 2812.6000078678135 L 126 2812.6000078678135 A 8 8 0 0 1 134 2804.6000078678135 L 400 2804.6000078678135 Z" fill-opacity="1"/><text fill="rgb(255,255,255)" stroke="none" font-family="Avenir, Helvetica, Arial, sans-serif" font-size="32px" font-style="normal" font-weight="bold" text-decoration="normal" x="400" y="2859.6000078678135" text-anchor="middle" dominant-baseline="text-after-edge" fill-opacity="1">HubToSpoke1</text><path fill="rgb(40,167,69)" stroke="none" paint-order="stroke fill markers" d=" M 1198.2000007152558 2932.600008583069 L 1464.2000007152558 2932.600008583069 L 1464.2000007152558 2932.600008583069 A 8 8 0 0 1 1472.2000007152558 2940.600008583069 L 1472.2000007152558 3002.600008583069 L 1472.2000007152558 3002.600008583069 A 8 8 0 0 1 1464.2000007152558 3010.600008583069 L 932.2000007152558 3010.600008583069 L 932.2000007152558 3010.600008583069 A 8 8 0 0 1 924.2000007152558 3002.600008583069 L 924.2000007152558 2940.600008583069 L 924.2000007152558 2940.600008583069 A 8 8 0 0 1 932.2000007152558 2932.600008583069 L 1198.2000007152558 2932.600008583069 Z" fill-opacity="1"/><text fill="rgb(255,255,255)" stroke="none" font-family="Avenir, Helvetica, Arial, sans-serif" font-size="32px" font-style="normal" font-weight="bold" text-decoration="normal" x="1198.2000007152558" y="2987.600008583069" text-anchor="middle" dominant-baseline="text-after-edge" fill-opacity="1">ingress</text><path fill="rgb(40,167,69)" stroke="none" paint-order="stroke fill markers" d=" M 400 2020.2000057220457 L 666 2020.2000057220457 L 666 2020.2000057220457 A 8 8 0 0 1 674 2028.2000057220457 L 674 2090.2000057220457 L 674 2090.2000057220457 A 8 8 0 0 1 666 2098.2000057220457 L 134 2098.2000057220457 L 134 2098.2000057220457 A 8 8 0 0 1 126 2090.2000057220457 L 126 2028.2000057220457 L 126 2028.2000057220457 A 8 8 0 0 1 134 2020.2000057220457 L 400 2020.2000057220457 Z" fill-opacity="1"/><text fill="rgb(255,255,255)" stroke="none" font-family="Avenir, Helvetica, Arial, sans-serif" font-size="32px" font-style="normal" font-weight="bold" text-decoration="normal" x="400" y="2075.2000057220457" text-anchor="middle" dominant-baseline="text-after-edge" fill-opacity="1">prefix</text><path fill="rgb(40,167,69)" stroke="none" paint-order="stroke fill markers" d=" M 1198.2000007152558 3060.600009298325 L 1464.2000007152558 3060.600009298325 L 1464.2000007152558 3060.600009298325 A 8 8 0 0 1 1472.2000007152558 3068.600009298325 L 1472.2000007152558 3130.600009298325 L 1472.2000007152558 3130.600009298325 A 8 8 0 0 1 1464.2000007152558 3138.600009298325 L 932.2000007152558 3138.600009298325 L 932.2000007152558 3138.600009298325 A 8 8 0 0 1 924.2000007152558 3130.600009298325 L 924.2000007152558 3068.600009298325 L 924.2000007152558 3068.600009298325 A 8 8 0 0 1 932.2000007152558 3060.600009298325 L 1198.2000007152558 3060.600009298325 Z" fill-opacity="1"/><text fill="rgb(255,255,255)" stroke="none" font-family="Avenir, Helvetica, Arial, sans-serif" font-size="32px" font-style="normal" font-weight="bold" text-decoration="normal" x="1198.2000007152558" y="3115.600009298325" text-anchor="middle" dominant-baseline="text-after-edge" fill-opacity="1">aks</text><path fill="rgb(40,167,69)" stroke="none" paint-order="stroke fill markers" d=" M 1198.2000007152558 2020.2000057220457 L 1464.2000007152558 2020.2000057220457 L 1464.2000007152558 2020.2000057220457 A 8 8 0 0 1 1472.2000007152558 2028.2000057220457 L 1472.2000007152558 2090.2000057220457 L 1472.2000007152558 2090.2000057220457 A 8 8 0 0 1 1464.2000007152558 2098.2000057220457 L 932.2000007152558 2098.2000057220457 L 932.2000007152558 2098.2000057220457 A 8 8 0 0 1 924.2000007152558 2090.2000057220457 L 924.2000007152558 2028.2000057220457 L 924.2000007152558 2028.2000057220457 A 8 8 0 0 1 932.2000007152558 2020.2000057220457 L 1198.2000007152558 2020.2000057220457 Z" fill-opacity="1"/><text fill="rgb(255,255,255)" stroke="none" font-family="Avenir, Helvetica, Arial, sans-serif" font-size="32px" font-style="normal" font-weight="bold" text-decoration="normal" x="1198.2000007152558" y="2075.2000057220457" text-anchor="middle" dominant-baseline="text-after-edge" fill-opacity="1">natgw</text><path fill="rgb(40,167,69)" stroke="none" paint-order="stroke fill markers" d=" M 1996.4000014305116 2020.2000057220457 L 2262.4000014305116 2020.2000057220457 L 2262.4000014305116 2020.2000057220457 A 8 8 0 0 1 2270.4000014305116 2028.2000057220457 L 2270.4000014305116 2090.2000057220457 L 2270.4000014305116 2090.2000057220457 A 8 8 0 0 1 2262.4000014305116 2098.2000057220457 L 1730.4000014305116 2098.2000057220457 L 1730.4000014305116 2098.2000057220457 A 8 8 0 0 1 1722.4000014305116 2090.2000057220457 L 1722.4000014305116 2028.2000057220457 L 1722.4000014305116 2028.2000057220457 A 8 8 0 0 1 1730.4000014305116 2020.2000057220457 L 1996.4000014305116 2020.2000057220457 Z" fill-opacity="1"/><text fill="rgb(255,255,255)" stroke="none" font-family="Avenir, Helvetica, Arial, sans-serif" font-size="32px" font-style="normal" font-weight="bold" text-decoration="normal" x="1996.4000014305116" y="2075.2000057220457" text-anchor="middle" dominant-baseline="text-after-edge" fill-opacity="1">assing</text><path fill="rgb(40,167,69)" stroke="none" paint-order="stroke fill markers" d=" M 400 2348.4000064373017 L 666 2348.4000064373017 L 666 2348.4000064373017 A 8 8 0 0 1 674 2356.4000064373017 L 674 2418.4000064373017 L 674 2418.4000064373017 A 8 8 0 0 1 666 2426.4000064373017 L 134 2426.4000064373017 L 134 2426.4000064373017 A 8 8 0 0 1 126 2418.4000064373017 L 126 2356.4000064373017 L 126 2356.4000064373017 A 8 8 0 0 1 134 2348.4000064373017 L 400 2348.4000064373017 Z" fill-opacity="1"/><text fill="rgb(255,255,255)" stroke="none" font-family="Avenir, Helvetica, Arial, sans-serif" font-size="32px" font-style="normal" font-weight="bold" text-decoration="normal" x="400" y="2403.4000064373017" text-anchor="middle" dominant-baseline="text-after-edge" fill-opacity="1">attach</text><path fill="rgb(40,167,69)" stroke="none" paint-order="stroke fill markers" d=" M 1198.2000007152558 2348.4000064373017 L 1464.2000007152558 2348.4000064373017 L 1464.2000007152558 2348.4000064373017 A 8 8 0 0 1 1472.2000007152558 2356.4000064373017 L 1472.2000007152558 2418.4000064373017 L 1472.2000007152558 2418.4000064373017 A 8 8 0 0 1 1464.2000007152558 2426.4000064373017 L 932.2000007152558 2426.4000064373017 L 932.2000007152558 2426.4000064373017 A 8 8 0 0 1 924.2000007152558 2418.4000064373017 L 924.2000007152558 2356.4000064373017 L 924.2000007152558 2356.4000064373017 A 8 8 0 0 1 932.2000007152558 2348.4000064373017 L 1198.2000007152558 2348.4000064373017 Z" fill-opacity="1"/><text fill="rgb(255,255,255)" stroke="none" font-family="Avenir, Helvetica, Arial, sans-serif" font-size="32px" font-style="normal" font-weight="bold" text-decoration="normal" x="1198.2000007152558" y="2403.4000064373017" text-anchor="middle" dominant-baseline="text-after-edge" fill-opacity="1">rt</text><path fill="rgb(40,167,69)" stroke="none" paint-order="stroke fill markers" d=" M 400 2932.600008583069 L 666 2932.600008583069 L 666 2932.600008583069 A 8 8 0 0 1 674 2940.600008583069 L 674 3002.600008583069 L 674 3002.600008583069 A 8 8 0 0 1 666 3010.600008583069 L 134 3010.600008583069 L 134 3010.600008583069 A 8 8 0 0 1 126 3002.600008583069 L 126 2940.600008583069 L 126 2940.600008583069 A 8 8 0 0 1 134 2932.600008583069 L 400 2932.600008583069 Z" fill-opacity="1"/><text fill="rgb(255,255,255)" stroke="none" font-family="Avenir, Helvetica, Arial, sans-serif" font-size="32px" font-style="normal" font-weight="bold" text-decoration="normal" x="400" y="2987.600008583069" text-anchor="middle" dominant-baseline="text-after-edge" fill-opacity="1">Spoke1ToHub</text><path fill="rgb(40,167,69)" stroke="none" paint-order="stroke fill markers" d=" M 1996.4000014305116 2476.4000071525575 L 2262.4000014305116 2476.4000071525575 L 2262.4000014305116 2476.4000071525575 A 8 8 0 0 1 2270.4000014305116 2484.4000071525575 L 2270.4000014305116 2546.4000071525575 L 2270.4000014305116 2546.4000071525575 A 8 8 0 0 1 2262.4000014305116 2554.4000071525575 L 1730.4000014305116 2554.4000071525575 L 1730.4000014305116 2554.4000071525575 A 8 8 0 0 1 1722.4000014305116 2546.4000071525575 L 1722.4000014305116 2484.4000071525575 L 1722.4000014305116 2484.4000071525575 A 8 8 0 0 1 1730.4000014305116 2476.4000071525575 L 1996.4000014305116 2476.4000071525575 Z" fill-opacity="1"/><text fill="rgb(255,255,255)" stroke="none" font-family="Avenir, Helvetica, Arial, sans-serif" font-size="32px" font-style="normal" font-weight="bold" text-decoration="normal" x="1996.4000014305116" y="2531.4000071525575" text-anchor="middle" dominant-baseline="text-after-edge" fill-opacity="1">hub1_natgwvnet</text><g transform="scale(10,10) translate(-33.800000000000004,-4.6000000000000005)"/></g></svg>