<svg version="1.1" xmlns="http://www.w3.org/2000/svg" xmlns:xlink="http://www.w3.org/1999/xlink" width="293.8" height="354.8"><defs><linearGradient id="yIvSBfbLHUrb" x1="1906.0000014305115px" x2="1198.2000007152558px" y1="1006.5000035762787px" y2="2932.600008583069px" gradientUnits="userSpaceOnUse"><stop offset="0" stop-color="rgb(255,193,7)" stop-opacity="1"/><stop offset="1" stop-color="rgb(211,211,211)" stop-opacity="1"/></linearGradient><linearGradient id="QCAKrMNtodUK" x1="1303.0000007152557px" x2="1198.2000007152558px" y1="1139.5000042915344px" y2="2804.6000078678135px" gradientUnits="userSpaceOnUse"><stop offset="0" stop-color="rgb(255,193,7)" stop-opacity="1"/><stop offset="1" stop-color="rgb(211,211,211)" stop-opacity="1"/></linearGradient><linearGradient id="VRCTSGOnuWKT" x1="1906.0000014305115px" x2="1198.2000007152558px" y1="1139.5000042915344px" y2="2804.6000078678135px" gradientUnits="userSpaceOnUse"><stop offset="0" stop-color="rgb(255,193,7)" stop-opacity="1"/><stop offset="1" stop-color="rgb(211,211,211)" stop-opacity="1"/></linearGradient><linearGradient id="RUXcHTAWgdkb" x1="1303.0000007152557px" x2="300px" y1="341.5px" y2="1056.5000042915344px" gradientUnits="userSpaceOnUse"><stop offset="0" stop-color="rgb(255,193,7)" stop-opacity="1"/><stop offset="1" stop-color="rgb(29,122,218)" stop-opacity="1"/></linearGradient><linearGradient id="UAVxLknJGZwp" x1="1906.0000014305115px" x2="1198.2000007152558px" y1="341.5px" y2="3060.600009298325px" gradientUnits="userSpaceOnUse"><stop offset="0" stop-color="rgb(255,193,7)" stop-opacity="1"/><stop offset="1" stop-color="rgb(211,211,211)" stop-opacity="1"/></linearGradient><linearGradient id="wRVmWfdREKBt" x1="1303.0000007152557px" x2="300px" y1="474.50000071525574px" y2="1056.5000042915344px" gradientUnits="userSpaceOnUse"><stop offset="0" stop-color="rgb(255,193,7)" stop-opacity="1"/><stop offset="1" stop-color="rgb(29,122,218)" stop-opacity="1"/></linearGradient><linearGradient id="WWfrEfdZDNQe" x1="1906.0000014305115px" x2="1198.2000007152558px" y1="474.50000071525574px" y2="3060.600009298325px" gradientUnits="userSpaceOnUse"><stop offset="0" stop-color="rgb(255,193,7)" stop-opacity="1"/><stop offset="1" stop-color="rgb(211,211,211)" stop-opacity="1"/></linearGradient><linearGradient id="idrTzIBPAzPp" x1="1303.0000007152557px" x2="1198.2000007152558px" y1="607.5000014305115px" y2="2020.2000057220457px" gradientUnits="userSpaceOnUse"><stop offset="0" stop-color="rgb(255,193,7)" stop-opacity="1"/><stop offset="1" stop-color="rgb(211,211,211)" stop-opacity="1"/></linearGradient><linearGradient id="JcTeSuuXdBUm" x1="1906.0000014305115px" x2="1198.2000007152558px" y1="607.5000014305115px" y2="2932.600008583069px" gradientUnits="userSpaceOnUse"><stop offset="0" stop-color="rgb(255,193,7)" stop-opacity="1"/><stop offset="1" stop-color="rgb(211,211,211)" stop-opacity="1"/></linearGradient><linearGradient id="ooZxwqPNVTDf" x1="1303.0000007152557px" x2="400px" y1="740.5000021457672px" y2="2804.6000078678135px" gradientUnits="userSpaceOnUse"><stop offset="0" stop-color="rgb(255,193,7)" stop-opacity="1"/><stop offset="1" stop-color="rgb(211,211,211)" stop-opacity="1"/></linearGradient><linearGradient id="LCvogoVLAMOm" x1="1906.0000014305115px" x2="400px" y1="740.5000021457672px" y2="2932.600008583069px" gradientUnits="userSpaceOnUse"><stop offset="0" stop-color="rgb(255,193,7)" stop-opacity="1"/><stop offset="1" stop-color="rgb(211,211,211)" stop-opacity="1"/></linearGradient><linearGradient id="atnuIgozBRzl" x1="1303.0000007152557px" x2="400px" y1="873.500002861023px" y2="2932.600008583069px" gradientUnits="userSpaceOnUse"><stop offset="0" stop-color="rgb(255,193,7)" stop-opacity="1"/><stop offset="1" stop-color="rgb(211,211,211)" stop-opacity="1"/></linearGradient><linearGradient id="gqtFTimJwyxS" x1="1906.0000014305115px" x2="400px" y1="873.500002861023px" y2="2804.6000078678135px" gradientUnits="userSpaceOnUse"><stop offset="0" stop-color="rgb(255,193,7)" stop-opacity="1"/><stop offset="1" stop-color="rgb(211,211,211)" stop-opacity="1"/></linearGradient><linearGradient id="gCBqoxNcfnkD" x1="1303.0000007152557px" x2="400px" y1="1006.5000035762787px" y2="2348.4000064373017px" gradientUnits="userSpaceOnUse"><stop offset="0" stop-color="rgb(255,193,7)" stop-opacity="1"/><stop offset="1" stop-color="rgb(211,211,211)" stop-opacity="1"/></linearGradient><linearGradient id="CFowAyWgwVvv" x1="1198.2000007152558px" x2="400px" y1="2348.4000064373017px" y2="2098.2000057220457px" gradientUnits="userSpaceOnUse"><stop offset="0" stop-color="rgb(211,211,211)" stop-opacity="1"/><stop offset="1" stop-color="rgb(211,211,211)" stop-opacity="1"/></linearGradient><linearGradient id="hbbiffsOWhat" x1="924.2000007152558px" x2="674px" y1="2387.4000064373017px" y2="2387.4000064373017px" gradientUnits="userSpaceOnUse"><stop offset="0" stop-color="rgb(211,211,211)" stop-opacity="1"/><stop offset="1" stop-color="rgb(211,211,211)" stop-opacity="1"/></linearGradient><linearGradient id="UxdFAOpENZVO" x1="924.2000007152558px" x2="674px" y1="3099.600009298325px" y2="2971.600008583069px" gradientUnits="userSpaceOnUse"><stop offset="0" stop-color="rgb(211,211,211)" stop-opacity="1"/><stop offset="1" stop-color="rgb(211,211,211)" stop-opacity="1"/></linearGradient><linearGradient id="tEaLvztQUrwp" x1="1198.2000007152558px" x2="300px" y1="3060.600009298325px" y2="1139.5000042915344px" gradientUnits="userSpaceOnUse"><stop offset="0" stop-color="rgb(211,211,211)" stop-opacity="1"/><stop offset="1" stop-color="rgb(29,122,218)" stop-opacity="1"/></linearGradient><linearGradient id="sRhFoGfueuih" x1="1198.2000007152558px" x2="300px" y1="3060.600009298325px" y2="873.500002861023px" gradientUnits="userSpaceOnUse"><stop offset="0" stop-color="rgb(211,211,211)" stop-opacity="1"/><stop offset="1" stop-color="rgb(29,122,218)" stop-opacity="1"/></linearGradient><linearGradient id="FKNFbUndtsHr" x1="400px" x2="400px" y1="1770.0000050067902px" y2="2020.2000057220457px" gradientUnits="userSpaceOnUse"><stop offset="0" stop-color="rgb(211,211,211)" stop-opacity="1"/><stop offset="1" stop-color="rgb(211,211,211)" stop-opacity="1"/></linearGradient><linearGradient id="bFaDGHPbUllz" x1="400px" x2="1198.2000007152558px" y1="1770.0000050067902px" y2="2932.600008583069px" gradientUnits="userSpaceOnUse"><stop offset="0" stop-color="rgb(211,211,211)" stop-opacity="1"/><stop offset="1" stop-color="rgb(211,211,211)" stop-opacity="1"/></linearGradient><linearGradient id="HUPErEANPgbZ" x1="924.2000007152558px" x2="674px" y1="1731.0000050067902px" y2="2059.2000057220457px" gradientUnits="userSpaceOnUse"><stop offset="0" stop-color="rgb(211,211,211)" stop-opacity="1"/><stop offset="1" stop-color="rgb(211,211,211)" stop-opacity="1"/></linearGradient><linearGradient id="mMnExEhamOcA" x1="1198.2000007152558px" x2="1198.2000007152558px" y1="1770.0000050067902px" y2="2020.2000057220457px" gradientUnits="userSpaceOnUse"><stop offset="0" stop-color="rgb(211,211,211)" stop-opacity="1"/><stop offset="1" stop-color="rgb(211,211,211)" stop-opacity="1"/></linearGradient><linearGradient id="yMtorKmfTClu" x1="1722.4000014305116px" x2="674px" y1="2387.4000064373017px" y2="2843.6000078678135px" gradientUnits="userSpaceOnUse"><stop offset="0" stop-color="rgb(211,211,211)" stop-opacity="1"/><stop offset="1" stop-color="rgb(211,211,211)" stop-opacity="1"/></linearGradient><linearGradient id="zzDwiwcrMkyI" x1="1996.4000014305116px" x2="300px" y1="2348.4000064373017px" y2="873.500002861023px" gradientUnits="userSpaceOnUse"><stop offset="0" stop-color="rgb(211,211,211)" stop-opacity="1"/><stop offset="1" stop-color="rgb(29,122,218)" stop-opacity="1"/></linearGradient><linearGradient id="mHxtLUTFFwwi" x1="1722.4000014305116px" x2="674px" y1="2387.4000064373017px" y2="2971.600008583069px" gradientUnits="userSpaceOnUse"><stop offset="0" stop-color="rgb(211,211,211)" stop-opacity="1"/><stop offset="1" stop-color="rgb(211,211,211)" stop-opacity="1"/></linearGradient><linearGradient id="HvSznOZZDGva" x1="1722.4000014305116px" x2="576.5px" y1="1731.0000050067902px" y2="965.0000035762787px" gradientUnits="userSpaceOnUse"><stop offset="0" stop-color="rgb(211,211,211)" stop-opacity="1"/><stop offset="1" stop-color="rgb(29,122,218)" stop-opacity="1"/></linearGradient><linearGradient id="vPyqSgTgPHsG" x1="1722.4000014305116px" x2="576.5px" y1="1731.0000050067902px" y2="566.0000014305115px" gradientUnits="userSpaceOnUse"><stop offset="0" stop-color="rgb(211,211,211)" stop-opacity="1"/><stop offset="1" stop-color="rgb(29,122,218)" stop-opacity="1"/></linearGradient><linearGradient id="UZIFklpdezMc" x1="1722.4000014305116px" x2="576.5px" y1="1731.0000050067902px" y2="832.000002861023px" gradientUnits="userSpaceOnUse"><stop offset="0" stop-color="rgb(211,211,211)" stop-opacity="1"/><stop offset="1" stop-color="rgb(29,122,218)" stop-opacity="1"/></linearGradient><linearGradient id="gxdJAztSVhGw" x1="1722.4000014305116px" x2="674px" y1="1731.0000050067902px" y2="2387.4000064373017px" gradientUnits="userSpaceOnUse"><stop offset="0" stop-color="rgb(211,211,211)" stop-opacity="1"/><stop offset="1" stop-color="rgb(211,211,211)" stop-opacity="1"/></linearGradient><linearGradient id="DDcCRwhCdgGv" x1="1722.4000014305116px" x2="576.5px" y1="1731.0000050067902px" y2="699.0000021457672px" gradientUnits="userSpaceOnUse"><stop offset="0" stop-color="rgb(211,211,211)" stop-opacity="1"/><stop offset="1" stop-color="rgb(29,122,218)" stop-opacity="1"/></linearGradient><linearGradient id="bpxTaiLzKNdg" x1="400px" x2="300px" y1="2020.2000057220457px" y2="1006.5000035762787px" gradientUnits="userSpaceOnUse"><stop offset="0" stop-color="rgb(211,211,211)" stop-opacity="1"/><stop offset="1" stop-color="rgb(29,122,218)" stop-opacity="1"/></linearGradient><linearGradient id="TXcrzqedmDyB" x1="400px" x2="300px" y1="2020.2000057220457px" y2="607.5000014305115px" gradientUnits="userSpaceOnUse"><stop offset="0" stop-color="rgb(211,211,211)" stop-opacity="1"/><stop offset="1" stop-color="rgb(29,122,218)" stop-opacity="1"/></linearGradient><linearGradient id="gtGFDftwZNkK" x1="400px" x2="300px" y1="2020.2000057220457px" y2="873.500002861023px" gradientUnits="userSpaceOnUse"><stop offset="0" stop-color="rgb(211,211,211)" stop-opacity="1"/><stop offset="1" stop-color="rgb(29,122,218)" stop-opacity="1"/></linearGradient><linearGradient id="MBwxMbIetzIp" x1="400px" x2="300px" y1="2804.6000078678135px" y2="341.5px" gradientUnits="userSpaceOnUse"><stop offset="0" stop-color="rgb(211,211,211)" stop-opacity="1"/><stop offset="1" stop-color="rgb(29,122,218)" stop-opacity="1"/></linearGradient><linearGradient id="XoZpPzZdprwr" x1="400px" x2="300px" y1="2804.6000078678135px" y2="1006.5000035762787px" gradientUnits="userSpaceOnUse"><stop offset="0" stop-color="rgb(211,211,211)" stop-opacity="1"/><stop offset="1" stop-color="rgb(29,122,218)" stop-opacity="1"/></linearGradient><linearGradient id="lxFTHgoJmWdO" x1="400px" x2="300px" y1="2804.6000078678135px" y2="607.5000014305115px" gradientUnits="userSpaceOnUse"><stop offset="0" stop-color="rgb(211,211,211)" stop-opacity="1"/><stop offset="1" stop-color="rgb(29,122,218)" stop-opacity="1"/></linearGradient><linearGradient id="nFuhKvrvXqmr" x1="400px" x2="300px" y1="2804.6000078678135px" y2="873.500002861023px" gradientUnits="userSpaceOnUse"><stop offset="0" stop-color="rgb(211,211,211)" stop-opacity="1"/><stop offset="1" stop-color="rgb(29,122,218)" stop-opacity="1"/></linearGradient><linearGradient id="htfFDXmBALRT" x1="400px" x2="300px" y1="2804.6000078678135px" y2="740.5000021457672px" gradientUnits="userSpaceOnUse"><stop offset="0" stop-color="rgb(211,211,211)" stop-opacity="1"/><stop offset="1" stop-color="rgb(29,122,218)" stop-opacity="1"/></linearGradient><linearGradient id="ktRCTvCQxSsv" x1="1198.2000007152558px" x2="300px" y1="2020.2000057220457px" y2="873.500002861023px" gradientUnits="userSpaceOnUse"><stop offset="0" stop-color="rgb(211,211,211)" stop-opacity="1"/><stop offset="1" stop-color="rgb(29,122,218)" stop-opacity="1"/></linearGradient><linearGradient id="rTbFZBExeaNZ" x1="1198.2000007152558px" x2="300px" y1="2020.2000057220457px" y2="1006.5000035762787px" gradientUnits="userSpaceOnUse"><stop offset="0" stop-color="rgb(211,211,211)" stop-opacity="1"/><stop offset="1" stop-color="rgb(29,122,218)" stop-opacity="1"/></linearGradient><linearGradient id="anltmbQvGWEs" x1="1198.2000007152558px" x2="300px" y1="2020.2000057220457px" y2="607.5000014305115px" gradientUnits="userSpaceOnUse"><stop offset="0" stop-color="rgb(211,211,211)" stop-opacity="1"/><stop offset="1" stop-color="rgb(29,122,218)" stop-opacity="1"/></linearGradient><linearGradient id="ATlavSZMbwxG" x1="1198.2000007152558px" x2="300px" y1="2932.600008583069px" y2="341.5px" gradientUnits="userSpaceOnUse"><stop offset="0" stop-color="rgb(211,211,211)" stop-opacity="1"/><stop offset="1" stop-color="rgb(29,122,218)" stop-opacity="1"/></linearGradient><linearGradient id="FhTEZJVvQDtQ" x1="1198.2000007152558px" x2="300px" y1="2932.600008583069px" y2="607.5000014305115px" gradientUnits="userSpaceOnUse"><stop offset="0" stop-color="rgb(211,211,211)" stop-opacity="1"/><stop offset="1" stop-color="rgb(29,122,218)" stop-opacity="1"/></linearGradient><linearGradient id="yRQIRFUXBgzW" x1="1198.2000007152558px" x2="300px" y1="2932.600008583069px" y2="873.500002861023px" gradientUnits="userSpaceOnUse"><stop offset="0" stop-color="rgb(211,211,211)" stop-opacity="1"/><stop offset="1" stop-color="rgb(29,122,218)" stop-opacity="1"/></linearGradient><linearGradient id="LomXICysGrkQ" x1="924.2000007152558px" x2="674px" y1="2971.600008583069px" y2="2843.6000078678135px" gradientUnits="userSpaceOnUse"><stop offset="0" stop-color="rgb(211,211,211)" stop-opacity="1"/><stop offset="1" stop-color="rgb(211,211,211)" stop-opacity="1"/></linearGradient><linearGradient id="STqtWVWhOeXm" x1="400px" x2="300px" y1="2932.600008583069px" y2="873.500002861023px" gradientUnits="userSpaceOnUse"><stop offset="0" stop-color="rgb(211,211,211)" stop-opacity="1"/><stop offset="1" stop-color="rgb(29,122,218)" stop-opacity="1"/></linearGradient><linearGradient id="UQqhVGOfpzBi" x1="400px" x2="300px" y1="2932.600008583069px" y2="740.5000021457672px" gradientUnits="userSpaceOnUse"><stop offset="0" stop-color="rgb(211,211,211)" stop-opacity="1"/><stop offset="1" stop-color="rgb(29,122,218)" stop-opacity="1"/></linearGradient><linearGradient id="eFHmrMmfPOHP" x1="400px" x2="300px" y1="2932.600008583069px" y2="1139.5000042915344px" gradientUnits="userSpaceOnUse"><stop offset="0" stop-color="rgb(211,211,211)" stop-opacity="1"/><stop offset="1" stop-color="rgb(29,122,218)" stop-opacity="1"/></linearGradient><linearGradient id="xczEhGDbXVIx" x1="400px" x2="300px" y1="2932.600008583069px" y2="1006.5000035762787px" gradientUnits="userSpaceOnUse"><stop offset="0" stop-color="rgb(211,211,211)" stop-opacity="1"/><stop offset="1" stop-color="rgb(29,122,218)" stop-opacity="1"/></linearGradient><linearGradient id="TOwMplPEduwz" x1="400px" x2="300px" y1="2932.600008583069px" y2="607.5000014305115px" gradientUnits="userSpaceOnUse"><stop offset="0" stop-color="rgb(211,211,211)" stop-opacity="1"/><stop offset="1" stop-color="rgb(29,122,218)" stop-opacity="1"/></linearGradient><linearGradient id="etPNDRCNxylH" x1="1996.4000014305116px" x2="1996.4000014305116px" y1="2020.2000057220457px" y2="1770.0000050067902px" gradientUnits="userSpaceOnUse"><stop offset="0" stop-color="rgb(211,211,211)" stop-opacity="1"/><stop offset="1" stop-color="rgb(211,211,211)" stop-opacity="1"/></linearGradient><linearGradient id="OnCaTDQbXCFt" x1="1996.4000014305116px" x2="1198.2000007152558px" y1="2098.2000057220457px" y2="3060.600009298325px" gradientUnits="userSpaceOnUse"><stop offset="0" stop-color="rgb(211,211,211)" stop-opacity="1"/><stop offset="1" stop-color="rgb(211,211,211)" stop-opacity="1"/></linearGradient><linearGradient id="DXGqOPDxMJed" x1="1722.4000014305116px" x2="674px" y1="2515.4000071525575px" y2="2843.6000078678135px" gradientUnits="userSpaceOnUse"><stop offset="0" stop-color="rgb(211,211,211)" stop-opacity="1"/><stop offset="1" stop-color="rgb(211,211,211)" stop-opacity="1"/></linearGradient><linearGradient id="tTZBoFZmVAvg" x1="1722.4000014305116px" x2="674px" y1="2515.4000071525575px" y2="2971.600008583069px" gradientUnits="userSpaceOnUse"><stop offset="0" stop-color="rgb(211,211,211)" stop-opacity="1"/><stop offset="1" stop-color="rgb(211,211,211)" stop-opacity="1"/></linearGradient><linearGradient id="WdTcnJiSFfPd" x1="1996.4000014305116px" x2="300px" y1="2476.4000071525575px" y2="873.500002861023px" gradientUnits="userSpaceOnUse"><stop offset="0" stop-color="rgb(211,211,211)" stop-opacity="1"/><stop offset="1" stop-color="rgb(29,122,218)" stop-opacity="1"/></linearGradient><linearGradient id="HsqWyUildRAt" x1="400px" x2="300px" y1="2348.4000064373017px" y2="873.500002861023px" gradientUnits="userSpaceOnUse"><stop offset="0" stop-color="rgb(211,211,211)" stop-opacity="1"/><stop offset="1" stop-color="rgb(29,122,218)" stop-opacity="1"/></linearGradient><linearGradient id="rWETFWQZvbmv" x1="400px" x2="300px" y1="2348.4000064373017px" y2="1006.5000035762787px" gradientUnits="userSpaceOnUse"><stop offset="0" stop-color="rgb(211,211,211)" stop-opacity="1"/><stop offset="1" stop-color="rgb(29,122,218)" stop-opacity="1"/></linearGradient><linearGradient id="RiTEfpEvdTAn" x1="400px" x2="300px" y1="2348.4000064373017px" y2="607.5000014305115px" gradientUnits="userSpaceOnUse"><stop offset="0" stop-color="rgb(211,211,211)" stop-opacity="1"/><stop offset="1" stop-color="rgb(29,122,218)" stop-opacity="1"/></linearGradient><linearGradient id="cSWOphWMBPiL" x1="1198.2000007152558px" x2="300px" y1="2804.6000078678135px" y2="1139.5000042915344px" gradientUnits="userSpaceOnUse"><stop offset="0" stop-color="rgb(211,211,211)" stop-opacity="1"/><stop offset="1" stop-color="rgb(29,122,218)" stop-opacity="1"/></linearGradient><linearGradient id="mTiJsrJCRegf" x1="1198.2000007152558px" x2="300px" y1="2804.6000078678135px" y2="873.500002861023px" gradientUnits="userSpaceOnUse"><stop offset="0" stop-color="rgb(211,211,211)" stop-opacity="1"/><stop offset="1" stop-color="rgb(29,122,218)" stop-opacity="1"/></linearGradient><linearGradient id="GHIZgelxfDaJ" x1="924.2000007152558px" x2="674px" y1="2843.6000078678135px" y2="2971.600008583069px" gradientUnits="userSpaceOnUse"><stop offset="0" stop-color="rgb(211,211,211)" stop-opacity="1"/><stop offset="1" stop-color="rgb(211,211,211)" stop-opacity="1"/></linearGradient></defs><g transform="translate(28.1,4.6000000000000005) scale(0.1,0.1)"><path fill="rgb(244,236,255)" stroke="rgb(255,255,255)" paint-order="fill stroke markers" d=" M 1187.7000007152558 -44 L 2646.4000014305116 -44 L 2646.4000014305116 -44 A 8 8 0 0 1 2654.4000014305116 -36 L 2654.4000014305116 3491.600009298325 L 2654.4000014305116 3491.600009298325 A 8 8 0 0 1 2646.4000014305116 3499.600009298325 L -271 3499.600009298325 L -271 3499.600009298325 A 8 8 0 0 1 -279 3491.600009298325 L -279 -36 L -279 -36 A 8 8 0 0 1 -271 -44 L 1187.7000007152558 -44 Z" fill-opacity="1" stroke-opacity="1" stroke-miterlimit="10" stroke-width="2"/><text fill="rgb(0,0,0)" stroke="none" font-family="Avenir, Helvetica, Arial, sans-serif" font-size="32px" font-style="normal" font-weight="bold" text-decoration="normal" x="1187.7000007152558" y="31" text-anchor="middle" dominant-baseline="text-after-edge" fill-opacity="1">.</text><path fill="rgb(255,255,255)" stroke="rgb(211,211,211)" paint-order="fill stroke markers" d=" M 1604.5000010728836 157.5 L 2275.5000014305115 157.5 L 2275.5000014305115 157.5 A 8 8 0 0 1 2283.5000014305115 165.5 L 2283.5000014305115 1232.5000042915344 L 2283.5000014305115 1232.5000042915344 A 8 8 0 0 1 2275.5000014305115 1240.5000042915344 L 933.5000007152557 1240.5000042915344 L 933.5000007152557 1240.5000042915344 A 8 8 0 0 1 925.5000007152557 1232.5000042915344 L 925.5000007152557 165.5 L 925.5000007152557 165.5 A 8 8 0 0 1 933.5000007152557 157.5 L 1604.5000010728836 157.5 Z" fill-opacity="1" stroke-opacity="1" stroke-miterlimit="10"/><text fill="rgb(0,0,0)" stroke="none" font-family="Avenir, Helvetica, Arial, sans-serif" font-size="32px" font-style="normal" font-weight="bold" text-decoration="normal" x="1604.5000010728836" y="232.5" text-anchor="middle" dominant-baseline="text-after-edge" fill-opacity="1">outputs.tf</text><path fill="rgb(255,255,255)" stroke="rgb(211,211,211)" paint-order="fill stroke markers" d=" M 300 157.5 L 669.5 157.5 L 669.5 157.5 A 8 8 0 0 1 677.5 165.5 L 677.5 1232.5000042915344 L 677.5 1232.5000042915344 A 8 8 0 0 1 669.5 1240.5000042915344 L -69.5 1240.5000042915344 L -69.5 1240.5000042915344 A 8 8 0 0 1 -77.5 1232.5000042915344 L -77.5 165.5 L -77.5 165.5 A 8 8 0 0 1 -69.5 157.5 L 300 157.5 Z" fill-opacity="1" stroke-opacity="1" stroke-miterlimit="10"/><text fill="rgb(0,0,0)" stroke="none" font-family="Avenir, Helvetica, Arial, sans-serif" font-size="32px" font-style="normal" font-weight="bold" text-decoration="normal" x="300" y="232.5" text-anchor="middle" dominant-baseline="text-after-edge" fill-opacity="1">variables.tf</text><path fill="rgb(255,255,255)" stroke="rgb(211,211,211)" paint-order="fill stroke markers" d=" M 1193.4500007152558 1487.0000050067902 L 2444.9000014305116 1487.0000050067902 L 2444.9000014305116 1487.0000050067902 A 8 8 0 0 1 2452.9000014305116 1495.0000050067902 L 2452.9000014305116 3290.100009298325 L 2452.9000014305116 3290.100009298325 A 8 8 0 0 1 2444.9000014305116 3298.100009298325 L -58 3298.100009298325 L -58 3298.100009298325 A 8 8 0 0 1 -66 3290.100009298325 L -66 1495.0000050067902 L -66 1495.0000050067902 A 8 8 0 0 1 -58 1487.0000050067902 L 1193.4500007152558 1487.0000050067902 Z" fill-opacity="1" stroke-opacity="1" stroke-miterlimit="10"/><text fill="rgb(0,0,0)" stroke="none" font-family="Avenir, Helvetica, Arial, sans-serif" font-size="32px" font-style="normal" font-weight="bold" text-decoration="normal" x="1193.4500007152558" y="1562.0000050067902" text-anchor="middle" dominant-baseline="text-after-edge" fill-opacity="1">main.tf</text><path fill="rgb(255,255,255)" stroke="rgb(0,0,0)" paint-order="fill stroke markers" d=" M 400 1636.0000050067902 L 722 1636.0000050067902 L 722 1636.0000050067902 A 8 8 0 0 1 730 1644.0000050067902 L 730 1818.0000050067902 L 730 1818.0000050067902 A 8 8 0 0 1 722 1826.0000050067902 L 78 1826.0000050067902 L 78 1826.0000050067902 A 8 8 0 0 1 70 1818.0000050067902 L 70 1644.0000050067902 L 70 1644.0000050067902 A 8 8 0 0 1 78 1636.0000050067902 L 400 1636.0000050067902 Z" fill-opacity="1" stroke-opacity="1" stroke-miterlimit="10" stroke-width="5"/><rect fill="rgb(255,255,255)" stroke="none" x="34" y="1587.0000050067902" width="732" height="96" fill-opacity="1"/><text fill="rgb(0,0,0)" stroke="none" font-family="Avenir, Helvetica, Arial, sans-serif" font-size="32px" font-style="normal" font-weight="bold" text-decoration="normal" x="400" y="1651.0000050067902" text-anchor="middle" dominant-baseline="text-after-edge" fill-opacity="1">azurerm_subnet_nat_gateway_association</text><path fill="rgb(255,255,255)" stroke="rgb(0,0,0)" paint-order="fill stroke markers" d=" M 1198.2000007152558 1636.0000050067902 L 1520.2000007152558 1636.0000050067902 L 1520.2000007152558 1636.0000050067902 A 8 8 0 0 1 1528.2000007152558 1644.0000050067902 L 1528.2000007152558 1818.0000050067902 L 1528.2000007152558 1818.0000050067902 A 8 8 0 0 1 1520.2000007152558 1826.0000050067902 L 876.2000007152558 1826.0000050067902 L 876.2000007152558 1826.0000050067902 A 8 8 0 0 1 868.2000007152558 1818.0000050067902 L 868.2000007152558 1644.0000050067902 L 868.2000007152558 1644.0000050067902 A 8 8 0 0 1 876.2000007152558 1636.0000050067902 L 1198.2000007152558 1636.0000050067902 Z" fill-opacity="1" stroke-opacity="1" stroke-miterlimit="10" stroke-width="5"/><rect fill="rgb(255,255,255)" stroke="none" x="763.7000007152558" y="1587.0000050067902" width="869" height="96" fill-opacity="1"/><text fill="rgb(0,0,0)" stroke="none" font-family="Avenir, Helvetica, Arial, sans-serif" font-size="32px" font-style="normal" font-weight="bold" text-decoration="normal" x="1198.2000007152558" y="1651.0000050067902" text-anchor="middle" dominant-baseline="text-after-edge" fill-opacity="1">azurerm_nat_gateway_public_ip_prefix_association</text><path fill="rgb(255,255,255)" stroke="rgb(0,0,0)" paint-order="fill stroke markers" d=" M 1996.4000014305116 2292.4000064373017 L 2318.4000014305116 2292.4000064373017 L 2318.4000014305116 2292.4000064373017 A 8 8 0 0 1 2326.4000014305116 2300.4000064373017 L 2326.4000014305116 2602.4000071525575 L 2326.4000014305116 2602.4000071525575 A 8 8 0 0 1 2318.4000014305116 2610.4000071525575 L 1674.4000014305116 2610.4000071525575 L 1674.4000014305116 2610.4000071525575 A 8 8 0 0 1 1666.4000014305116 2602.4000071525575 L 1666.4000014305116 2300.4000064373017 L 1666.4000014305116 2300.4000064373017 A 8 8 0 0 1 1674.4000014305116 2292.4000064373017 L 1996.4000014305116 2292.4000064373017 Z" fill-opacity="1" stroke-opacity="1" stroke-miterlimit="10" stroke-width="5"/><rect fill="rgb(255,255,255)" stroke="none" x="1695.4000014305116" y="2243.4000064373017" width="602" height="96" fill-opacity="1"/><text fill="rgb(0,0,0)" stroke="none" font-family="Avenir, Helvetica, Arial, sans-serif" font-size="32px" font-style="normal" font-weight="bold" text-decoration="normal" x="1996.4000014305116" y="2307.4000064373017" text-anchor="middle" dominant-baseline="text-after-edge" fill-opacity="1">azurerm_virtual_network_peering</text><path fill="rgb(255,255,255)" stroke="rgb(0,0,0)" paint-order="fill stroke markers" d=" M 1996.4000014305116 1636.0000050067902 L 2318.4000014305116 1636.0000050067902 L 2318.4000014305116 1636.0000050067902 A 8 8 0 0 1 2326.4000014305116 1644.0000050067902 L 2326.4000014305116 1818.0000050067902 L 2326.4000014305116 1818.0000050067902 A 8 8 0 0 1 2318.4000014305116 1826.0000050067902 L 1674.4000014305116 1826.0000050067902 L 1674.4000014305116 1826.0000050067902 A 8 8 0 0 1 1666.4000014305116 1818.0000050067902 L 1666.4000014305116 1644.0000050067902 L 1666.4000014305116 1644.0000050067902 A 8 8 0 0 1 1674.4000014305116 1636.0000050067902 L 1996.4000014305116 1636.0000050067902 Z" fill-opacity="1" stroke-opacity="1" stroke-miterlimit="10" stroke-width="5"/><rect fill="rgb(255,255,255)" stroke="none" x="1798.9000014305116" y="1587.0000050067902" width="395" height="96" fill-opacity="1"/><text fill="rgb(0,0,0)" stroke="none" font-family="Avenir, Helvetica, Arial, sans-serif" font-size="32px" font-style="normal" font-weight="bold" text-decoration="normal" x="1996.4000014305116" y="1651.0000050067902" text-anchor="middle" dominant-baseline="text-after-edge" fill-opacity="1">azurerm_route_table</text><path fill="rgb(255,255,255)" stroke="rgb(0,0,0)" paint-order="fill stroke markers" d=" M 400 1964.2000057220457 L 722 1964.2000057220457 L 722 1964.2000057220457 A 8 8 0 0 1 730 1972.2000057220457 L 730 2146.2000057220457 L 730 2146.2000057220457 A 8 8 0 0 1 722 2154.2000057220457 L 78 2154.2000057220457 L 78 2154.2000057220457 A 8 8 0 0 1 70 2146.2000057220457 L 70 1972.2000057220457 L 70 1972.2000057220457 A 8 8 0 0 1 78 1964.2000057220457 L 400 1964.2000057220457 Z" fill-opacity="1" stroke-opacity="1" stroke-miterlimit="10" stroke-width="5"/><rect fill="rgb(255,255,255)" stroke="none" x="193" y="1915.2000057220457" width="414" height="96" fill-opacity="1"/><text fill="rgb(0,0,0)" stroke="none" font-family="Avenir, Helvetica, Arial, sans-serif" font-size="32px" font-style="normal" font-weight="bold" text-decoration="normal" x="400" y="1979.2000057220457" text-anchor="middle" dominant-baseline="text-after-edge" fill-opacity="1">azurerm_nat_gateway</text><path fill="rgb(255,255,255)" stroke="rgb(0,0,0)" paint-order="fill stroke markers" d=" M 400 2748.6000078678135 L 722 2748.6000078678135 L 722 2748.6000078678135 A 8 8 0 0 1 730 2756.6000078678135 L 730 3058.600008583069 L 730 3058.600008583069 A 8 8 0 0 1 722 3066.600008583069 L 78 3066.600008583069 L 78 3066.600008583069 A 8 8 0 0 1 70 3058.600008583069 L 70 2756.6000078678135 L 70 2756.6000078678135 A 8 8 0 0 1 78 2748.6000078678135 L 400 2748.6000078678135 Z" fill-opacity="1" stroke-opacity="1" stroke-miterlimit="10" stroke-width="5"/><rect fill="rgb(255,255,255)" stroke="none" x="166.5" y="2699.6000078678135" width="467" height="96" fill-opacity="1"/><text fill="rgb(0,0,0)" stroke="none" font-family="Avenir, Helvetica, Arial, sans-serif" font-size="32px" font-style="normal" font-weight="bold" text-decoration="normal" x="400" y="2763.6000078678135" text-anchor="middle" dominant-baseline="text-after-edge" fill-opacity="1">azurerm_virtual_network</text><path fill="rgb(255,255,255)" stroke="rgb(0,0,0)" paint-order="fill stroke markers" d=" M 1198.2000007152558 1964.2000057220457 L 1520.2000007152558 1964.2000057220457 L 1520.2000007152558 1964.2000057220457 A 8 8 0 0 1 1528.2000007152558 1972.2000057220457 L 1528.2000007152558 2146.2000057220457 L 1528.2000007152558 2146.2000057220457 A 8 8 0 0 1 1520.2000007152558 2154.2000057220457 L 876.2000007152558 2154.2000057220457 L 876.2000007152558 2154.2000057220457 A 8 8 0 0 1 868.2000007152558 2146.2000057220457 L 868.2000007152558 1972.2000057220457 L 868.2000007152558 1972.2000057220457 A 8 8 0 0 1 876.2000007152558 1964.2000057220457 L 1198.2000007152558 1964.2000057220457 Z" fill-opacity="1" stroke-opacity="1" stroke-miterlimit="10" stroke-width="5"/><rect fill="rgb(255,255,255)" stroke="none" x="968.7000007152558" y="1915.2000057220457" width="459" height="96" fill-opacity="1"/><text fill="rgb(0,0,0)" stroke="none" font-family="Avenir, Helvetica, Arial, sans-serif" font-size="32px" font-style="normal" font-weight="bold" text-decoration="normal" x="1198.2000007152558" y="1979.2000057220457" text-anchor="middle" dominant-baseline="text-after-edge" fill-opacity="1">azurerm_public_ip_prefix</text><path fill="rgb(255,255,255)" stroke="rgb(0,0,0)" paint-order="fill stroke markers" d=" M 1996.4000014305116 1964.2000057220457 L 2318.4000014305116 1964.2000057220457 L 2318.4000014305116 1964.2000057220457 A 8 8 0 0 1 2326.4000014305116 1972.2000057220457 L 2326.4000014305116 2146.2000057220457 L 2326.4000014305116 2146.2000057220457 A 8 8 0 0 1 2318.4000014305116 2154.2000057220457 L 1674.4000014305116 2154.2000057220457 L 1674.4000014305116 2154.2000057220457 A 8 8 0 0 1 1666.4000014305116 2146.2000057220457 L 1666.4000014305116 1972.2000057220457 L 1666.4000014305116 1972.2000057220457 A 8 8 0 0 1 1674.4000014305116 1964.2000057220457 L 1996.4000014305116 1964.2000057220457 Z" fill-opacity="1" stroke-opacity="1" stroke-miterlimit="10" stroke-width="5"/><rect fill="rgb(255,255,255)" stroke="none" x="1639.9000014305116" y="1915.2000057220457" width="713" height="96" fill-opacity="1"/><text fill="rgb(0,0,0)" stroke="none" font-family="Avenir, Helvetica, Arial, sans-serif" font-size="32px" font-style="normal" font-weight="bold" text-decoration="normal" x="1996.4000014305116" y="1979.2000057220457" text-anchor="middle" dominant-baseline="text-after-edge" fill-opacity="1">azurerm_subnet_route_table_association</text><path fill="rgb(255,255,255)" stroke="rgb(0,0,0)" paint-order="fill stroke markers" d=" M 400 2292.4000064373017 L 722 2292.4000064373017 L 722 2292.4000064373017 A 8 8 0 0 1 730 2300.4000064373017 L 730 2474.4000064373017 L 730 2474.4000064373017 A 8 8 0 0 1 722 2482.4000064373017 L 78 2482.4000064373017 L 78 2482.4000064373017 A 8 8 0 0 1 70 2474.4000064373017 L 70 2300.4000064373017 L 70 2300.4000064373017 A 8 8 0 0 1 78 2292.4000064373017 L 400 2292.4000064373017 Z" fill-opacity="1" stroke-opacity="1" stroke-miterlimit="10" stroke-width="5"/><rect fill="rgb(255,255,255)" stroke="none" x="223.5" y="2243.4000064373017" width="353" height="96" fill-opacity="1"/><text fill="rgb(0,0,0)" stroke="none" font-family="Avenir, Helvetica, Arial, sans-serif" font-size="32px" font-style="normal" font-weight="bold" text-decoration="normal" x="400" y="2307.4000064373017" text-anchor="middle" dominant-baseline="text-after-edge" fill-opacity="1">azurerm_public_ip</text><path fill="rgb(255,255,255)" stroke="rgb(0,0,0)" paint-order="fill stroke markers" d=" M 1198.2000007152558 2748.6000078678135 L 1520.2000007152558 2748.6000078678135 L 1520.2000007152558 2748.6000078678135 A 8 8 0 0 1 1528.2000007152558 2756.6000078678135 L 1528.2000007152558 3186.600009298325 L 1528.2000007152558 3186.600009298325 A 8 8 0 0 1 1520.2000007152558 3194.600009298325 L 876.2000007152558 3194.600009298325 L 876.2000007152558 3194.600009298325 A 8 8 0 0 1 868.2000007152558 3186.600009298325 L 868.2000007152558 2756.6000078678135 L 868.2000007152558 2756.6000078678135 A 8 8 0 0 1 876.2000007152558 2748.6000078678135 L 1198.2000007152558 2748.6000078678135 Z" fill-opacity="1" stroke-opacity="1" stroke-miterlimit="10" stroke-width="5"/><rect fill="rgb(255,255,255)" stroke="none" x="1036.7000007152558" y="2699.6000078678135" width="323" height="96" fill-opacity="1"/><text fill="rgb(0,0,0)" stroke="none" font-family="Avenir, Helvetica, Arial, sans-serif" font-size="32px" font-style="normal" font-weight="bold" text-decoration="normal" x="1198.2000007152558" y="2763.6000078678135" text-anchor="middle" dominant-baseline="text-after-edge" fill-opacity="1">azurerm_subnet</text><path fill="rgb(255,255,255)" stroke="rgb(0,0,0)" paint-order="fill stroke markers" d=" M 1198.2000007152558 2292.4000064373017 L 1520.2000007152558 2292.4000064373017 L 1520.2000007152558 2292.4000064373017 A 8 8 0 0 1 1528.2000007152558 2300.4000064373017 L 1528.2000007152558 2474.4000064373017 L 1528.2000007152558 2474.4000064373017 A 8 8 0 0 1 1520.2000007152558 2482.4000064373017 L 876.2000007152558 2482.4000064373017 L 876.2000007152558 2482.4000064373017 A 8 8 0 0 1 868.2000007152558 2474.4000064373017 L 868.2000007152558 2300.4000064373017 L 868.2000007152558 2300.4000064373017 A 8 8 0 0 1 876.2000007152558 2292.4000064373017 L 1198.2000007152558 2292.4000064373017 Z" fill-opacity="1" stroke-opacity="1" stroke-miterlimit="10" stroke-width="5"/><rect fill="rgb(255,255,255)" stroke="none" x="817.2000007152558" y="2243.4000064373017" width="762" height="96" fill-opacity="1"/><text fill="rgb(0,0,0)" stroke="none" font-family="Avenir, Helvetica, Arial, sans-serif" font-size="32px" font-style="normal" font-weight="bold" text-decoration="normal" x="1198.2000007152558" y="2307.4000064373017" text-anchor="middle" dominant-baseline="text-after-edge" fill-opacity="1">azurerm_nat_gateway_public_ip_association</text><path fill="none" stroke="url(#yIvSBfbLHUrb)" paint-order="fill stroke markers" d=" M 1906.0000014305115 1006.5000035762787 L 1906.0000014305115 1969.550006079674 L 1198.2000007152558 1969.550006079674 L 1198.2000007152558 2932.600008583069" stroke-linejoin="round" stroke-miterlimit="10" stroke-width="10"/><path fill="none" stroke="url(#QCAKrMNtodUK)" paint-order="fill stroke markers" d=" M 1303.0000007152557 1139.5000042915344 L 1303.0000007152557 1972.050006079674 L 1198.2000007152558 1972.050006079674 L 1198.2000007152558 2804.6000078678135" stroke-linejoin="round" stroke-miterlimit="10" stroke-width="10"/><path fill="none" stroke="url(#VRCTSGOnuWKT)" paint-order="fill stroke markers" d=" M 1906.0000014305115 1139.5000042915344 L 1906.0000014305115 1972.050006079674 L 1198.2000007152558 1972.050006079674 L 1198.2000007152558 2804.6000078678135" stroke-linejoin="round" stroke-miterlimit="10" stroke-width="10"/><path fill="none" stroke="url(#RUXcHTAWgdkb)" paint-order="fill stroke markers" d=" M 1303.0000007152557 341.5 L 1303.0000007152557 699.0000021457672 L 300 699.0000021457672 L 300 1056.5000042915344" stroke-linejoin="round" stroke-miterlimit="10" stroke-width="10"/><path fill="none" stroke="url(#UAVxLknJGZwp)" paint-order="fill stroke markers" d=" M 1906.0000014305115 341.5 L 1906.0000014305115 1701.0500046491625 L 1198.2000007152558 1701.0500046491625 L 1198.2000007152558 3060.600009298325" stroke-linejoin="round" stroke-miterlimit="10" stroke-width="10"/><path fill="none" stroke="url(#wRVmWfdREKBt)" paint-order="fill stroke markers" d=" M 1303.0000007152557 474.50000071525574 L 1303.0000007152557 765.5000025033951 L 300 765.5000025033951 L 300 1056.5000042915344" stroke-linejoin="round" stroke-miterlimit="10" stroke-width="10"/><path fill="none" stroke="url(#WWfrEfdZDNQe)" paint-order="fill stroke markers" d=" M 1906.0000014305115 474.50000071525574 L 1906.0000014305115 1767.5500050067903 L 1198.2000007152558 1767.5500050067903 L 1198.2000007152558 3060.600009298325" stroke-linejoin="round" stroke-miterlimit="10" stroke-width="10"/><path fill="none" stroke="url(#idrTzIBPAzPp)" paint-order="fill stroke markers" d=" M 1303.0000007152557 607.5000014305115 L 1303.0000007152557 1313.8500035762786 L 1198.2000007152558 1313.8500035762786 L 1198.2000007152558 2020.2000057220457" stroke-linejoin="round" stroke-miterlimit="10" stroke-width="10"/><path fill="none" stroke="url(#JcTeSuuXdBUm)" paint-order="fill stroke markers" d=" M 1906.0000014305115 607.5000014305115 L 1906.0000014305115 1770.0500050067903 L 1198.2000007152558 1770.0500050067903 L 1198.2000007152558 2932.600008583069" stroke-linejoin="round" stroke-miterlimit="10" stroke-width="10"/><path fill="none" stroke="url(#ooZxwqPNVTDf)" paint-order="fill stroke markers" d=" M 1303.0000007152557 740.5000021457672 L 1303.0000007152557 1772.5500050067903 L 400 1772.5500050067903 L 400 2804.6000078678135" stroke-linejoin="round" stroke-miterlimit="10" stroke-width="10"/><path fill="none" stroke="url(#LCvogoVLAMOm)" paint-order="fill stroke markers" d=" M 1906.0000014305115 740.5000021457672 L 1906.0000014305115 1836.5500053644182 L 400 1836.5500053644182 L 400 2932.600008583069" stroke-linejoin="round" stroke-miterlimit="10" stroke-width="10"/><path fill="none" stroke="url(#atnuIgozBRzl)" paint-order="fill stroke markers" d=" M 1303.0000007152557 873.500002861023 L 1303.0000007152557 1903.050005722046 L 400 1903.050005722046 L 400 2932.600008583069" stroke-linejoin="round" stroke-miterlimit="10" stroke-width="10"/><path fill="none" stroke="url(#gqtFTimJwyxS)" paint-order="fill stroke markers" d=" M 1906.0000014305115 873.500002861023 L 1906.0000014305115 1839.0500053644182 L 400 1839.0500053644182 L 400 2804.6000078678135" stroke-linejoin="round" stroke-miterlimit="10" stroke-width="10"/><path fill="none" stroke="url(#gCBqoxNcfnkD)" paint-order="fill stroke markers" d=" M 1303.0000007152557 1006.5000035762787 L 1303.0000007152557 1677.4500050067902 L 400 1677.4500050067902 L 400 2348.4000064373017" stroke-linejoin="round" stroke-miterlimit="10" stroke-width="10"/><path fill="none" stroke="url(#CFowAyWgwVvv)" paint-order="fill stroke markers" d=" M 1198.2000007152558 2348.4000064373017 L 1198.2000007152558 2223.300006079674 L 400 2223.300006079674 L 400 2098.2000057220457" stroke-linejoin="round" stroke-miterlimit="10" stroke-width="10"/><path fill="none" stroke="url(#hbbiffsOWhat)" paint-order="fill stroke markers" d=" M 924.2000007152558 2387.4000064373017 L 799.1000003576278 2387.4000064373017 L 799.1000003576278 2387.4000064373017 L 674 2387.4000064373017" stroke-linejoin="round" stroke-miterlimit="10" stroke-width="10"/><path fill="none" stroke="url(#UxdFAOpENZVO)" paint-order="fill stroke markers" d=" M 924.2000007152558 3099.600009298325 L 799.1000003576278 3099.600009298325 L 799.1000003576278 2971.600008583069 L 674 2971.600008583069" stroke-linejoin="round" stroke-miterlimit="10" stroke-width="10"/><path fill="none" stroke="url(#tEaLvztQUrwp)" paint-order="fill stroke markers" d=" M 1198.2000007152558 3060.600009298325 L 1198.2000007152558 2100.0500067949297 L 300 2100.0500067949297 L 300 1139.5000042915344" stroke-linejoin="round" stroke-miterlimit="10" stroke-width="10"/><path fill="none" stroke="url(#sRhFoGfueuih)" paint-order="fill stroke markers" d=" M 1198.2000007152558 3060.600009298325 L 1198.2000007152558 1967.050006079674 L 300 1967.050006079674 L 300 873.500002861023" stroke-linejoin="round" stroke-miterlimit="10" stroke-width="10"/><path fill="none" stroke="url(#FKNFbUndtsHr)" paint-order="fill stroke markers" d=" M 400 1770.0000050067902 L 400 1895.100005364418 L 400 1895.100005364418 L 400 2020.2000057220457" stroke-linejoin="round" stroke-miterlimit="10" stroke-width="10"/><path fill="none" stroke="url(#bFaDGHPbUllz)" paint-order="fill stroke markers" d=" M 400 1770.0000050067902 L 400 2351.3000067949297 L 1198.2000007152558 2351.3000067949297 L 1198.2000007152558 2932.600008583069" stroke-linejoin="round" stroke-miterlimit="10" stroke-width="10"/><path fill="none" stroke="url(#HUPErEANPgbZ)" paint-order="fill stroke markers" d=" M 924.2000007152558 1731.0000050067902 L 799.1000003576278 1731.0000050067902 L 799.1000003576278 2059.2000057220457 L 674 2059.2000057220457" stroke-linejoin="round" stroke-miterlimit="10" stroke-width="10"/><path fill="none" stroke="url(#mMnExEhamOcA)" paint-order="fill stroke markers" d=" M 1198.2000007152558 1770.0000050067902 L 1198.2000007152558 1895.100005364418 L 1198.2000007152558 1895.100005364418 L 1198.2000007152558 2020.2000057220457" stroke-linejoin="round" stroke-miterlimit="10" stroke-width="10"/><path fill="none" stroke="url(#yMtorKmfTClu)" paint-order="fill stroke markers" d=" M 1722.4000014305116 2387.4000064373017 L 1198.2000007152558 2387.4000064373017 L 1198.2000007152558 2843.6000078678135 L 674 2843.6000078678135" stroke-linejoin="round" stroke-miterlimit="10" stroke-width="10"/><path fill="none" stroke="url(#zzDwiwcrMkyI)" paint-order="fill stroke markers" d=" M 1996.4000014305116 2348.4000064373017 L 1996.4000014305116 1610.9500046491623 L 300 1610.9500046491623 L 300 873.500002861023" stroke-linejoin="round" stroke-miterlimit="10" stroke-width="10"/><path fill="none" stroke="url(#mHxtLUTFFwwi)" paint-order="fill stroke markers" d=" M 1722.4000014305116 2387.4000064373017 L 1198.2000007152558 2387.4000064373017 L 1198.2000007152558 2971.600008583069 L 674 2971.600008583069" stroke-linejoin="round" stroke-miterlimit="10" stroke-width="10"/><path fill="none" stroke="url(#HvSznOZZDGva)" paint-order="fill stroke markers" d=" M 1722.4000014305116 1731.0000050067902 L 1149.4500007152558 1731.0000050067902 L 1149.4500007152558 965.0000035762787 L 576.5 965.0000035762787" stroke-linejoin="round" stroke-miterlimit="10" stroke-width="10"/><path fill="none" stroke="url(#vPyqSgTgPHsG)" paint-order="fill stroke markers" d=" M 1722.4000014305116 1731.0000050067902 L 1149.4500007152558 1731.0000050067902 L 1149.4500007152558 566.0000014305115 L 576.5 566.0000014305115" stroke-linejoin="round" stroke-miterlimit="10" stroke-width="10"/><path fill="none" stroke="url(#UZIFklpdezMc)" paint-order="fill stroke markers" d=" M 1722.4000014305116 1731.0000050067902 L 1149.4500007152558 1731.0000050067902 L 1149.4500007152558 832.000002861023 L 576.5 832.000002861023" stroke-linejoin="round" stroke-miterlimit="10" stroke-width="10"/><path fill="none" stroke="url(#gxdJAztSVhGw)" paint-order="fill stroke markers" d=" M 1722.4000014305116 1731.0000050067902 L 1198.2000007152558 1731.0000050067902 L 1198.2000007152558 2387.4000064373017 L 674 2387.4000064373017" stroke-linejoin="round" stroke-miterlimit="10" stroke-width="10"/><path fill="none" stroke="url(#DDcCRwhCdgGv)" paint-order="fill stroke markers" d=" M 1722.4000014305116 1731.0000050067902 L 1149.4500007152558 1731.0000050067902 L 1149.4500007152558 699.0000021457672 L 576.5 699.0000021457672" stroke-linejoin="round" stroke-miterlimit="10" stroke-width="10"/><path fill="none" stroke="url(#bpxTaiLzKNdg)" paint-order="fill stroke markers" d=" M 400 2020.2000057220457 L 400 1513.3500046491622 L 300 1513.3500046491622 L 300 1006.5000035762787" stroke-linejoin="round" stroke-miterlimit="10" stroke-width="10"/><path fill="none" stroke="url(#TXcrzqedmDyB)" paint-order="fill stroke markers" d=" M 400 2020.2000057220457 L 400 1313.8500035762786 L 300 1313.8500035762786 L 300 607.5000014305115" stroke-linejoin="round" stroke-miterlimit="10" stroke-width="10"/><path fill="none" stroke="url(#gtGFDftwZNkK)" paint-order="fill stroke markers" d=" M 400 2020.2000057220457 L 400 1446.8500042915343 L 300 1446.8500042915343 L 300 873.500002861023" stroke-linejoin="round" stroke-miterlimit="10" stroke-width="10"/><path fill="none" stroke="url(#MBwxMbIetzIp)" paint-order="fill stroke markers" d=" M 400 2804.6000078678135 L 400 1573.0500039339067 L 300 1573.0500039339067 L 300 341.5" stroke-linejoin="round" stroke-miterlimit="10" stroke-width="10"/><path fill="none" stroke="url(#XoZpPzZdprwr)" paint-order="fill stroke markers" d=" M 400 2804.6000078678135 L 400 1905.550005722046 L 300 1905.550005722046 L 300 1006.5000035762787" stroke-linejoin="round" stroke-miterlimit="10" stroke-width="10"/><path fill="none" stroke="url(#lxFTHgoJmWdO)" paint-order="fill stroke markers" d=" M 400 2804.6000078678135 L 400 1706.0500046491625 L 300 1706.0500046491625 L 300 607.5000014305115" stroke-linejoin="round" stroke-miterlimit="10" stroke-width="10"/><path fill="none" stroke="url(#nFuhKvrvXqmr)" paint-order="fill stroke markers" d=" M 400 2804.6000078678135 L 400 1839.0500053644182 L 300 1839.0500053644182 L 300 873.500002861023" stroke-linejoin="round" stroke-miterlimit="10" stroke-width="10"/><path fill="none" stroke="url(#htfFDXmBALRT)" paint-order="fill stroke markers" d=" M 400 2804.6000078678135 L 400 1772.5500050067903 L 300 1772.5500050067903 L 300 740.5000021457672" stroke-linejoin="round" stroke-miterlimit="10" stroke-width="10"/><path fill="none" stroke="url(#ktRCTvCQxSsv)" paint-order="fill stroke markers" d=" M 1198.2000007152558 2020.2000057220457 L 1198.2000007152558 1446.8500042915343 L 300 1446.8500042915343 L 300 873.500002861023" stroke-linejoin="round" stroke-miterlimit="10" stroke-width="10"/><path fill="none" stroke="url(#rTbFZBExeaNZ)" paint-order="fill stroke markers" d=" M 1198.2000007152558 2020.2000057220457 L 1198.2000007152558 1513.3500046491622 L 300 1513.3500046491622 L 300 1006.5000035762787" stroke-linejoin="round" stroke-miterlimit="10" stroke-width="10"/><path fill="none" stroke="url(#anltmbQvGWEs)" paint-order="fill stroke markers" d=" M 1198.2000007152558 2020.2000057220457 L 1198.2000007152558 1313.8500035762786 L 300 1313.8500035762786 L 300 607.5000014305115" stroke-linejoin="round" stroke-miterlimit="10" stroke-width="10"/><path fill="none" stroke="url(#ATlavSZMbwxG)" paint-order="fill stroke markers" d=" M 1198.2000007152558 2932.600008583069 L 1198.2000007152558 1637.0500042915346 L 300 1637.0500042915346 L 300 341.5" stroke-linejoin="round" stroke-miterlimit="10" stroke-width="10"/><path fill="none" stroke="url(#FhTEZJVvQDtQ)" paint-order="fill stroke markers" d=" M 1198.2000007152558 2932.600008583069 L 1198.2000007152558 1770.0500050067903 L 300 1770.0500050067903 L 300 607.5000014305115" stroke-linejoin="round" stroke-miterlimit="10" stroke-width="10"/><path fill="none" stroke="url(#yRQIRFUXBgzW)" paint-order="fill stroke markers" d=" M 1198.2000007152558 2932.600008583069 L 1198.2000007152558 1903.050005722046 L 300 1903.050005722046 L 300 873.500002861023" stroke-linejoin="round" stroke-miterlimit="10" stroke-width="10"/><path fill="none" stroke="url(#LomXICysGrkQ)" paint-order="fill stroke markers" d=" M 924.2000007152558 2971.600008583069 L 799.1000003576278 2971.600008583069 L 799.1000003576278 2843.6000078678135 L 674 2843.6000078678135" stroke-linejoin="round" stroke-miterlimit="10" stroke-width="10"/><path fill="none" stroke="url(#STqtWVWhOeXm)" paint-order="fill stroke markers" d=" M 400 2932.600008583069 L 400 1903.050005722046 L 300 1903.050005722046 L 300 873.500002861023" stroke-linejoin="round" stroke-miterlimit="10" stroke-width="10"/><path fill="none" stroke="url(#UQqhVGOfpzBi)" paint-order="fill stroke markers" d=" M 400 2932.600008583069 L 400 1836.5500053644182 L 300 1836.5500053644182 L 300 740.5000021457672" stroke-linejoin="round" stroke-miterlimit="10" stroke-width="10"/><path fill="none" stroke="url(#eFHmrMmfPOHP)" paint-order="fill stroke markers" d=" M 400 2932.600008583069 L 400 2036.0500064373018 L 300 2036.0500064373018 L 300 1139.5000042915344" stroke-linejoin="round" stroke-miterlimit="10" stroke-width="10"/><path fill="none" stroke="url(#xczEhGDbXVIx)" paint-order="fill stroke markers" d=" M 400 2932.600008583069 L 400 1969.550006079674 L 300 1969.550006079674 L 300 1006.5000035762787" stroke-linejoin="round" stroke-miterlimit="10" stroke-width="10"/><path fill="none" stroke="url(#TOwMplPEduwz)" paint-order="fill stroke markers" d=" M 400 2932.600008583069 L 400 1770.0500050067903 L 300 1770.0500050067903 L 300 607.5000014305115" stroke-linejoin="round" stroke-miterlimit="10" stroke-width="10"/><path fill="none" stroke="url(#etPNDRCNxylH)" paint-order="fill stroke markers" d=" M 1996.4000014305116 2020.2000057220457 L 1996.4000014305116 1895.100005364418 L 1996.4000014305116 1895.100005364418 L 1996.4000014305116 1770.0000050067902" stroke-linejoin="round" stroke-miterlimit="10" stroke-width="10"/><path fill="none" stroke="url(#OnCaTDQbXCFt)" paint-order="fill stroke markers" d=" M 1996.4000014305116 2098.2000057220457 L 1996.4000014305116 2579.4000075101853 L 1198.2000007152558 2579.4000075101853 L 1198.2000007152558 3060.600009298325" stroke-linejoin="round" stroke-miterlimit="10" stroke-width="10"/><path fill="none" stroke="url(#DXGqOPDxMJed)" paint-order="fill stroke markers" d=" M 1722.4000014305116 2515.4000071525575 L 1198.2000007152558 2515.4000071525575 L 1198.2000007152558 2843.6000078678135 L 674 2843.6000078678135" stroke-linejoin="round" stroke-miterlimit="10" stroke-width="10"/><path fill="none" stroke="url(#tTZBoFZmVAvg)" paint-order="fill stroke markers" d=" M 1722.4000014305116 2515.4000071525575 L 1198.2000007152558 2515.4000071525575 L 1198.2000007152558 2971.600008583069 L 674 2971.600008583069" stroke-linejoin="round" stroke-miterlimit="10" stroke-width="10"/><path fill="none" stroke="url(#WdTcnJiSFfPd)" paint-order="fill stroke markers" d=" M 1996.4000014305116 2476.4000071525575 L 1996.4000014305116 1674.9500050067902 L 300 1674.9500050067902 L 300 873.500002861023" stroke-linejoin="round" stroke-miterlimit="10" stroke-width="10"/><path fill="none" stroke="url(#HsqWyUildRAt)" paint-order="fill stroke markers" d=" M 400 2348.4000064373017 L 400 1610.9500046491623 L 300 1610.9500046491623 L 300 873.500002861023" stroke-linejoin="round" stroke-miterlimit="10" stroke-width="10"/><path fill="none" stroke="url(#rWETFWQZvbmv)" paint-order="fill stroke markers" d=" M 400 2348.4000064373017 L 400 1677.4500050067902 L 300 1677.4500050067902 L 300 1006.5000035762787" stroke-linejoin="round" stroke-miterlimit="10" stroke-width="10"/><path fill="none" stroke="url(#RiTEfpEvdTAn)" paint-order="fill stroke markers" d=" M 400 2348.4000064373017 L 400 1477.9500039339066 L 300 1477.9500039339066 L 300 607.5000014305115" stroke-linejoin="round" stroke-miterlimit="10" stroke-width="10"/><path fill="none" stroke="url(#cSWOphWMBPiL)" paint-order="fill stroke markers" d=" M 1198.2000007152558 2804.6000078678135 L 1198.2000007152558 1972.050006079674 L 300 1972.050006079674 L 300 1139.5000042915344" stroke-linejoin="round" stroke-miterlimit="10" stroke-width="10"/><path fill="none" stroke="url(#mTiJsrJCRegf)" paint-order="fill stroke markers" d=" M 1198.2000007152558 2804.6000078678135 L 1198.2000007152558 1839.0500053644182 L 300 1839.0500053644182 L 300 873.500002861023" stroke-linejoin="round" stroke-miterlimit="10" stroke-width="10"/><path fill="none" stroke="url(#GHIZgelxfDaJ)" paint-order="fill stroke markers" d=" M 924.2000007152558 2843.6000078678135 L 799.1000003576278 2843.6000078678135 L 799.1000003576278 2971.600008583069 L 674 2971.600008583069" stroke-linejoin="round" stroke-miterlimit="10" stroke-width="10"/><path fill="rgb(255,247,224)" stroke="rgb(255,193,7)" paint-order="fill stroke markers" d=" M 1303.0000007152557 261 L 1569.0000007152557 261 L 1569.0000007152557 261 A 8 8 0 0 1 1577.0000007152557 269 L 1577.0000007152557 331 L 1577.0000007152557 331 A 8 8 0 0 1 1569.0000007152557 339 L 1037.0000007152557 339 L 1037.0000007152557 339 A 8 8 0 0 1 1029.0000007152557 331 L 1029.0000007152557 269 L 1029.0000007152557 269 A 8 8 0 0 1 1037.0000007152557 261 L 1303.0000007152557 261 Z" fill-opacity="1" stroke-opacity="1" stroke-miterlimit="10" stroke-width="5"/><text fill="rgb(0,0,0)" stroke="none" font-family="Avenir, Helvetica, Arial, sans-serif" font-size="32px" font-style="normal" font-weight="bold" text-decoration="normal" x="1303.0000007152557" y="316" text-anchor="middle" dominant-baseline="text-after-edge" fill-opacity="1">hub1_natgwvnet_vpc_cidr</text><path fill="rgb(255,247,224)" stroke="rgb(255,193,7)" paint-order="fill stroke markers" d=" M 1906.0000014305115 261 L 2172.0000014305115 261 L 2172.0000014305115 261 A 8 8 0 0 1 2180.0000014305115 269 L 2180.0000014305115 331 L 2180.0000014305115 331 A 8 8 0 0 1 2172.0000014305115 339 L 1640.0000014305115 339 L 1640.0000014305115 339 A 8 8 0 0 1 1632.0000014305115 331 L 1632.0000014305115 269 L 1632.0000014305115 269 A 8 8 0 0 1 1640.0000014305115 261 L 1906.0000014305115 261 Z" fill-opacity="1" stroke-opacity="1" stroke-miterlimit="10" stroke-width="5"/><text fill="rgb(0,0,0)" stroke="none" font-family="Avenir, Helvetica, Arial, sans-serif" font-size="32px" font-style="normal" font-weight="bold" text-decoration="normal" x="1906.0000014305115" y="316" text-anchor="middle" dominant-baseline="text-after-edge" fill-opacity="1">aks_subnet_address_prefixes</text><path fill="rgb(255,247,224)" stroke="rgb(255,193,7)" paint-order="fill stroke markers" d=" M 1303.0000007152557 394.00000071525574 L 1569.0000007152557 394.00000071525574 L 1569.0000007152557 394.00000071525574 A 8 8 0 0 1 1577.0000007152557 402.00000071525574 L 1577.0000007152557 464.00000071525574 L 1577.0000007152557 464.00000071525574 A 8 8 0 0 1 1569.0000007152557 472.00000071525574 L 1037.0000007152557 472.00000071525574 L 1037.0000007152557 472.00000071525574 A 8 8 0 0 1 1029.0000007152557 464.00000071525574 L 1029.0000007152557 402.00000071525574 L 1029.0000007152557 402.00000071525574 A 8 8 0 0 1 1037.0000007152557 394.00000071525574 L 1303.0000007152557 394.00000071525574 Z" fill-opacity="1" stroke-opacity="1" stroke-miterlimit="10" stroke-width="5"/><text fill="rgb(0,0,0)" stroke="none" font-family="Avenir, Helvetica, Arial, sans-serif" font-size="32px" font-style="normal" font-weight="bold" text-decoration="normal" x="1303.0000007152557" y="449.00000071525574" text-anchor="middle" dominant-baseline="text-after-edge" fill-opacity="1">spoke1_kubevnet_vpc_cidr</text><path fill="rgb(255,247,224)" stroke="rgb(255,193,7)" paint-order="fill stroke markers" d=" M 1906.0000014305115 394.00000071525574 L 2172.0000014305115 394.00000071525574 L 2172.0000014305115 394.00000071525574 A 8 8 0 0 1 2180.0000014305115 402.00000071525574 L 2180.0000014305115 464.00000071525574 L 2180.0000014305115 464.00000071525574 A 8 8 0 0 1 2172.0000014305115 472.00000071525574 L 1640.0000014305115 472.00000071525574 L 1640.0000014305115 472.00000071525574 A 8 8 0 0 1 1632.0000014305115 464.00000071525574 L 1632.0000014305115 402.00000071525574 L 1632.0000014305115 402.00000071525574 A 8 8 0 0 1 1640.0000014305115 394.00000071525574 L 1906.0000014305115 394.00000071525574 Z" fill-opacity="1" stroke-opacity="1" stroke-miterlimit="10" stroke-width="5"/><text fill="rgb(0,0,0)" stroke="none" font-family="Avenir, Helvetica, Arial, sans-serif" font-size="32px" font-style="normal" font-weight="bold" text-decoration="normal" x="1906.0000014305115" y="449.00000071525574" text-anchor="middle" dominant-baseline="text-after-edge" fill-opacity="1">aks_subnet_id</text><path fill="rgb(255,247,224)" stroke="rgb(255,193,7)" paint-order="fill stroke markers" d=" M 1303.0000007152557 527.0000014305115 L 1569.0000007152557 527.0000014305115 L 1569.0000007152557 527.0000014305115 A 8 8 0 0 1 1577.0000007152557 535.0000014305115 L 1577.0000007152557 597.0000014305115 L 1577.0000007152557 597.0000014305115 A 8 8 0 0 1 1569.0000007152557 605.0000014305115 L 1037.0000007152557 605.0000014305115 L 1037.0000007152557 605.0000014305115 A 8 8 0 0 1 1029.0000007152557 597.0000014305115 L 1029.0000007152557 535.0000014305115 L 1029.0000007152557 535.0000014305115 A 8 8 0 0 1 1037.0000007152557 527.0000014305115 L 1303.0000007152557 527.0000014305115 Z" fill-opacity="1" stroke-opacity="1" stroke-miterlimit="10" stroke-width="5"/><text fill="rgb(0,0,0)" stroke="none" font-family="Avenir, Helvetica, Arial, sans-serif" font-size="32px" font-style="normal" font-weight="bold" text-decoration="normal" x="1303.0000007152557" y="582.0000014305115" text-anchor="middle" dominant-baseline="text-after-edge" fill-opacity="1">natgw_public_ip_prefix</text><path fill="rgb(255,247,224)" stroke="rgb(255,193,7)" paint-order="fill stroke markers" d=" M 1906.0000014305115 527.0000014305115 L 2172.0000014305115 527.0000014305115 L 2172.0000014305115 527.0000014305115 A 8 8 0 0 1 2180.0000014305115 535.0000014305115 L 2180.0000014305115 597.0000014305115 L 2180.0000014305115 597.0000014305115 A 8 8 0 0 1 2172.0000014305115 605.0000014305115 L 1640.0000014305115 605.0000014305115 L 1640.0000014305115 605.0000014305115 A 8 8 0 0 1 1632.0000014305115 597.0000014305115 L 1632.0000014305115 535.0000014305115 L 1632.0000014305115 535.0000014305115 A 8 8 0 0 1 1640.0000014305115 527.0000014305115 L 1906.0000014305115 527.0000014305115 Z" fill-opacity="1" stroke-opacity="1" stroke-miterlimit="10" stroke-width="5"/><text fill="rgb(0,0,0)" stroke="none" font-family="Avenir, Helvetica, Arial, sans-serif" font-size="32px" font-style="normal" font-weight="bold" text-decoration="normal" x="1906.0000014305115" y="582.0000014305115" text-anchor="middle" dominant-baseline="text-after-edge" fill-opacity="1">natgw_subnet_id</text><path fill="rgb(255,247,224)" stroke="rgb(255,193,7)" paint-order="fill stroke markers" d=" M 1303.0000007152557 660.0000021457672 L 1569.0000007152557 660.0000021457672 L 1569.0000007152557 660.0000021457672 A 8 8 0 0 1 1577.0000007152557 668.0000021457672 L 1577.0000007152557 730.0000021457672 L 1577.0000007152557 730.0000021457672 A 8 8 0 0 1 1569.0000007152557 738.0000021457672 L 1037.0000007152557 738.0000021457672 L 1037.0000007152557 738.0000021457672 A 8 8 0 0 1 1029.0000007152557 730.0000021457672 L 1029.0000007152557 668.0000021457672 L 1029.0000007152557 668.0000021457672 A 8 8 0 0 1 1037.0000007152557 660.0000021457672 L 1303.0000007152557 660.0000021457672 Z" fill-opacity="1" stroke-opacity="1" stroke-miterlimit="10" stroke-width="5"/><text fill="rgb(0,0,0)" stroke="none" font-family="Avenir, Helvetica, Arial, sans-serif" font-size="32px" font-style="normal" font-weight="bold" text-decoration="normal" x="1303.0000007152557" y="715.0000021457672" text-anchor="middle" dominant-baseline="text-after-edge" fill-opacity="1">hub1_natgwvnet_address_space</text><path fill="rgb(255,247,224)" stroke="rgb(255,193,7)" paint-order="fill stroke markers" d=" M 1906.0000014305115 660.0000021457672 L 2172.0000014305115 660.0000021457672 L 2172.0000014305115 660.0000021457672 A 8 8 0 0 1 2180.0000014305115 668.0000021457672 L 2180.0000014305115 730.0000021457672 L 2180.0000014305115 730.0000021457672 A 8 8 0 0 1 2172.0000014305115 738.0000021457672 L 1640.0000014305115 738.0000021457672 L 1640.0000014305115 738.0000021457672 A 8 8 0 0 1 1632.0000014305115 730.0000021457672 L 1632.0000014305115 668.0000021457672 L 1632.0000014305115 668.0000021457672 A 8 8 0 0 1 1640.0000014305115 660.0000021457672 L 1906.0000014305115 660.0000021457672 Z" fill-opacity="1" stroke-opacity="1" stroke-miterlimit="10" stroke-width="5"/><text fill="rgb(0,0,0)" stroke="none" font-family="Avenir, Helvetica, Arial, sans-serif" font-size="32px" font-style="normal" font-weight="bold" text-decoration="normal" x="1906.0000014305115" y="715.0000021457672" text-anchor="middle" dominant-baseline="text-after-edge" fill-opacity="1">spoke1_kubevnet_network_name</text><path fill="rgb(255,247,224)" stroke="rgb(255,193,7)" paint-order="fill stroke markers" d=" M 1303.0000007152557 793.000002861023 L 1569.0000007152557 793.000002861023 L 1569.0000007152557 793.000002861023 A 8 8 0 0 1 1577.0000007152557 801.000002861023 L 1577.0000007152557 863.000002861023 L 1577.0000007152557 863.000002861023 A 8 8 0 0 1 1569.0000007152557 871.000002861023 L 1037.0000007152557 871.000002861023 L 1037.0000007152557 871.000002861023 A 8 8 0 0 1 1029.0000007152557 863.000002861023 L 1029.0000007152557 801.000002861023 L 1029.0000007152557 801.000002861023 A 8 8 0 0 1 1037.0000007152557 793.000002861023 L 1303.0000007152557 793.000002861023 Z" fill-opacity="1" stroke-opacity="1" stroke-miterlimit="10" stroke-width="5"/><text fill="rgb(0,0,0)" stroke="none" font-family="Avenir, Helvetica, Arial, sans-serif" font-size="32px" font-style="normal" font-weight="bold" text-decoration="normal" x="1303.0000007152557" y="848.000002861023" text-anchor="middle" dominant-baseline="text-after-edge" fill-opacity="1">spoke1_kubevnet_address_space</text><path fill="rgb(255,247,224)" stroke="rgb(255,193,7)" paint-order="fill stroke markers" d=" M 1906.0000014305115 793.000002861023 L 2172.0000014305115 793.000002861023 L 2172.0000014305115 793.000002861023 A 8 8 0 0 1 2180.0000014305115 801.000002861023 L 2180.0000014305115 863.000002861023 L 2180.0000014305115 863.000002861023 A 8 8 0 0 1 2172.0000014305115 871.000002861023 L 1640.0000014305115 871.000002861023 L 1640.0000014305115 871.000002861023 A 8 8 0 0 1 1632.0000014305115 863.000002861023 L 1632.0000014305115 801.000002861023 L 1632.0000014305115 801.000002861023 A 8 8 0 0 1 1640.0000014305115 793.000002861023 L 1906.0000014305115 793.000002861023 Z" fill-opacity="1" stroke-opacity="1" stroke-miterlimit="10" stroke-width="5"/><text fill="rgb(0,0,0)" stroke="none" font-family="Avenir, Helvetica, Arial, sans-serif" font-size="32px" font-style="normal" font-weight="bold" text-decoration="normal" x="1906.0000014305115" y="848.000002861023" text-anchor="middle" dominant-baseline="text-after-edge" fill-opacity="1">hub1_natgwvnet_network_name</text><path fill="rgb(255,247,224)" stroke="rgb(255,193,7)" paint-order="fill stroke markers" d=" M 1303.0000007152557 926.0000035762787 L 1569.0000007152557 926.0000035762787 L 1569.0000007152557 926.0000035762787 A 8 8 0 0 1 1577.0000007152557 934.0000035762787 L 1577.0000007152557 996.0000035762787 L 1577.0000007152557 996.0000035762787 A 8 8 0 0 1 1569.0000007152557 1004.0000035762787 L 1037.0000007152557 1004.0000035762787 L 1037.0000007152557 1004.0000035762787 A 8 8 0 0 1 1029.0000007152557 996.0000035762787 L 1029.0000007152557 934.0000035762787 L 1029.0000007152557 934.0000035762787 A 8 8 0 0 1 1037.0000007152557 926.0000035762787 L 1303.0000007152557 926.0000035762787 Z" fill-opacity="1" stroke-opacity="1" stroke-miterlimit="10" stroke-width="5"/><text fill="rgb(0,0,0)" stroke="none" font-family="Avenir, Helvetica, Arial, sans-serif" font-size="32px" font-style="normal" font-weight="bold" text-decoration="normal" x="1303.0000007152557" y="981.0000035762787" text-anchor="middle" dominant-baseline="text-after-edge" fill-opacity="1">natgw_public_ip_address</text><path fill="rgb(255,247,224)" stroke="rgb(255,193,7)" paint-order="fill stroke markers" d=" M 1906.0000014305115 926.0000035762787 L 2172.0000014305115 926.0000035762787 L 2172.0000014305115 926.0000035762787 A 8 8 0 0 1 2180.0000014305115 934.0000035762787 L 2180.0000014305115 996.0000035762787 L 2180.0000014305115 996.0000035762787 A 8 8 0 0 1 2172.0000014305115 1004.0000035762787 L 1640.0000014305115 1004.0000035762787 L 1640.0000014305115 1004.0000035762787 A 8 8 0 0 1 1632.0000014305115 996.0000035762787 L 1632.0000014305115 934.0000035762787 L 1632.0000014305115 934.0000035762787 A 8 8 0 0 1 1640.0000014305115 926.0000035762787 L 1906.0000014305115 926.0000035762787 Z" fill-opacity="1" stroke-opacity="1" stroke-miterlimit="10" stroke-width="5"/><text fill="rgb(0,0,0)" stroke="none" font-family="Avenir, Helvetica, Arial, sans-serif" font-size="32px" font-style="normal" font-weight="bold" text-decoration="normal" x="1906.0000014305115" y="981.0000035762787" text-anchor="middle" dominant-baseline="text-after-edge" fill-opacity="1">natgw_subnet_address_prefixes</text><path fill="rgb(255,247,224)" stroke="rgb(255,193,7)" paint-order="fill stroke markers" d=" M 1303.0000007152557 1059.0000042915344 L 1569.0000007152557 1059.0000042915344 L 1569.0000007152557 1059.0000042915344 A 8 8 0 0 1 1577.0000007152557 1067.0000042915344 L 1577.0000007152557 1129.0000042915344 L 1577.0000007152557 1129.0000042915344 A 8 8 0 0 1 1569.0000007152557 1137.0000042915344 L 1037.0000007152557 1137.0000042915344 L 1037.0000007152557 1137.0000042915344 A 8 8 0 0 1 1029.0000007152557 1129.0000042915344 L 1029.0000007152557 1067.0000042915344 L 1029.0000007152557 1067.0000042915344 A 8 8 0 0 1 1037.0000007152557 1059.0000042915344 L 1303.0000007152557 1059.0000042915344 Z" fill-opacity="1" stroke-opacity="1" stroke-miterlimit="10" stroke-width="5"/><text fill="rgb(0,0,0)" stroke="none" font-family="Avenir, Helvetica, Arial, sans-serif" font-size="32px" font-style="normal" font-weight="bold" text-decoration="normal" x="1303.0000007152557" y="1114.0000042915344" text-anchor="middle" dominant-baseline="text-after-edge" fill-opacity="1">ingress_subnet_address_prefixes</text><path fill="rgb(255,247,224)" stroke="rgb(255,193,7)" paint-order="fill stroke markers" d=" M 1906.0000014305115 1059.0000042915344 L 2172.0000014305115 1059.0000042915344 L 2172.0000014305115 1059.0000042915344 A 8 8 0 0 1 2180.0000014305115 1067.0000042915344 L 2180.0000014305115 1129.0000042915344 L 2180.0000014305115 1129.0000042915344 A 8 8 0 0 1 2172.0000014305115 1137.0000042915344 L 1640.0000014305115 1137.0000042915344 L 1640.0000014305115 1137.0000042915344 A 8 8 0 0 1 1632.0000014305115 1129.0000042915344 L 1632.0000014305115 1067.0000042915344 L 1632.0000014305115 1067.0000042915344 A 8 8 0 0 1 1640.0000014305115 1059.0000042915344 L 1906.0000014305115 1059.0000042915344 Z" fill-opacity="1" stroke-opacity="1" stroke-miterlimit="10" stroke-width="5"/><text fill="rgb(0,0,0)" stroke="none" font-family="Avenir, Helvetica, Arial, sans-serif" font-size="32px" font-style="normal" font-weight="bold" text-decoration="normal" x="1906.0000014305115" y="1114.0000042915344" text-anchor="middle" dominant-baseline="text-after-edge" fill-opacity="1">ingress_subnet_id</text><path fill="rgb(225,240,255)" stroke="rgb(29,122,218)" paint-order="fill stroke markers" d=" M 300 261 L 566 261 L 566 261 A 8 8 0 0 1 574 269 L 574 331 L 574 331 A 8 8 0 0 1 566 339 L 34 339 L 34 339 A 8 8 0 0 1 26 331 L 26 269 L 26 269 A 8 8 0 0 1 34 261 L 300 261 Z" fill-opacity="1" stroke-opacity="1" stroke-miterlimit="10" stroke-width="5"/><text fill="rgb(0,0,0)" stroke="none" font-family="Avenir, Helvetica, Arial, sans-serif" font-size="32px" font-style="normal" font-weight="bold" text-decoration="normal" x="300" y="316" text-anchor="middle" dominant-baseline="text-after-edge" fill-opacity="1">vpc_cidr_hub</text><path fill="rgb(225,240,255)" stroke="rgb(29,122,218)" paint-order="fill stroke markers" d=" M 300 394.00000071525574 L 566 394.00000071525574 L 566 394.00000071525574 A 8 8 0 0 1 574 402.00000071525574 L 574 464.00000071525574 L 574 464.00000071525574 A 8 8 0 0 1 566 472.00000071525574 L 34 472.00000071525574 L 34 472.00000071525574 A 8 8 0 0 1 26 464.00000071525574 L 26 402.00000071525574 L 26 402.00000071525574 A 8 8 0 0 1 34 394.00000071525574 L 300 394.00000071525574 Z" fill-opacity="1" stroke-opacity="1" stroke-miterlimit="10" stroke-width="5"/><text fill="rgb(0,0,0)" stroke="none" font-family="Avenir, Helvetica, Arial, sans-serif" font-size="32px" font-style="normal" font-weight="bold" text-decoration="normal" x="300" y="449.00000071525574" text-anchor="middle" dominant-baseline="text-after-edge" fill-opacity="1">single_nat_gateway</text><path fill="rgb(225,240,255)" stroke="rgb(29,122,218)" paint-order="fill stroke markers" d=" M 300 527.0000014305115 L 566 527.0000014305115 L 566 527.0000014305115 A 8 8 0 0 1 574 535.0000014305115 L 574 597.0000014305115 L 574 597.0000014305115 A 8 8 0 0 1 566 605.0000014305115 L 34 605.0000014305115 L 34 605.0000014305115 A 8 8 0 0 1 26 597.0000014305115 L 26 535.0000014305115 L 26 535.0000014305115 A 8 8 0 0 1 34 527.0000014305115 L 300 527.0000014305115 Z" fill-opacity="1" stroke-opacity="1" stroke-miterlimit="10" stroke-width="5"/><text fill="rgb(0,0,0)" stroke="none" font-family="Avenir, Helvetica, Arial, sans-serif" font-size="32px" font-style="normal" font-weight="bold" text-decoration="normal" x="300" y="582.0000014305115" text-anchor="middle" dominant-baseline="text-after-edge" fill-opacity="1">name</text><path fill="rgb(225,240,255)" stroke="rgb(29,122,218)" paint-order="fill stroke markers" d=" M 300 660.0000021457672 L 566 660.0000021457672 L 566 660.0000021457672 A 8 8 0 0 1 574 668.0000021457672 L 574 730.0000021457672 L 574 730.0000021457672 A 8 8 0 0 1 566 738.0000021457672 L 34 738.0000021457672 L 34 738.0000021457672 A 8 8 0 0 1 26 730.0000021457672 L 26 668.0000021457672 L 26 668.0000021457672 A 8 8 0 0 1 34 660.0000021457672 L 300 660.0000021457672 Z" fill-opacity="1" stroke-opacity="1" stroke-miterlimit="10" stroke-width="5"/><text fill="rgb(0,0,0)" stroke="none" font-family="Avenir, Helvetica, Arial, sans-serif" font-size="32px" font-style="normal" font-weight="bold" text-decoration="normal" x="300" y="715.0000021457672" text-anchor="middle" dominant-baseline="text-after-edge" fill-opacity="1">tags</text><path fill="rgb(225,240,255)" stroke="rgb(29,122,218)" paint-order="fill stroke markers" d=" M 300 793.000002861023 L 566 793.000002861023 L 566 793.000002861023 A 8 8 0 0 1 574 801.000002861023 L 574 863.000002861023 L 574 863.000002861023 A 8 8 0 0 1 566 871.000002861023 L 34 871.000002861023 L 34 871.000002861023 A 8 8 0 0 1 26 863.000002861023 L 26 801.000002861023 L 26 801.000002861023 A 8 8 0 0 1 34 793.000002861023 L 300 793.000002861023 Z" fill-opacity="1" stroke-opacity="1" stroke-miterlimit="10" stroke-width="5"/><text fill="rgb(0,0,0)" stroke="none" font-family="Avenir, Helvetica, Arial, sans-serif" font-size="32px" font-style="normal" font-weight="bold" text-decoration="normal" x="300" y="848.000002861023" text-anchor="middle" dominant-baseline="text-after-edge" fill-opacity="1">rg_name</text><path fill="rgb(225,240,255)" stroke="rgb(29,122,218)" paint-order="fill stroke markers" d=" M 300 926.0000035762787 L 566 926.0000035762787 L 566 926.0000035762787 A 8 8 0 0 1 574 934.0000035762787 L 574 996.0000035762787 L 574 996.0000035762787 A 8 8 0 0 1 566 1004.0000035762787 L 34 1004.0000035762787 L 34 1004.0000035762787 A 8 8 0 0 1 26 996.0000035762787 L 26 934.0000035762787 L 26 934.0000035762787 A 8 8 0 0 1 34 926.0000035762787 L 300 926.0000035762787 Z" fill-opacity="1" stroke-opacity="1" stroke-miterlimit="10" stroke-width="5"/><text fill="rgb(0,0,0)" stroke="none" font-family="Avenir, Helvetica, Arial, sans-serif" font-size="32px" font-style="normal" font-weight="bold" text-decoration="normal" x="300" y="981.0000035762787" text-anchor="middle" dominant-baseline="text-after-edge" fill-opacity="1">region</text><path fill="rgb(225,240,255)" stroke="rgb(29,122,218)" paint-order="fill stroke markers" d=" M 300 1059.0000042915344 L 566 1059.0000042915344 L 566 1059.0000042915344 A 8 8 0 0 1 574 1067.0000042915344 L 574 1129.0000042915344 L 574 1129.0000042915344 A 8 8 0 0 1 566 1137.0000042915344 L 34 1137.0000042915344 L 34 1137.0000042915344 A 8 8 0 0 1 26 1129.0000042915344 L 26 1067.0000042915344 L 26 1067.0000042915344 A 8 8 0 0 1 34 1059.0000042915344 L 300 1059.0000042915344 Z" fill-opacity="1" stroke-opacity="1" stroke-miterlimit="10" stroke-width="5"/><text fill="rgb(0,0,0)" stroke="none" font-family="Avenir, Helvetica, Arial, sans-serif" font-size="32px" font-style="normal" font-weight="bold" text-decoration="normal" x="300" y="1114.0000042915344" text-anchor="middle" dominant-baseline="text-after-edge" fill-opacity="1">vpc_cidr_kubevnet</text><path fill="rgb(40,167,69)" stroke="none" paint-order="stroke fill markers" d=" M 400 1692.0000050067902 L 666 1692.0000050067902 L 666 1692.0000050067902 A 8 8 0 0 1 674 1700.0000050067902 L 674 1762.0000050067902 L 674 1762.0000050067902 A 8 8 0 0 1 666 1770.0000050067902 L 134 1770.0000050067902 L 134 1770.0000050067902 A 8 8 0 0 1 126 1762.0000050067902 L 126 1700.0000050067902 L 126 1700.0000050067902 A 8 8 0 0 1 134 1692.0000050067902 L 400 1692.0000050067902 Z" fill-opacity="1"/><text fill="rgb(255,255,255)" stroke="none" font-family="Avenir, Helvetica, Arial, sans-serif" font-size="32px" font-style="normal" font-weight="bold" text-decoration="normal" x="400" y="1747.0000050067902" text-anchor="middle" dominant-baseline="text-after-edge" fill-opacity="1">attach</text><path fill="rgb(40,167,69)" stroke="none" paint-order="stroke fill markers" d=" M 1198.2000007152558 1692.0000050067902 L 1464.2000007152558 1692.0000050067902 L 1464.2000007152558 1692.0000050067902 A 8 8 0 0 1 1472.2000007152558 1700.0000050067902 L 1472.2000007152558 1762.0000050067902 L 1472.2000007152558 1762.0000050067902 A 8 8 0 0 1 1464.2000007152558 1770.0000050067902 L 932.2000007152558 1770.0000050067902 L 932.2000007152558 1770.0000050067902 A 8 8 0 0 1 924.2000007152558 1762.0000050067902 L 924.2000007152558 1700.0000050067902 L 924.2000007152558 1700.0000050067902 A 8 8 0 0 1 932.2000007152558 1692.0000050067902 L 1198.2000007152558 1692.0000050067902 Z" fill-opacity="1"/><text fill="rgb(255,255,255)" stroke="none" font-family="Avenir, Helvetica, Arial, sans-serif" font-size="32px" font-style="normal" font-weight="bold" text-decoration="normal" x="1198.2000007152558" y="1747.0000050067902" text-anchor="middle" dominant-baseline="text-after-edge" fill-opacity="1">assign</text><path fill="rgb(40,167,69)" stroke="none" paint-order="stroke fill markers" d=" M 1996.4000014305116 2348.4000064373017 L 2262.4000014305116 2348.4000064373017 L 2262.4000014305116 2348.4000064373017 A 8 8 0 0 1 2270.4000014305116 2356.4000064373017 L 2270.4000014305116 2418.4000064373017 L 2270.4000014305116 2418.4000064373017 A 8 8 0 0 1 2262.4000014305116 2426.4000064373017 L 1730.4000014305116 2426.4000064373017 L 1730.4000014305116 2426.4000064373017 A 8 8 0 0 1 1722.4000014305116 2418.4000064373017 L 1722.4000014305116 2356.4000064373017 L 1722.4000014305116 2356.4000064373017 A 8 8 0 0 1 1730.4000014305116 2348.4000064373017 L 1996.4000014305116 2348.4000064373017 Z" fill-opacity="1"/><text fill="rgb(255,255,255)" stroke="none" font-family="Avenir, Helvetica, Arial, sans-serif" font-size="32px" font-style="normal" font-weight="bold" text-decoration="normal" x="1996.4000014305116" y="2403.4000064373017" text-anchor="middle" dominant-baseline="text-after-edge" fill-opacity="1">Spoke1ToHub</text><path fill="rgb(40,167,69)" stroke="none" paint-order="stroke fill markers" d=" M 1996.4000014305116 1692.0000050067902 L 2262.4000014305116 1692.0000050067902 L 2262.4000014305116 1692.0000050067902 A 8 8 0 0 1 2270.4000014305116 1700.0000050067902 L 2270.4000014305116 1762.0000050067902 L 2270.4000014305116 1762.0000050067902 A 8 8 0 0 1 2262.4000014305116 1770.0000050067902 L 1730.4000014305116 1770.0000050067902 L 1730.4000014305116 1770.0000050067902 A 8 8 0 0 1 1722.4000014305116 1762.0000050067902 L 1722.4000014305116 1700.0000050067902 L 1722.4000014305116 1700.0000050067902 A 8 8 0 0 1 1730.4000014305116 1692.0000050067902 L 1996.4000014305116 1692.0000050067902 Z" fill-opacity="1"/><text fill="rgb(255,255,255)" stroke="none" font-family="Avenir, Helvetica, Arial, sans-serif" font-size="32px" font-style="normal" font-weight="bold" text-decoration="normal" x="1996.4000014305116" y="1747.0000050067902" text-anchor="middle" dominant-baseline="text-after-edge" fill-opacity="1">rt</text><path fill="rgb(40,167,69)" stroke="none" paint-order="stroke fill markers" d=" M 400 2020.2000057220457 L 666 2020.2000057220457 L 666 2020.2000057220457 A 8 8 0 0 1 674 2028.2000057220457 L 674 2090.2000057220457 L 674 2090.2000057220457 A 8 8 0 0 1 666 2098.2000057220457 L 134 2098.2000057220457 L 134 2098.2000057220457 A 8 8 0 0 1 126 2090.2000057220457 L 126 2028.2000057220457 L 126 2028.2000057220457 A 8 8 0 0 1 134 2020.2000057220457 L 400 2020.2000057220457 Z" fill-opacity="1"/><text fill="rgb(255,255,255)" stroke="none" font-family="Avenir, Helvetica, Arial, sans-serif" font-size="32px" font-style="normal" font-weight="bold" text-decoration="normal" x="400" y="2075.2000057220457" text-anchor="middle" dominant-baseline="text-after-edge" fill-opacity="1">natgw</text><path fill="rgb(40,167,69)" stroke="none" paint-order="stroke fill markers" d=" M 400 2804.6000078678135 L 666 2804.6000078678135 L 666 2804.6000078678135 A 8 8 0 0 1 674 2812.6000078678135 L 674 2874.6000078678135 L 674 2874.6000078678135 A 8 8 0 0 1 666 2882.6000078678135 L 134 2882.6000078678135 L 134 2882.6000078678135 A 8 8 0 0 1 126 2874.6000078678135 L 126 2812.6000078678135 L 126 2812.6000078678135 A 8 8 0 0 1 134 2804.6000078678135 L 400 2804.6000078678135 Z" fill-opacity="1"/><text fill="rgb(255,255,255)" stroke="none" font-family="Avenir, Helvetica, Arial, sans-serif" font-size="32px" font-style="normal" font-weight="bold" text-decoration="normal" x="400" y="2859.6000078678135" text-anchor="middle" dominant-baseline="text-after-edge" fill-opacity="1">hub1_natgwvnet</text><path fill="rgb(40,167,69)" stroke="none" paint-order="stroke fill markers" d=" M 1198.2000007152558 2020.2000057220457 L 1464.2000007152558 2020.2000057220457 L 1464.2000007152558 2020.2000057220457 A 8 8 0 0 1 1472.2000007152558 2028.2000057220457 L 1472.2000007152558 2090.2000057220457 L 1472.2000007152558 2090.2000057220457 A 8 8 0 0 1 1464.2000007152558 2098.2000057220457 L 932.2000007152558 2098.2000057220457 L 932.2000007152558 2098.2000057220457 A 8 8 0 0 1 924.2000007152558 2090.2000057220457 L 924.2000007152558 2028.2000057220457 L 924.2000007152558 2028.2000057220457 A 8 8 0 0 1 932.2000007152558 2020.2000057220457 L 1198.2000007152558 2020.2000057220457 Z" fill-opacity="1"/><text fill="rgb(255,255,255)" stroke="none" font-family="Avenir, Helvetica, Arial, sans-serif" font-size="32px" font-style="normal" font-weight="bold" text-decoration="normal" x="1198.2000007152558" y="2075.2000057220457" text-anchor="middle" dominant-baseline="text-after-edge" fill-opacity="1">prefix</text><path fill="rgb(40,167,69)" stroke="none" paint-order="stroke fill markers" d=" M 400 2932.600008583069 L 666 2932.600008583069 L 666 2932.600008583069 A 8 8 0 0 1 674 2940.600008583069 L 674 3002.600008583069 L 674 3002.600008583069 A 8 8 0 0 1 666 3010.600008583069 L 134 3010.600008583069 L 134 3010.600008583069 A 8 8 0 0 1 126 3002.600008583069 L 126 2940.600008583069 L 126 2940.600008583069 A 8 8 0 0 1 134 2932.600008583069 L 400 2932.600008583069 Z" fill-opacity="1"/><text fill="rgb(255,255,255)" stroke="none" font-family="Avenir, Helvetica, Arial, sans-serif" font-size="32px" font-style="normal" font-weight="bold" text-decoration="normal" x="400" y="2987.600008583069" text-anchor="middle" dominant-baseline="text-after-edge" fill-opacity="1">spoke1_kubevnet</text><path fill="rgb(40,167,69)" stroke="none" paint-order="stroke fill markers" d=" M 1996.4000014305116 2020.2000057220457 L 2262.4000014305116 2020.2000057220457 L 2262.4000014305116 2020.2000057220457 A 8 8 0 0 1 2270.4000014305116 2028.2000057220457 L 2270.4000014305116 2090.2000057220457 L 2270.4000014305116 2090.2000057220457 A 8 8 0 0 1 2262.4000014305116 2098.2000057220457 L 1730.4000014305116 2098.2000057220457 L 1730.4000014305116 2098.2000057220457 A 8 8 0 0 1 1722.4000014305116 2090.2000057220457 L 1722.4000014305116 2028.2000057220457 L 1722.4000014305116 2028.2000057220457 A 8 8 0 0 1 1730.4000014305116 2020.2000057220457 L 1996.4000014305116 2020.2000057220457 Z" fill-opacity="1"/><text fill="rgb(255,255,255)" stroke="none" font-family="Avenir, Helvetica, Arial, sans-serif" font-size="32px" font-style="normal" font-weight="bold" text-decoration="normal" x="1996.4000014305116" y="2075.2000057220457" text-anchor="middle" dominant-baseline="text-after-edge" fill-opacity="1">rtassoc</text><path fill="rgb(40,167,69)" stroke="none" paint-order="stroke fill markers" d=" M 1996.4000014305116 2476.4000071525575 L 2262.4000014305116 2476.4000071525575 L 2262.4000014305116 2476.4000071525575 A 8 8 0 0 1 2270.4000014305116 2484.4000071525575 L 2270.4000014305116 2546.4000071525575 L 2270.4000014305116 2546.4000071525575 A 8 8 0 0 1 2262.4000014305116 2554.4000071525575 L 1730.4000014305116 2554.4000071525575 L 1730.4000014305116 2554.4000071525575 A 8 8 0 0 1 1722.4000014305116 2546.4000071525575 L 1722.4000014305116 2484.4000071525575 L 1722.4000014305116 2484.4000071525575 A 8 8 0 0 1 1730.4000014305116 2476.4000071525575 L 1996.4000014305116 2476.4000071525575 Z" fill-opacity="1"/><text fill="rgb(255,255,255)" stroke="none" font-family="Avenir, Helvetica, Arial, sans-serif" font-size="32px" font-style="normal" font-weight="bold" text-decoration="normal" x="1996.4000014305116" y="2531.4000071525575" text-anchor="middle" dominant-baseline="text-after-edge" fill-opacity="1">HubToSpoke1</text><path fill="rgb(40,167,69)" stroke="none" paint-order="stroke fill markers" d=" M 400 2348.4000064373017 L 666 2348.4000064373017 L 666 2348.4000064373017 A 8 8 0 0 1 674 2356.4000064373017 L 674 2418.4000064373017 L 674 2418.4000064373017 A 8 8 0 0 1 666 2426.4000064373017 L 134 2426.4000064373017 L 134 2426.4000064373017 A 8 8 0 0 1 126 2418.4000064373017 L 126 2356.4000064373017 L 126 2356.4000064373017 A 8 8 0 0 1 134 2348.4000064373017 L 400 2348.4000064373017 Z" fill-opacity="1"/><text fill="rgb(255,255,255)" stroke="none" font-family="Avenir, Helvetica, Arial, sans-serif" font-size="32px" font-style="normal" font-weight="bold" text-decoration="normal" x="400" y="2403.4000064373017" text-anchor="middle" dominant-baseline="text-after-edge" fill-opacity="1">natgw</text><path fill="rgb(40,167,69)" stroke="none" paint-order="stroke fill markers" d=" M 1198.2000007152558 2804.6000078678135 L 1464.2000007152558 2804.6000078678135 L 1464.2000007152558 2804.6000078678135 A 8 8 0 0 1 1472.2000007152558 2812.6000078678135 L 1472.2000007152558 2874.6000078678135 L 1472.2000007152558 2874.6000078678135 A 8 8 0 0 1 1464.2000007152558 2882.6000078678135 L 932.2000007152558 2882.6000078678135 L 932.2000007152558 2882.6000078678135 A 8 8 0 0 1 924.2000007152558 2874.6000078678135 L 924.2000007152558 2812.6000078678135 L 924.2000007152558 2812.6000078678135 A 8 8 0 0 1 932.2000007152558 2804.6000078678135 L 1198.2000007152558 2804.6000078678135 Z" fill-opacity="1"/><text fill="rgb(255,255,255)" stroke="none" font-family="Avenir, Helvetica, Arial, sans-serif" font-size="32px" font-style="normal" font-weight="bold" text-decoration="normal" x="1198.2000007152558" y="2859.6000078678135" text-anchor="middle" dominant-baseline="text-after-edge" fill-opacity="1">ingress</text><path fill="rgb(40,167,69)" stroke="none" paint-order="stroke fill markers" d=" M 1198.2000007152558 2932.600008583069 L 1464.2000007152558 2932.600008583069 L 1464.2000007152558 2932.600008583069 A 8 8 0 0 1 1472.2000007152558 2940.600008583069 L 1472.2000007152558 3002.600008583069 L 1472.2000007152558 3002.600008583069 A 8 8 0 0 1 1464.2000007152558 3010.600008583069 L 932.2000007152558 3010.600008583069 L 932.2000007152558 3010.600008583069 A 8 8 0 0 1 924.2000007152558 3002.600008583069 L 924.2000007152558 2940.600008583069 L 924.2000007152558 2940.600008583069 A 8 8 0 0 1 932.2000007152558 2932.600008583069 L 1198.2000007152558 2932.600008583069 Z" fill-opacity="1"/><text fill="rgb(255,255,255)" stroke="none" font-family="Avenir, Helvetica, Arial, sans-serif" font-size="32px" font-style="normal" font-weight="bold" text-decoration="normal" x="1198.2000007152558" y="2987.600008583069" text-anchor="middle" dominant-baseline="text-after-edge" fill-opacity="1">natgw</text><path fill="rgb(40,167,69)" stroke="none" paint-order="stroke fill markers" d=" M 1198.2000007152558 2348.4000064373017 L 1464.2000007152558 2348.4000064373017 L 1464.2000007152558 2348.4000064373017 A 8 8 0 0 1 1472.2000007152558 2356.4000064373017 L 1472.2000007152558 2418.4000064373017 L 1472.2000007152558 2418.4000064373017 A 8 8 0 0 1 1464.2000007152558 2426.4000064373017 L 932.2000007152558 2426.4000064373017 L 932.2000007152558 2426.4000064373017 A 8 8 0 0 1 924.2000007152558 2418.4000064373017 L 924.2000007152558 2356.4000064373017 L 924.2000007152558 2356.4000064373017 A 8 8 0 0 1 932.2000007152558 2348.4000064373017 L 1198.2000007152558 2348.4000064373017 Z" fill-opacity="1"/><text fill="rgb(255,255,255)" stroke="none" font-family="Avenir, Helvetica, Arial, sans-serif" font-size="32px" font-style="normal" font-weight="bold" text-decoration="normal" x="1198.2000007152558" y="2403.4000064373017" text-anchor="middle" dominant-baseline="text-after-edge" fill-opacity="1">assing</text><path fill="rgb(40,167,69)" stroke="none" paint-order="stroke fill markers" d=" M 1198.2000007152558 3060.600009298325 L 1464.2000007152558 3060.600009298325 L 1464.2000007152558 3060.600009298325 A 8 8 0 0 1 1472.2000007152558 3068.600009298325 L 1472.2000007152558 3130.600009298325 L 1472.2000007152558 3130.600009298325 A 8 8 0 0 1 1464.2000007152558 3138.600009298325 L 932.2000007152558 3138.600009298325 L 932.2000007152558 3138.600009298325 A 8 8 0 0 1 924.2000007152558 3130.600009298325 L 924.2000007152558 3068.600009298325 L 924.2000007152558 3068.600009298325 A 8 8 0 0 1 932.2000007152558 3060.600009298325 L 1198.2000007152558 3060.600009298325 Z" fill-opacity="1"/><text fill="rgb(255,255,255)" stroke="none" font-family="Avenir, Helvetica, Arial, sans-serif" font-size="32px" font-style="normal" font-weight="bold" text-decoration="normal" x="1198.2000007152558" y="3115.600009298325" text-anchor="middle" dominant-baseline="text-after-edge" fill-opacity="1">aks</text><g transform="scale(10,10) translate(-28.1,-4.6000000000000005)"/></g></svg>